<mxfile host="app.diagrams.net" modified="2022-06-20T09:39:14.845Z" agent="5.0 (Windows NT 10.0; Win64; x64) AppleWebKit/537.36 (KHTML, like Gecko) Chrome/102.0.0.0 Safari/537.36" etag="gbwJcGhaWcC20lK5cjl9" version="18.1.3" type="github">
  <diagram id="aFEhM5DrXQ567l9NKpr9" name="Page-1">
    <mxGraphModel dx="4260" dy="2897" grid="1" gridSize="10" guides="1" tooltips="1" connect="1" arrows="1" fold="1" page="1" pageScale="1" pageWidth="850" pageHeight="1100" math="0" shadow="0">
      <root>
        <mxCell id="0" />
        <mxCell id="1" parent="0" />
        <mxCell id="HVJRfHz5RvlKbp3GfN3z-2" value="" style="shape=mxgraph.cisco.computers_and_peripherals.pc;sketch=0;html=1;pointerEvents=1;dashed=0;fillColor=#036897;strokeColor=#ffffff;strokeWidth=2;verticalLabelPosition=bottom;verticalAlign=top;align=center;outlineConnect=0;" vertex="1" parent="1">
          <mxGeometry x="570" y="-1078.5" width="78" height="70" as="geometry" />
        </mxCell>
        <mxCell id="HVJRfHz5RvlKbp3GfN3z-3" value="" style="shape=mxgraph.cisco.routers.router;sketch=0;html=1;pointerEvents=1;dashed=0;fillColor=#036897;strokeColor=#ffffff;strokeWidth=2;verticalLabelPosition=bottom;verticalAlign=top;align=center;outlineConnect=0;" vertex="1" parent="1">
          <mxGeometry x="327" y="-1070" width="78" height="53" as="geometry" />
        </mxCell>
        <mxCell id="2m_FyNcGKUiWBxxuH8gW-2" style="edgeStyle=orthogonalEdgeStyle;rounded=0;orthogonalLoop=1;jettySize=auto;html=1;exitX=0.5;exitY=0;exitDx=0;exitDy=0;exitPerimeter=0;strokeColor=#FFD966;" edge="1" parent="1" source="HVJRfHz5RvlKbp3GfN3z-6">
          <mxGeometry relative="1" as="geometry">
            <mxPoint x="299.46153846153857" y="327" as="targetPoint" />
          </mxGeometry>
        </mxCell>
        <mxCell id="HVJRfHz5RvlKbp3GfN3z-6" value="" style="shape=mxgraph.cisco.modems_and_phones.modem;sketch=0;html=1;pointerEvents=1;dashed=0;fillColor=#036897;strokeColor=#ffffff;strokeWidth=2;verticalLabelPosition=bottom;verticalAlign=top;align=center;outlineConnect=0;" vertex="1" parent="1">
          <mxGeometry x="181.5" y="-1040" width="77" height="27" as="geometry" />
        </mxCell>
        <mxCell id="HVJRfHz5RvlKbp3GfN3z-7" value="" style="shape=mxgraph.cisco.switches.layer_3_switch;sketch=0;html=1;pointerEvents=1;dashed=0;fillColor=#036897;strokeColor=#ffffff;strokeWidth=2;verticalLabelPosition=bottom;verticalAlign=top;align=center;outlineConnect=0;" vertex="1" parent="1">
          <mxGeometry x="470" y="-1081" width="64" height="64" as="geometry" />
        </mxCell>
        <mxCell id="HVJRfHz5RvlKbp3GfN3z-9" value="" style="sketch=0;pointerEvents=1;shadow=0;dashed=0;html=1;strokeColor=none;fillColor=#505050;labelPosition=center;verticalLabelPosition=bottom;verticalAlign=top;outlineConnect=0;align=center;shape=mxgraph.office.devices.printer;" vertex="1" parent="1">
          <mxGeometry x="74" y="-1040" width="56" height="47" as="geometry" />
        </mxCell>
        <mxCell id="HVJRfHz5RvlKbp3GfN3z-10" value="" style="shape=image;html=1;verticalAlign=top;verticalLabelPosition=bottom;labelBackgroundColor=#ffffff;imageAspect=0;aspect=fixed;image=https://cdn1.iconfinder.com/data/icons/science-technology-outline-24-px/24/Ceremonial_projector_movie_projector_multimedia_projector_video_projector-128.png" vertex="1" parent="1">
          <mxGeometry x="165.5" y="-959" width="98" height="98" as="geometry" />
        </mxCell>
        <mxCell id="HVJRfHz5RvlKbp3GfN3z-11" value="" style="shape=image;html=1;verticalAlign=top;verticalLabelPosition=bottom;labelBackgroundColor=#ffffff;imageAspect=0;aspect=fixed;image=https://cdn0.iconfinder.com/data/icons/google-material-design-3-0/48/ic_event_seat_48px-128.png" vertex="1" parent="1">
          <mxGeometry x="45" y="-911" width="90" height="90" as="geometry" />
        </mxCell>
        <mxCell id="HVJRfHz5RvlKbp3GfN3z-12" value="" style="endArrow=none;html=1;rounded=0;strokeColor=#FF9CCD;" edge="1" parent="1">
          <mxGeometry width="50" height="50" relative="1" as="geometry">
            <mxPoint x="420" y="-959" as="sourcePoint" />
            <mxPoint x="470" y="-1009" as="targetPoint" />
          </mxGeometry>
        </mxCell>
        <mxCell id="HVJRfHz5RvlKbp3GfN3z-13" value="" style="endArrow=none;html=1;rounded=0;strokeColor=#7EA6E0;" edge="1" parent="1">
          <mxGeometry width="50" height="50" relative="1" as="geometry">
            <mxPoint x="334.5" y="-900" as="sourcePoint" />
            <mxPoint x="397.5" y="-970" as="targetPoint" />
          </mxGeometry>
        </mxCell>
        <mxCell id="HVJRfHz5RvlKbp3GfN3z-14" value="" style="endArrow=none;html=1;rounded=0;strokeColor=#97D077;" edge="1" parent="1">
          <mxGeometry width="50" height="50" relative="1" as="geometry">
            <mxPoint x="360" y="-880" as="sourcePoint" />
            <mxPoint x="390" y="-940" as="targetPoint" />
          </mxGeometry>
        </mxCell>
        <mxCell id="HVJRfHz5RvlKbp3GfN3z-15" value="" style="endArrow=none;html=1;rounded=0;strokeColor=#FFD966;" edge="1" parent="1">
          <mxGeometry width="50" height="50" relative="1" as="geometry">
            <mxPoint x="290" y="-923" as="sourcePoint" />
            <mxPoint x="353" y="-993" as="targetPoint" />
          </mxGeometry>
        </mxCell>
        <mxCell id="HVJRfHz5RvlKbp3GfN3z-16" value="" style="shape=image;verticalLabelPosition=bottom;labelBackgroundColor=default;verticalAlign=top;aspect=fixed;imageAspect=0;image=data:image/png,iVBORw0KGgoAAAANSUhEUgAAAbIAAAFFCAYAAACJ5Gi9AAAAAXNSR0IArs4c6QAAAARnQU1BAACxjwv8YQUAAAAJcEhZcwAAEnQAABJ0Ad5mH3gAAIfiSURBVHhe7d0FYNTWHwfwb9u79uruQKFAcSnF3d19uAx3HTZkDBjurhvu7u7FvUCxCtTd25P3f8mlUGyj/LErv88t4/Kil7vml9/LS6LHOBBCCCE6Sl/6lxBCCNFJFMgIIYToNApkhBBCdBoFMkIIITqNAhkhhBCdRoGMEEKITqNARgghRKdRICOEEKLTKJARQgjRaRTICCGE6DQKZIQQQnQaBTJCCCE6jQIZIYQQnUaBjBBCiE6jQEYIIUSnUSAjhBCi0yiQEUII0WkUyAghhOg0CmSEEEJ0GgUyQgghOo0CGSGEEJ1GgYwQQohOo0BGCCFEp1EgI4QQotMokBFCCNFpeoyT3pNPULF2RVhaWoI2GyHkR6Wnp4fY2FjY29lj96bdUmnWRYEskw4eOYgGdRtApVJJJYQQ8mORyWS453MP85fMx6pFq6TSrIsCWSbtP7Qfjeo3kvoIIeTH5PPIB7MWzMKaJWukkqyLzpERQgjRaRTICCGE6DQKZIQQQnQaBTJCCCE6jQIZIYRkUUzzc7Tlo0BGyBekSXmJJaN7oV27dpi85hDSpPJvIuYp/hzVF23bdsT0v89822WTH5Kevp70LmujQEZ+GmF+D3F07xYsX7YMa3bsx/0XodKQjJS4c2wPlixchC27LyIpkwe0fmc3YcxfK7D7nD8KeBWHoVT+KZTKeASHx0t9QPTj6/hn0WIsX70WzyNTpdKPu3tyI+ZOX4r914JRzKtY5pYd+ww7NizGwmUrcfJJmFRKiI4QriMjn27fwX3SO6IrYgLusPFdGrKcjjZMrg8hNDF+qMqsnHKx5gNmMN+wVGlMQQz7s3EpcZxcJXuxQLVU/CnUEWxsvcIMitxs8bFnUuGniXx2jQ3oUJsN2n5TKmHszupxzFZYV4U523wzWir9iLQQNqyWM4NtIbbxSqBU+OlifTaxwo7CtjFgbddckkqJLnvw8AHr2qer1Je1UUZGsrS4gAvo3qQu/lh3AH6hMTAwtoC1tTXMjQ0RG/ICuxaORMuuvyHgdSKkB5me9s9CD/JMVVmwND2U6zIUuw/sxq+13KXS/5b68hS6tKyChRvOICHDn6QBX4P0PoP/WBGmAqq1/QN79+1Au9LZpNJPJ3xk7cfWA2T/sTBCfjD0iyVZWBwWjxqBnbeCeSSwRZsRC3Dz0XO8fPUKvrfPYWSbSsJuG3cPLsfM9ae1k/wf9BQ2aNC6K5rWKJKpar2UqOd4HJDE3xnw/3j3GfSMHdGg269oXD6/VELIz4MCGcmyom7tw5oj3uL7yh0nYuX0fiiQzRYmxsZwylsKUxYtQKvi1lBYmcH3iQ8SxDHfnBw3kMmRHB6IddOHonpJT5Sv0QhTVuxHaLJaGgN4eXEz6hQuiEJFG2D39Qzn3JJfYVT3OsibryDaTdsl1md+yJMTk1GjzWj4xQh9qdg9pCkKlKuHLT4RMDKUieNAXx8ydSKu71mFXxpUQJFS5dF1+Ezc9I/WDhclY+W46iiQrwAqDp+P2DerCGVSGA5vWIBOzaugWNFCqNm4NWau2Y9XcR+6X6ieGEuDbxzE4I6N+fgl0azzEOy/+gIaaQxCfjhSFSP5RHSOTHdcmj+AmYvnmGzYnJP+UmkGmjT29PZldu1RAEtRaaTCWPZXkzLiOTJbpyKsXMnczNDQkCmMDBkPcbxcn9Xtu5wlSGM/OTiXOYjl2diyUxmWEf+Uta7gKM6neM8l7GOn2u7u6susTcQ4J3YymQGDrQdbci2IPd0wSTtvIwWrULkCczA1ZgqFgsmk83yOhRqxiwFp0pwS2MRfbMRy0yYjWIRSKo72YSObFBcqLBkM5MzExJgZ6OuJ43m2HsEC47WfO+7RJlbEWZivnLmXr8IKOJkxQ74sQ5l2XNh4sGVnMnfej3xfdI6MEJ2nxpOgEAinvuQKQ+TP7qgtzkhPjtzFyqJkvuwwMni/mXJkyGM4VhuC52GxiAx6hNGtPXmpBscPLsWFAKU4jnAWS/tHxP+Vzq2J9Pj80vv/5QRXkWaLcffkAuSxEfoUaLfmPNRBd9GnpDNSUqW0KjUFfsku2HL9BeLjInFs8QjY8qwp9MFRrD19RzsO93rxQpNr6ePsXjgBM/fehqFjKT7uPcTEROHo6t9gy4fd2rYAMzdf0I4oEKdR4tWzWAz6+zLi4uLw6NRqeDoY8vTWF5tWHOc5I9ElfB8vvcvaPv4XRohOUyMqJVl8J/zIP+dyGiuPivh9RD+4WipgYpMLv7SoBCNero5LwqvIWO1IX4CZqbFQe8jpQW5sBn1DYSkCJqZeMDBGn3F/olp+R8jkJqjWtClyupnyAWkIfxoijPEeMaglPMOOoyfEeRRt2xtdKuWDXK5A1Sa9MHZMT/y5bBW61spwTk3a51XvORa9aheGkVyOXJUao1be3GJ5TOQT8cCA6A7huWQ/AwpkJIvi2ZalDYSzTKlKFV5Gac+AvU2JK4c2YsWGg/ANjOKh7222FoXhYif1cGbW2bVJS2oakpNSxLKPE8b8tD8vMX68PnD+wJkouQweOR2kHs7EGjIjIZABKQGJ7623QNh/KRNCER6sPY9WMLer+K/AwDonhkxZjrG9OqB4TnupNJ0Mlh5u0nuBAk4ybdOV1NRAKLWJKCE/FApkJIvSg0eJPLARGgEmxuHM2eva4oySgrDqzyHo1bEhqnecglAxhrw5gmU8qGS8w8+baho98aWVoezNpIAqGWlpn5i18VlkWMyHZRwhQ3XRm/X4d0pNJppqsIzjClmhdnk/ycE90UEUyEiWla9aC9QoKGQyadi+cDL+Off0TTzQJGLn0qnYdDmc98hRp3EtuIh/Df8ZUt6iZ5B+jiweSalvziAlRAUh/NWHssD36evL31R96n9e8/t3CbFObu4IBxfhbBjw4N5TvG6jqIzAymkjMGLKQhy/9lz8xBSjiC6jQEayLouCGDWpP1yNgdTAi+jTtBYatOyAX3/tjpb1aqD72BUQrt5yKNUW/TvW0k6TSdbOrnAyEd5FYes/W+AfmYC40MdYPPlPXHoljvKfzMyywUghVN+lIuz+I0TFxiFFiET/RwokJlWmufFLo0bC1Wm4u2MxZu+6hsSkRFw/tBFzps3CrHEDMX3z/3/9HCHfGwUykqUVbTYKW1dPQxFXCyRF++Hwzo1YvXoNdh67glieQLkUbYLVy2fD0z49E2JQS1V3/N1b+Rlj0tkoPjz9ruLWBSuhcasy4vtLG8cht6M1rJ3yY9a5aJTKn1Msh/rfq/UMnN1RxEXIHDXYP7EVbK3y8aDzCDJj2evlv1UzKESpDOuY7nWNoLBu0oQNeo/FqJZloB/7GKNalIWVpRVKNxuMR/FAripdMXt0OzEbE2YnzZKvb/obgVDBqiXONuMgQn4QFMhIFidHhV9+w5nz57F+0VR0bF4DpUuXRL0WXTB77X5cOr0RDT0zNniQIXu+IiheqAg8C+cWWymmU1hlR+mynihapgScLKUhMnuMmbcHO5ZORrPa5eBZpRb6T1qEM6cPYUSbBihesAiK5HHWjvsxRrkwc9U6/NajFUp5lUCdZvVRwsMaRtauKFWkGF/fUrA3y1DlKDNF4eIlUahQaRTI7SBVC+oju0dJFCtSlAdQN8jSkzmLPJj4zyEc2bIU3dtUR4niRVG76S+YumwHzu5YhGL2PF3lDEzsUMyrKAqVLIM8juZimZYBXAsWRbFCheBZMC+MaI+hU36Wx7joCReTSe/JJ9h/aD8a1W8k9RFCyI/J55EPZi2YhTVL1kglWRcdXxFCCNFplJFl0vfMyC48Dcbh+wEw+EYPyxPOFRno6aN7xfxws8lY3UQI+dH9TBkZBbJM+h6BLD5FiXkn7+CvQzeRlJz6f7Vm+2T8ZyGXyzC2cSmMqFUcIbFJcLM1/2ZBlBDy/6FARj7qWweyFxHxGLX7Mk4+egV9HsC+RSARfhJyAwNMa1oGHcp6YPaxO3gWEYsl7SpLYxBCfnQUyMhHfetAlqxUISI+BXKZ/iffxeFLEH4W9uYKTDxwHX/uvYpfqxbGyo5VpaGEkB8dBTLyUd8qkF19EYYjPgGQ6et/Vham0mjE81ufUwupVGvQtXx+BEYnoOasvUhMSkXPmkWxvH0VaQxCyI9OCGQz58/E2qVrpZKsiwJZJn2rQDb35B0MFR6x8RlBTJ9/pdnsLBAUFc8DGi/I7CzSVDgzpiVkBnqoM/8AEhNS0LMGBTJCdIkQyKbOmooNqzZIJVkXNb//QRkIqZRwHz/eGWSiE+R1tsHRQQ3RQXzsPfvgeP/WCcsVFv8tqzK/Bw1/RfKXD3/d4q/7/BXKX0I5IVmBkVHGS/qzLgpkWYiQXMtlBhhWqxjyO1ljTD0vFMpmB/V/3CLpZxTPX6f46wB/XecvIYjd5K8j/HWIvyL4ixBd97NUuFEg0zEaHpTUKt5p0h+u8YbwED3hcR0rLviI57lG7rwEn+AoMat7l4b/wIUAp1a9fT/Bn0EMfwkBS8i+rPjLhr+s+Sv9XyHICcND+IsQ8uOjQKZDhOCVx9GKZ1k2cLIwhhHPvt4LQjxAJaZqH9iRwP9lSvV7FYRCM34rYyPxurASOR1gaigTJvspqPjrEn8J/wpBzED8E9A+c0t4CW1DzfnLkL/O8lcifxFCfmwUyHSJUiW2JrwxthXmt60EE7kQgN6PQOktFcV2Ih84zSVkaw2KuuHiyObY06cezIzk0PCd+Peg4osVOkGSGkj7yrWgAfwlZFpCsBLu656m1udZrD4PaLxPo8f7hXcMJvyVyl++/PU1Jan5cqXPn8A3xLe+x6two/v0bZ7C/0350OOmvxLho8YrtR9Y+L+wLQj5HBTIdImBPq75h4nXltUumB3FstmCqd7Z8/A9YSrPwgKiE5CYohQfISJUI6ZTq9ViBtaseC5YmRriSXgsgmOTtI1LvoNb0WqsepaKV0kMkx+kIFTYm35FQiAz5i+BPt99hiaYYq9PXsSkGuHQY3c8j7YUg5pAwV9B/CUEtq9lvZ8SB4JUuBerxoT7PHR+40jmn6jBvMcpCE9lmOKTgqcJ3y6SCT/LqQ9T4R2pxulQFZY9TZOGEJI5FMh0iPA0YuH6siqz9mLz1SfY2rM2ahVxE89zafgOUDjn5WhjATtLU0w4eAMmJgoU98gGS/6v9ryaBrZmJljfrQZsTI1QeupOjN979ZvcLeRjSlgb4GUyQzvvRNRzliO7ydf7SQoBSTj/ZcRfwnuh0jWnZSxyWMVh/sWSkOlrUMAukudpeuJwGX8JVYvqDM/8+tLa5pDjULASo+6moFduQxgbfNvvwt1MH4b8+29+MRGeVgYobPllnlD9KYSfXd88hpjJA+naF2lo5yY8XJR8ST/LY1wokOkQ4dxWUGwi7gaEY8Cmc1h27gHWdamOku5OsDI3xvjGpXFiUEOcHtwIGzpXw7EB9XFhWGPs718PXSsXgsLICOu6Voe5whBtVxyHz8tIXHwaLM39+4jgmYBQtVWcB7Sn8V83GxAuJ9Dnr/Tm9ULISNHIEJ5ojFw2sUhINUR8mqEYxoRxhWAm/Ps1L0N4wTMiYxmQy1QfPnFfKRvVKBESFIjA4LD3qm6Fqj3hOyhlY4DnfF2+dtXuu54laOCs0IetkZ6YHZIvS+87HqR+SxTIdIx4v0WhkQf/fU7YdxU9N5yDu4MVTvHgNalhSRR2sYax/M1RtVCNWJEHutUdqmB2y3KYf/o+2qw4htC4JBjw8cTrxr6jwCQNqjvIMN/TGOGpGjz+ysHMlr+S+UsbnhiikhWwN01Ch+IPkM8hGtG8P53QIMSSv/hWkkq+vGCejfZwN8SfhRWI4p8/5WucJ1LGYPfWv/HnqEHoP3klYjNs4gQVUJlv/9nFeDDnwfRl8rcLJkq+qEPBKvxeUIEBHka4GKltpERIZlEg01FCU3vh3NctnlWNrlMcxbPZSkM+TDgF1rdyQRTLbouoxNTvHsDSmRjo4Ua0GsdDVRDO+wtH519TLv4SqgqFrEyoQnQ0TUS5bMJ5MMDTKQQ5LGP5ezkMIUMKD3i54K6d8Cup5yxDQQsDWBnqoRsPaIqvUbVoZI8+PXugdE5LWFlaQC9DrHQ21kNtJ5n4+2iRTQ53Hsy+FTlflIuxPk6HqXCWf/+28p8jeyBfHgUyHfFu60SxT08fw2sV+88gltHo2sVRLKf9D3ORdEFLfRjwPeuYuylo6CKHxf+1M2N45XMB00cMQIvGTdF52AQcvPRIDJDpHPkrD38Jd/TQ0ud5l/bPQPuvEaKenMGMXf/AQpMDeZkr7nlfxauoJHGcj4vF5uF/YNvpAKn/00U8PoO5W05AKfWnC7h5AhP5Z+nYawCW7biAz655Y3HYuewvnE/Ii57dWsBCJpX/ALrklGODfxpOh6vQOodcKiUkcyiQ/eA0Gp45qNWQ8wxKaKyR3gll9pYmaFsyjzTmp7E1VaCFp5Bl6L01P+GIXE9oMPJuK8iv7Em8BjF8Dy5Urx0KUiL5/6hau7vrL9Rr2Bbn/BNg6+gAvdB7GNauNvrMP6QN/JLS/JWdv6IRx7MyoTpLOBsmnA8TqhBViDVOQR67PKioXwlK/wvo2fMPPE/6rwCbjGt7D+PWk/QA+WniX1xBvw4dserQA778N54eXYQOXcch1cULjcq5Y++fv6LXX/uloZlz4e8pWHo2AcVMn2HIyOkITZUG/AB2vlSiop0B8pnri9WMhHwOCmQ/Mp6FZbM2x6QmZTGijiccLUyQ3cZc7OwtTFEmpyOsTTLf0qtsLgeYGBtmmJcJfimVF5t71UFpdyf+q9D7ZhdIC3GrqascPXMbIq+5AQ9qn7ngZD+Mn7cR+QesxsFta7Fi5Qqs27ALW2f1xvmZ43HyRSIC791FQFiSeLFzDVRDrocK3PcNQgwSeUiLQ3DEfdx68BTFzOuhj0tnWCtVuHHtIkKiQ+B99hJehidrl6VOg9+DGzhx6ix8/EOlNo1CGDTgc+afIdQXp06fwf3noeKQD1Ph4j8z0LBlV1wOTIGJUYY0KcUf0+YsR7kRCzBtSBe07jIEC+YMhlHYQ0R8LCtjKXh27ypOnTyDhwERbwXu3GUao++vTeFVvTmGdWn8OiNLDAuAj28wlAlRuHHpLM5evYO4pLeDSVJ0ILzPnYb33WdITgqDz/3riP1CreSF7174OD3cjdAppyE/oNKWE5JZFMh+UOKOiGdIfasWwu8NvNCnciFs+bU2Nnaria2/1sLc1hV4YDPmX2Dmq+KM5TI0KpqTz0c7v+09amNU3RJoWcIdazpXgysPbupvFMkMeRIkHJXPeZwqtuCzMfzMn6RaxbM5DYyMTaQCraL1u2LZhokoaKvB5smtMWHtKbFcj4evPf3GYnnfmyiraoZmqAW9RRdwZJ4p7C/eQJuB03jgCsfpY8cQyXfm+zZswfWn0fyLCcfikR3Rvu9vWLxsPro3b4U/Vl7mc+Th0SgFR7ZPRb/fJmHZohlo26QhJm+6KC7vPSkvcepKGHpNX48lA1tAlpL6OvhEPb6Kp0F50KGpF1LiIhEUFgm3qr2xet5I2H1g86jiX+GvgZ3QZeBYLFs8C11aNsfUrZfEYeEPTmDU0AlYyQP7wrnTMHb8dBy9pQ2wfkfWouMvPdH/t8GYvWQFJgzohIbdx+J5nDY0B986iI4tWmLMtAWYPXEEOnXugFbtf8H9L3QbSuF0oDH/PAufpGLV87RvfunBT+Hb/Bl/dxTIflDinzTPjKYfuY0/D97AsnM+aLj4IJouPcz/PYSeG84gKCaJ/04z/0sNjkvGntsvXs+v3sIDmHr4hljWbNkRvIqIg+wbNdsVGhdY86Ryc4ASNR1lMPrcX6RZHozv0RDnJ7dBww79MGPZWpy59hBJhk6oVq0hXCzMUbp6DVy5dg1CXsVCn+JxQiTCgl4hLMQAplDA99ZTVKhTCWJ7B6aCoX0ODBsxGrlzeGLyqgVoWs4F51f8gcXeDMu2H8LubbuwfmprHF40EVcilZDrhSGM2WPS/PXYtvMQD5KFsXz5XDxNENfwbQo3jFk0C+1qekEG5Vt39Aj3e4oAR1tc2/AXunfshGZN66B5jwm4FyplhO84vWoMVt21xopdR7Bt1wGs+b0Btsyfj9t+vjyj643Eor9i5/692L73OMbUNsGYIf3xnC/PiAeOkFvecK8/Bps2bMSJfath/ngVlp56yj9/CGaO+g3GNcbh6OHd2L5lGbxMYhEYzCD7go0467vIcT1KjecJGtRw+nqtQ39Wn7N/0EUUyH5kenqIS07FxP1XseDUXSSmqRCdlCp2SalKXPfnO86EFGnkT3f2SRBSU9NezyuZz3ffHT+0X3UcT0JipLG+jfuxah4A9LDAU4EjwSrEfm7VIleh8184te9vlLSKwraV8zCgS3OU8qqBRftui8OLlKsMe9+reJwIBN2/BU3OlmjtHoPbj0P5fvsuLj5wQI0yuaHRZDhPKMRzcZWEP5UkHDtzBKXb9UMRB22Vbp4a3bH30DIUs2ZITrVGw4YtkMdS+2dVsGQ1hPNtG/vB+z7piRmJ6J2PnMCzM7/zW3DkmQUmLFmPE3u2oaTyNHoMnY94aZw3InB02xM06dQVBay1gaBgg0E4umMxLF554/yt7Bg4tDm0eao+GnTrDdu059jlHQJ9vpourtXRoo7wuB9A5pAXrnkK4mlUDNIee+PiDUf05lm72ATD0AHtf+0AD1ul9hl3X8i6F2nomdsIDZxl2MIPZsiXJbRu/hlQIPvBCRc0Cvu5uJQ08TZSwnVk4rVkfC8UHpuIJeceaEf8RE/D43jQ8hffZ5xXIg+MySr1N2+Wn8z38fkt9FHaVsbXhYm3SvocamUyYmNSkatELUxctBnXr1/DkX1bMbJlXkwf2B5L+Y7btmAZZHeJwOU7IXj04C7ylKmNGsXccf7OYzy/fgJheXOhsKtcbEjzWnoVK99OUMciOPAF8jhZassEMmM4u+aCcNWAhpnBwsRGGiARpsskY4URrDQF0GtgT3i42sDcwR1DhvSB5skOXA14N+qF4wZfX2sXe6lA+M0o4OJiB1lSDGJz5eTZaIbzqNaOKJgqR5hvGFQ8khrKssE0YytGvrr6/PcQ+cofvjmd4WT25nlWVg7WMLcR7kkpFfyfhOvIwlIYvGwMUMJGhui0z/vuCaFApgOEoyoh4LyPYfGp+zj0IFDq/3cpSjVG7vJGYGj0ewHr48v4unKb6uNiuBq9richh4k+8ph93k/ypfcGNCzdHrfi0gOPIVxzF0WX36fglzzmOLPvOiDPierurrh19hyuPniJXJ6lULZMHiTfOYcjJ3xQPF8VuPDFv91wUls5I24ZAwVMLUz4QUWGQKeKw7nTR/AoLF6sjn2rKucz98vWDo7IaWwDU+M3VW0mFpbQkwtZ3ztZi7EJcmgMoIzLkJnzdbpy6CRexKuhCE9AohAx0qUlI9hYD6Yu5tDXCGubMSrxFeb/CTeQNrO0hlNoEpLS3nxWZZIKSr6YL/UzEa4ja5ZNjkn3U7DgSapYtUzI56BApqOEi6GFwNOhTF6svfwY228+l4Z8WHBcEobt9oatuQLONmY/zHVkZnIhM2QISGRw/D8uhnbJ4wkzhTdmLd6BmAxZXcyjWzgfFonsJXKL/eXreOL+gTk46WuEUgWzIW/RMkj12YQ5x56hTN1K4jgZ27noyeWQ8305E7eXNYoVro7jR0+8frhL3LMzGD94KJ7H6gv3dP5sGWODc/5yyFvoMfYcvSuVAA+unYNK44F8Lu+0UjVwRcUScpw/dVY89yeI9TmCPqNmIs6pGPJZe+PAqcfSEODV5aN4kZiGckVz8oCXISC/xkMbj+Tm+YujkN09HL3sJ5UDt06dh3+gAfS/4KksO4WeWJ2cyDtbw29/IEWyBgpkOkbYyQo3ABaOnCc2KiVeEP08NAbtVp9Ap79P4/yzEMSmpIl3yE9IUyIyMRVLzz9E3YWHsPrsAzQslF28abCtmUL7YM3vHNBuRGl4FmaAbeVNcDxEJZ70/xxy55KYM2UEHizrg2o1aqNp02Zo3rQJarTsD9uy/TCqSQFxPLcSVflCr+BFci4UcOIBJIcn3FgSXgZZo0rJXOI4wr0JVTxbEarQ5PY5kdfwMRbPXoR7AXHoMGgUCr36Bx16jcGKVUvQu88sODechPp5LZEi3Lw5Y4bDeKAQtm+GwPguIZQo+QhCoIzj78Ugal0A48cMxoU5AzDgj9lYOmMkesw6h1ajxiKvqTBVRjK0HjkRijur0XXA71i1bD56DP4LJTv8ikblq2P4sB7YNqo7Rk6dh2Wzx6LtkDWo3m0qajvq8fXVQMXX8XWOp9FHCs/uWFoqP8IoikED2mD92K4YN3MJFvw5DH9sPAbY5AU/FvoihMf3zH+cit8LGaFPHiP840fnyMjnMZjISe/JJ/B94ot8efNJfV/PlRehOPIgUKzySz9OFbIwezNjOFubYmSdEvildF60XnEMN/20zanvBIRjw/Wn2HnrBR6GxmLOybv4fd817Ln1HCHRCWKT+gN3/VHO3QldK+THxeehyGNviRCerWUk7FS7ViwgZnzrr/hCmaaCl7uj2GT/S3uVzPAqRRvMLkaqUcZWe7umz2GfrxzatWoEG1kS4hNTYOaQFx2HjMf4/k1hLtVayU2tYWqRhDx126FWQRf4Jptjt74bSlUsj1CXPOLDSt0M06AycUFFr6JQGNuhaDEnPLzlC0u3IihUuDDq1a8NdfAj3HgShnKt++P3PnUh11MjOTYNOcuWhkd2C3FZTK1EgoE1apYtAcuPfKa1ASq8iEyBvlNuXDPJjip2+pDr68EhX1nULuMGv/vXEJhkhZ6//YHO1TzeytzSKWxyoVnDqkgJuId7T2JRufNI/Nallnh5d7aiVVCrtAue3L2Ol4mm6DhsEvq3KiMeweopUxEIPszNA/nN9DHnGWAuV6B80QLwzG4DN8/qqF7QHHdu3ILGtSy6NS2EO5dC0KBbG0htXf4vQsw+GaZCPgsD8UL4oBSGinZUvfilhEeE49KVS2jSoIlUknXpsQ89mZF81P5D+9GofiOp7+sRWikO2noR+nynlr7zEu660djTHcvaV0ZCigrNlx3B/VeRb53vEjKsvE5WONC/AbqsO4XLj19BX24gBkRxOM80DPn4U5qVFasl776MRJ15+9+eBw9cZ0c1h0xfH7Xn70diQgp61iiK5e2rSGN8OUKz8wn3U3AuXIUpRYxR0f7bN8HeHwYsfqpEfTsNBnq8adzwLQjVamMfahCSosa0AgbiReHf2nzfVGwPVGJYPiPxnJUgLfIx/hw3G1VGzUUNN20aeHnpIAzYboQjp2bATiz5/71K1mDAzWSYyvQwu7gxHIw+7yCGvM/nkQ9mzpuJtcvWSiVZF1Ut6hK+1y/sYgNnS1NE8IxDqD587xCd9wuBKpetOcyFu0Xw/oxNcIVnj6XxgOgfGS/ersrD0Qq2PMvL+PDNb0l4kKZwx3fhuWQ+caq3mh58C8KDLB9FpaCwiQqhqQxR37jlnFCVaqhJg4tMjfux3/rTA3E8kIbxz12WZ8LCQzXTH+xpaO0ES80jjO7VA/NWrsXCycMx5J/r6Di26xcLYgLhM7sa68OOBzBf6UJs8uXQY1zID0ePZ1YnHr1E1dl70HTJYbyMThSbSr+F74eUPDAIuyPx/Je0Y8pIyL7WXXqEAhM2o/eGszCU/ffPQHhw59cgPEZEyAJmFjOGpVwPESlfZzkfE5TMxGpNYflV7GUI/oaPMRGE8s/b090Ik4soxOzsqzzG5V8k8dhRlX9u4fML20HYHiJ9Swzj2fj0HlXx8uFdvExzxvRV2zCohvZc45cg/KTC+IHMuIIKDM5rhEhqfk8+EwUyHSKcs7r2IhRnHwchPD4ZKuFmv9IwgbAbEAJbLjtz8ZqzPDzbMjNTfDDbSkpT4Vl4HI7e90doXPJHm96LU/I9jrnR17kzeV5zfZS3k0GIpW1yGMJB8W2PIIVncAmBVPj4wuNMCn3DJyQL6jrLxOvohCDeJddXeozLv3Di27uW9BgXYTsI2+M1hSWqteiJWXPmYvrkYahSyFUa8GUIyULHnIZw5OvgxpfbxPXr/MZI1keBTMcIgUrIqIRzZx+iYRpU8XARqxD7VikMG1PFW83J0wk7LmEc4SGdH4lhYhBTKdWoU8Idw2sX1xYSQsgPhgLZD0oMPvx/Qjb1qZ3Ybod3K8/5iNnW9CO3EBAWKwaqD43/sU6Yh/CPkPF1rlAAm7rXgovVe+2+CSHkh0CB7Acl41mXoVwGRSY7YyNDhMQlo9Xyozh43x8KY8MPjvdvHXgnBLSyuRwxr3UFntV925Z8hBCSGdT8PpO+VfP7VzEJeBIW916jxE+lVGvEWyZlbLH4qYQm+p457GBtQgGMEF0lNr+fPxNrl2b95vcUyDLpWwUyQgj5fwiBbOqsqdiwaoNUknVR1SIhhGRRRkY/R60KBTJCCMmifpYKNwpkhBBCdBoFMkIIITqNAhkhhBCdRoGMEEKITqNARgghWRT7Sjf7/tFQICM6iiExJgwRsekP+H9Do0pBVEQUlF/9RvbCOkQiLjFN6tdSJccjKCgUKSqpgJDvhB7jQsgPLQUL+5RFvqqdcTvi7aPOWN+DaFOrNa6Gfe2j0TQs7d8IY5ZflPq5lJeY078NatauhyGL9oBiGSFfHwUyorsYQ9Tt7Rj110Ye1t5gTANlWpr2ETRfmUqZJt4OLN2jCwcRaF8L+/esgeXzIzj/JFYaQgj5WiiQEZ2lUqtRoWYtBG79E6uO+kml6TJUqWgScX73CvTv2R49B4zArguPXj+J+sqWRZi6/TQu71mOHp07YPAfS+EbljEsvi3x1T3MGzcAnXuPwqn7/pDJ5W+WpIpDZJIhFMrn+PPP+TDLVx15Hcz5ACWOzpuEactPvpWhXds+HZNXH37vqdjnNk/C0q3ncWbncvTl6zRgwlK8iEnDkws7MbJPZ3QZNAneL94EyHDfy5j1x0h07NgOPfqPxMFr/toBaZFYNmMEDl+6jS0LJ6Jzm44YM28LQhLfPIk5NuAOZo7tg07de2LlnpPYsWAaZm2/Kg0lRDdQICM6S8iGCtXtgsm9SmHumDF4HCcNeE0IMWnYNmUAes85ggJVmqJ6YQvMHtQR0/fcE8cIfnQFc4YPwMLD/qjVtDkUfrvxyy/9PzAvHo5Cb6JLy444H5sNzWp74tbOVTjjEwaZTCYO3zaxK/pOO4i8pWuied1yuLN5BNoOn4UkyOFoFYRVm1chMEEclQvH5hV7Ec/s3vsjDPI5inGD+mHr9RTUaVoT4ScXonbVepi25R5K120Ex/CT6NHnd4TxcWPvb0fbZr/iKcuNdm3bIr+xH3q3a4LdjxL5x0/B1eNbMbD/b3iUlh3NWtaA74bx6DJmPYRQpg6+yQNlW1xJyI4mDavh6a7p6DVyKi48ChXXgxCdIdw0mHy6fQf3Se/I95XEJjR2YJ2mbWcs2Y91KpWTNR3N33NRD7axKgUrs0sRjCU+3MMq5fNiex4miMMEt7b9xkpX6siC+fsD49oyt3wtmU+sdhhLfM46VS7Kei71lgreOD6tNStRbxALS9P2q0Ousbo5srPes8/xvjA2Y/wYtutqoHYgF3JyLlOUbcJuRfOeiKushltx9s91YamMxd3bwSpWrskuhoi9b9k8tjCzq9aLBUvLebR1CFPkLcdO+SeJ/ck+e1mZMp7suJ+KPTy2jA2bvpWlikO4lCDWoV5h1ubvm4xpglnbKjlZ1dFbmEYafH/vROZVsA3z5wUHp3ZgRVtNYOkfXRV2i9UuZMFqTz4glRBd9uDhA9a1T1epL2ujjOx7SUoG/AOyThcQCCS/34Lwa2MaFaBww4SZg3B//Uj8fS0Kcrn2Zy0zAJ7fvgHfSEM8OrcNq1esxKpVf+P83TA8DL+Pq/6J0NeXIVf9xihgIU4CmORC3cI58PLyTaRKRVoJuOYdAY8StWAvPZFf37EwqpdxAFMLrRbtMWLSFNTKa4A71y9hz5a/MX/DAaSoGDRCE2jbYmhYxxA7D2qr7byPHoVJ7iYo7Sj2vkWoMvUqVvD1ckxsXJArZw7ksDEW++XGJtDnWWBKqgr5a/XCjCENEfT0Hk4f3o8Vixbi2tNI6AmbgC/WwMgIpUsVf139aWFlDWMTFZTJaty8cxTlqlVE+kc3sPdA5RKlIeOZLska+D5eepe10WNcMumLPcbl5i1g8XK+9+B7W10n/IT0+Z7z165AKS+p8GtLxsQmOfG8zHz8M6Yt70/F3wOaYuK9PNg+oxrG9FiAqWfOIG33UFQefxp92taEEdOIDUD0oA9m74Ye/X7Fkxm/Yr68OU6Mby7OVbB3fFMseVEFu9cPgYlUBsRgfJNm8Ks6Hv8MqSaVAauGlMd1l8lYNqIGTq38DSPmHoJ9gaLI45YDLvJwjD8XjSsHtsPLVh8PdkxCzwXB2HlyBuY2qwWLnn9jbOP80pze2DC6IHaq+mDnzAFitWPA8RmoM/06DuzehtzmPNC9OI5KHcdi/HpvVDe4iL6/DsWtRBsUKZgHeXI64siBncjWdw22tndFp/pVkaffAYxvlEecd8DZeWg37CLWnf0bK1vYQ9PmIGZ2rSoOE7bh4m4tcDx7d+yZ1EwqI7rqZ3oeGVUtZtIXq1rkh+lMrc46nUql7b4ZbdVixymbpX7GlBFXWRNPZ1a9dXNWoUgtdjWasWf7Z7ACuZszH6maTpQcyp6+eMaEtd015hdWtt0clqwdwiWwv5rXYK1H7Zb606nY6s71WP2uy95U47FYNrZ2cdZ7zgWWFniYFSuSj80/5isNY+zV0SlMVqYBux7Bt48g8iprWK0GW7ltPatTvQ27GSaVv2P9qAKsyfAFLH2o/7HpLH+NVuxpnLZf+fwYK1exNDv+LJ4t6VeSleg+i0WnSGMnB7C2tfKwFn/f4N9LMOtYJx+buO/NOvmfmcsqeLVgL1IYW9y3JKv/+xZpCKcOZ/0aF2e1JuyRCoguo6pF8vUJT24Wspis0gmZ5XfOLmW2pfDX5OG4u3cXbgTrQU8DuFesj6J2tzBh2g7EpGigSY3GmtE90aLXQkTyaRQyPTzYtwqbL74Q5/Hk+Dpsf5iElu3fZF1aBqjXozECzqzCpvNCC0kNHh1fg/Wnn0EmN4RKmYxEpQoaA0Nx7JjAh5i/dDNUyexNq0YbL7Qs7oh5U2bDvHxdFLbn2+3/wA+GkJyagFSNDAaG+lClJOL0ljU4cSUACvm/fBc8g1bxwfWbdkLAgWU4dD+Ml6lw98Bm7DtxD4bG2s9AiK74//6SCPmemPjfW/I36IPJ3SvDIDUNPFEErAph1pKFMLy4EC2bN0L9xk2w7r41ZsweDwc+fhqTwaWIG04sHIR6VWuh4+S9aD9pDloVttTOMAPnCj0wf3xjrB/zC+pUa4ARq88jW25bQJUE41yNMbVdFSzrVRd1mjRD71ELYV+lAyonxuLZqxhpDvqo2rQCYh8/Q6VatSGdAnuPUFP7VoU/7xF63xTxfqbhwcgU3Qb+hdz3l6FSpZro3rs/9j83Q/dalRDv7cPH0+dBVBhXO5VAnDd/CafBctb6FVM6FcOkbvVQo35jzN56BQ75C8DQVrhkgBDdQefIMumLnSMj/ycNIl4+g9LYEc626c0VtFITIvEyKBEuuXPAWEpMVClhOLp+C2JcSqBh9XKwFAcw7BrTHguiquPw3BZ47vsSli5uyGb/9vzexhAdEoCXoYlwcneHYWIYkg1t4WRjCqZWIjjgGSISNXDKlhMOVoYIfhYAQ8fssDXThq3gG3+j7cBjWHZsIwqYikXviQ1/jgRmDVcHa7FfmRiFwMhkZMvmCp54gSkTERAUDltnN5gZ6iExOgzPHt/G5QeJqN+8AewRhdB4GbJnt0boS3/IrbPBzkybZSmTohAUlgxXN1dEBT9DvNwBduoIvIzRIF9Ocwzs2gQpdRZiTZeS4vhEdwnnyGYtmIU1S9ZIJVkXZWRER+nDLlve94KYwMjMFrk93gQxgUxhAO+li3HpSYgUxN5Qa1QwMrZGoWJF/iOICfRg7eSGIkKrQnMFLJ1yiEFMHGIgh0uu/ChauCAPYkIzERmcc7uLQUyTloLIED9sWrYd7vV/+WgQE1jau78OYgK5qQ3cc2iDmEBPbgo3t5xiEBOYWjsgj50SU8YuxGXfWCisneCWww76egZwzu7+OogJ5CY2cMvpChmf1GfPArTsOAFRZm4olD83Aq8cxPXbDM3LeEhjE6IbKJCRn4QtJl65h/kD3rROFIjVEd+gUiLx0UEUK+yBdYEuGNGznlT65ZjkroenAUfRsrSdVPLfKrbuj+Zu/ujcuAbqNayHjmN24pc/lqL+62sRCNENVLWYSVS1mLXERwQjWmWMHE5WUsnXwdIS4PcyCKa2OeFg+eM0pmDqFAT5+yE8UQV7Zze42tH5saxCbH4/bybWLsv6ze8pIyM/NXM7568exAR6hmbI5e7xQwUxgZ6BAq7u+VG8SGEKYlkQPcaFEEII0QEUyAghhOg0CmSEEEJ0GgUyQgghOo0CGSGEEJ1GgYwQQrIoJjxC6CdAgYwQQrIopUopvcvaKJARQkgWZWRkJL3L2iiQEUJIFvWz3LiJAhn5efA/ag3dkY2QLIcCGdFZ26fXRTYXV7i6usLFxRnZsxdE/fYDsOP8fbx7ZoAl+mFSr7ooV7UdDtwLl0oJIVkBBTKisyICH8GkaD3Mmb8I8+bNx5zZ41DBPhg9m9TDlM23pbEEauxfOQeP7Jthdh8vLJ61AM8TNdIwQoiuM5jISe/JJ/B94ot8efNJfeR7unpwFoKyd8aMQb+gUKFCvCuCynVbw0NzDZPmnEDdLm3hIJzr1qQgJiYF6oggPE9RoH6jxiiZxxGa6Kf4Z8k+GOfLDzsTmXamKeHYteUfpFgXgrPlm2c4qxP8sWfHYSjsbHF5z3psOXQBsHZDTjs5rh7ZgnVb9iNczwb53Byko0M1/O9dwIYtW3H4+GkEJxoil3s28ZliMc8uYc9FH9gZK7Fz3RocvOADE+fccLFWiFMK4oN8sHntWhy4+gTWDla4e3gnIoxzIZuNsTQGIf8uPCIcl65cQpMGTaSSrIse45JJ/+9jXHbsAp77AbK3n+2os/T0gO5dAYvvcOP0xf2yYYfReJye01Mq0UrxO4UaDVqh0cIHGFXdBPOHdsTWe8aoX6sUUoJuY+v+2+g0ext+r2+CLhW8YDvkGGa3KyFOG3ZzI5q1W4NZZ46hnNObLykt+Dya1muBBMfaqFAmPzRB17DjQiRqVC0GhaktHGXB2Lj3GnrM24YhdT1wYcVwDFt5GxUb1YKDKgT79+yCS7M/sXFSRwQf+wvVBqyCZ9EqKFg8H+IensPR+wzztm1DHQ9TxD45hnbdfoc8XxWUzMZw2fsibl3yx4itZzGkXh5pjQj5dz/TY1wokGXS/xvIfJ8AEZGAfhaq1PUsDhh9h6eTfCyQIcUf9es2gVPn1VhWV4lePefhl3mrUTu38FhmDXaMaosZV0ri8umRODCxE6bdKYBTu0dDeKbz/r/aYl5wJRyd3w9SjiZShZxHjeqV4dL1GDaPqMUjWxgG1M6DIzkm4e4/QyDkSRtHVMXKtLY4M7cFxvQcCPsm4zCkUSFxer8Df6LIlGu4fHwvHK7PhmvL5Vhx4DS6lnXlQ4MxqGJdpDVfgKVDK2JBhxo4YtsZe+d3hZATPj36F0rWnY9Jhy5iUD13cX6E/BchkM1aMAtrlqyRSrIwIZCRT7fv4D7pHfneFvV1ZVWHLJf6Mkh9yepX9WIdl56XChhTK9NYaOBTduPSMfZbk4qsZJmpLI6Xx99Yx7zKVWJnXgpjvWK9q1dks/Y/FnrekhZ0ltUpbcJWXY2VSpLYpM6erNPiM1I/Ywdmtmale85kaVI/Y0oWFf6K3bt+ma2e2JGhZCN2i08efHwac6nckj2MkUbj483tUIZ1nXqcr7svq1SmHJt5OlAaxiU9Zm3dPNjMA0+lAkL+24OHD1jXPl2lvqyNGnuQrCc+HInJ4bCyt+c9aTi4cgyqV62CLn2HYcbSzfCLTIKcp8RCVYRZiTooK0/FqcuPkPDgPB4wZ9Ss5CHOJiNhXAN9PVgp3uRpYl2GRq3t4YTbAenp6YmZ3OMTq9GkSlW07NgbE2YuwpXHUTwLNwD0+CR8OgsjGd7MSntZgDg8NgKhLA0KSyE/lMhNYJmdry+1TyHkgyiQkSznxfVTCPWzQdNy+RB4chWGTj6LTpOXY+PGLdjyzxp0ru0JTZpSDE6AExo3L4RL54/ixMFzsPFsiGKW4oC3iM/Z5RP8163r9AwMkRpyFT1/m4487cZi06ZN2LllA6b2qQ2ZnkoMfsK8hH/fnRUTgqKNI3IxOeLDYqVSXp4ah7An6ixVHU3Il0R/GkS3Ca1NXtMg8M5B9B81HQ5tBqG6C/Ay8AUijHKgarkisDZXQB1+D5v2HUGsoeL1ObDStZpB7r0fc04+Qv2mVaXSz6PHs6rEiGcITgO8ylSEo7UZoIrHpvWbkZai5sOlET9ECGQG7mhX1gYHNm5DtFR89+BGnAyNg8wg42clhKSjQEZ0lkxmgjPzBsPFRXtBtGvOPKjddgRYif5Y90cncZzitdqggetdNK/bGH0H9kevEXNgW7wozGQ3EJIijgKrguXhZRuMh9GOqO2ZQ1v4DqFaTyN0r9Mo/katgipjiqZRIi01FTaFG6FHmZyY0LEueg0ajF49huGpojiKRifiVWgqn1INNZ/urUlVGh6GtZdxtxo3EQVi96Fx/V/Qo0cXjNvhDTu4wMpCaKxCCHkXtVrMpP+31SL5cvzvn8C1h9HaKjr+M9YzMkPufIVRxCMHZBkO0ZLC/HDB+zpi9CxRonQF5DKOwvnbT1CkVDXYipdlqbF2QBMcNuuALdPafvDoTpMSiStXLsGteH24WArN8tV4dOMckqwLo4S7cC4OCHlyDY8TrVC5eF4+fjSuXzyH+y9C4ZSvEmpXyom7xy7BukRFHpICcOFxDMqXKQXt5WsaPL1xHvFmBeCZzx6JsSl8HeJw7dIlhOnbo0ohBfoWH4JmR3ehnZd2WYT8F7H5/fyZWLs06ze/p1aLmUStFrOetKDLrFXl6mzL7Wip5EtRsyXj2rI8Xn+w1w0U/1MCm9OxARs0/4TUz9jjA1NZ/jLN2M1wjVRCyH8TWi126d1F6svaqGqR/MRUWP9nZzgUbgi98h3QuJiVVP6l6OOXQbNxbGdffPr14qZo2KUBfLb8jhade6Nfl/boOeMg+o4dD087OkdGMkdoRfszoKrFTKKqxayEIdDnMm690qBShQqwNvlx/uhjQ5/C+8odxKYpUKhMeRTKbi0NIeTT/EwXRFNGRn5ieshesDwa16r4QwUxgaVjHtRp3AKtWzagIEbIf6BARgghRKdRICOEEKLTKJARQgjRaRTICCEkixLu//kzoEBGiE7SIDI8CC/D4t67Z+P/hyEmKADBUQlS/88hLSEM/i+DocxiN2bW0/85mt9TICNEB6W98kb7WnWw5NQz7Q2Nv5DEF0fRqE5dbPMOkEp+BvGY068puv21CclSCdEtFMgI0UHBL16heo/pmNjWUyr5Mvwe+6Hx2EXoV7+gVJL1KUMDwAq2xdI/h8KC9og6ib42orMSX17G4A61Ua16DdSoUQPVeNe8cz/8ve8iEtLer3B7euoftG/eAnP23/rC1XEZqBOxfEIPjFt3Gp9TS6UOuYXhvw3HjWCVVPK+xMBrmL9mD6JVCW9VhcUHP8TBiz5S32dgSXjxKAC3Tx7ExWfp994HIu8cQJeef8I/+eufb3n54Bq8737ZbFCVHIvHvk/w4r43hg3rjxl7LiApVdq+mihsXL0ID17EQal882y5b+3Qkg74Y81h8b0yJhAHzlxHysd/AiJl8HUM7Tset8Kku1//xCiQEZ2VGhOEC6dPwiRHUXiV8EQJT0/kNIvH9H5N0aTvAkRm2O/GPD2CsdP+RvEadXFm4RBs8X4pDfmyQm/txd4b+mhSt8Jn/XFpEoJx7sJZBCd8JAwm+mHqkPFI9aiI1LPLMH7paaTvfnetmIRhu65JfZl398BizNz/EjWLWmHGmPHwjdaug6GlIzyLecBEuFfyVxWBuUNHYufdSKn/y4gPuo/5c2fhrxkzsWnTFqyePwvez2LEYfvmj8MmXwtUsgtAv2HTEJQmFn9zjrlKIF8OB/H9jQOL0HHxPqjePMP1g1SJITh14iLCE/8j4v0EDCZy0nvyCXyf+CJf3nxSH/meksMeYPu+Yxix8hj6tK6HOrVro06DZmhS0Rmrpv+OEPtaqFXUSRw3JSkJBlZOcHBwQKlyleFVvBCsjPXx+PYlPE9SwNX6zSNSwn1vwScgFU7OVu8Ho7QE3L1yHhevP0aaoTnsbcxejxMfFoCrN57CziMf3Jxs+TALcVhS2Atc5RmOjbES3mdP4dGrRNg6OsFY9v7ZLU3Mc6zbcwbVmnVHXhsDpMa9wtnjF6C2coGtqSEgk8PUygY21pbIX6Y6alT0hIOlMc9Ob+KffzbgZpgGhXLlhKuLA+QZVj4lwh/evhGwMdPHrYsnccs3GKbWzrDQ3n5fZGRkBkcXO1jaZ0PFqlVRMLczDPk89PQMoDCzgouz3VvzFIQ+uocXMWokvLqDS7dfwMopO0z5RMItti6cO4vHgdGwtHGAqfQ47PCHd+HjlwJnVyvtuT11Eq5cv4FUE3ukPjmMlWv3I9LIBu6OOeDqbCGOE/7iPs5c8IZfRBLfbo5QiNuNwe/+FUSkyhH04Apu+MXAyckJRu9sU3VqAh498oVD7lLo3qk5znufQ7lBi9GnQnY+VAMjU3M42lrBMU9R1K1VFR4uNhAe+xb17AEeh2tggSicO3MGj0MS4OjgCKN3N4BElRiFG/x3ceWmL5RGFrC3NoOaZ1Znbj6HrZMzjISDgLQYnL14E8zEDtamcqEAd29cQwgzR3ZbC1g65IAli8Sujetw2CcKBXLw79HVRfydJMW8xKWzp3H/eQhMLO3592YIddRTrNt2AzXbNILymTcu3noCA1N72FooxHUKjwjHpSuX0KRBE7E/K6N7LWbSl7rXYoI6Aa+Ur6Q+3cL4y1TfFNkNhZ3B9xN1fzsateiJ0fvD0NBD2DGkY1jbtyqWhpTCyV2zoLqzB/1HzEeSU2446MXhzp27yNt0LNZO7IgdI1thpk9RnD3wO8zEaWMxqVVTPC4xBptG1xJL0qVF3cXvg0fgaogZcjjI8MjXH40HzcXY9uXw4PhSDJ+6FVbZC8CE8Z3OjZdoPHQepv9aBU8PzEK9ycdQI781YjUKxLx8DLVrDSxfNBG5rDKuN6B8fhSVOo3HhH8uoZ57HOZ0a4z1QYWwaf1CFLDXw8kVozF143U4uOdGSvgLyLNXw4K545B0eS1+HTQe19TZ0OWXXvh9RGc4GL3ZqQeeXILqgzeiSvncUKkNEe93G356hbFs7RKUymaCmOcXMYxnekF6tnA0TsOTlyloM2omBjYogqCzS1Gl3xnsvbwZBc3f3pEfGNEBww4/Q4lSOaCf7IzB8/6Cya2/MfD3dbDycIc8MQjPk3Nh+sL5qJbPHPsHt8P8B2Ww//ggiE/QSfBFxYYdUeP3LWgQtACdhm0EPMqhW/vBGN6nGm5snoRRC4/CKncBsFg/pFqUwLz5U5HXVob5vYpixd1sKJDLDmZObhj7+5/Im/FuXrFPMKF/bxwLM0YhF2vopaTh6P3HaDtrJ2bUyY3gq7swcNgCKLNlA/9mEBBlg2Ez5qJ+MRucm9YPg/a+RLEiZjywKfDi7jXo5W+GDcsnwdlImr9EFeuLcX2H4WayBbLz7fPs6SPU6D0fwysnoXLJSfj9wgE0zmeJ+Lt/I3+5vmg98zjm9i0v/IDRoEkj1JxyGfb7KmOf+Tgs/iUXhvTogc1+crRv2RkTJgyB4hH//Q6dA7VzdjHQ3Yu2xp9LVqK+8XVUqNwX5mWKw9ncEqrQh7gXZoo/lv2Npp6O2se4zJuJtcvoMS7kHV/qMS7XEq6xjs87ss4vOrMuL7roVNf+eXs2JXgKU2lU0qf5PiLvbWPlPazY/sdpUskbtzd0Y6YVWrGAxAS2ZFAj1nToOpYqDQu5uITlKFaCHQhgLPX2Wla4dAV20l/7WZL9zrB6XmXZgadJYv8bGrZlRGPm2XgYeynNyGfPZFamRkd2NziY/dagNBuy8rR2AHd1/UjmnKsD89Mw5n9kPnOEORu54bp2YMIz1qdGftZixhFtfwZpTw+zspXKseMv4tiGMQ1Z8do92KNwpTgs5Mp6VqRgWbbnbpjYz1IC2dB6RVm7WUfF3pXjWrHcw9aI79/18swKlg1WbNz2m9qC1JesVyUX1mPxWd6TwCY0Ks5qDljJ32nd2jONueerxC4EaVj4hRUsX7G2zCf+/cfIHBrYjDnmqsKuhWmHpQacZHUK52TjNtwW+/lKsrVDGzCvpoOZ8JCcI4Pbs5o1F7LXWzfel1WoVpaNORnIe8LZwJqV2dCNt8RBsQ8PsFIFirG1F/zEfqaJZH+2LcPqj9ki9s7r6cRsKg9moeLmeX/d9k/rwApX78H8ErX93hvHMBMLU/bbyZd8RZ+zztUKsr6LzmkHcgendmJeDQaySP7+ytQezN4sH9t8I1wcluJ3gpUv5sr+OsOnfcfNTb1ZwfrdWHCKtt9n90RWvk539iwymo1o4M6Gb7ojll9b/RvLbWHEag1YyNS8P+TKP6xc4UbsEd8Ya4flZq3GrRLHO792ODNpNY6Jq53sz3pWy8+6TDssTsML2PKhzViD/qtY7KtzrKSBKWs/fR+Tfr1sRvtirNbg5WKfz6MHrH339uL7rI4CWSZ9qUCmkV666kdY/38LZI93T2B65Voyn2glS4yPYfHCKGoli4kIZ/cPL2G2xcqw9Q/ieGEY61XGi43deE2c7sY/I1nJZhNYrNiXQZI/a13bk43c5iMVcKokFhIexhJTkllMWAxT8b2JWsnfRwaz4ytGsQImLdh9vly/g7NYPs9O7Fl6JOUuLhnCSnnynbDUn075/BgrX64I69qlNXPIV5mdfiHthbkdk2qxgs0GsyeBISzAz58Fhb5iOyd0YcU8B4kBaPXYliz30NXakd8ReGoxy+vUiN2KTj/4ULH5/cqxZtP2MxZ8jhXKU4ntuh8lDeOSg1inOvlY7823WfTl1R8NZPv6tWJVq09kwpYU3P5nPPMs2I1JoUek9N3DchWpwg4ExrGTwzv+SyALYwOqV2SDN9wQB51a2Ia51+jE7j4PZoH+fuxVSDA7tmAwK+DeiQXx4fN+dWANJ2wUx31PWjjr1zgn67nCWyrgYh6w6pUKsxEnAli090pWwrkM23MrgL0K8Gf+gcHs6alVzKVIObbPP4ldndqLlSsxmK+RhB801KtTlvXd/UAqeMP/zELmlC03G/jXKnbhug+LS0plsQnxfIiGbfu9Lavad634fs6g5qzP0IGsVvXeTAiHx+d3YJ6dpwmzYKuHuL8JZKuHMZMWY3hY4qt8fwernL08Ox2kPZgRpMXHsciIBJbw/DDzsivLdj8QQq/W4dltmFf3aeJfphDIuvXtph2QxX24wpd8dXrSS1f96OsfFeYLeyO5eG5GkfQKi0d0R9MWrdChcxeMW7QV8SkM+vpCrbo9mrfJj8NHTvL3ahw7chVVGtSBhTiXN1hCKBLiXyKbk61UwhkYw9HOHiZGCihjb2NsnzZo3rItOnTqiTlbTiBJLteeP9NoYJDTBdYZahEdc9lDLg9GXKpUINEzkCHh5VPsv/ECzuwlzl72lYYwhAeFIPTKAfTp1hndundH5w5dMHffdZha6ovXP/3rt6Hhn9fVCmbiyRotXsK3gT40cbHwtzOHlbW2clWkMIWxpQP8X4ZDrf/xb5oxAxgZOsFQ6k+Ii4HaIyfspH6BzM4FecJSEBoSB2ag//a8Pvi8LG1ZWFAwYu6dwuCeXdG126/o0qET/txwGiY2ciRJF3w5mZto37xLmYTE2ADkcc3wfVnYIr+VPWT8e44NiUBIsB9m8N9Fl67d0b1LJ/SZuBrQN4VKmQwN3zZGMidozzYJ+G9FOAvzgfXNUak7ts4agMfb56B1i8aoVrUe5m/1hpJ/jnJVSkPz6ByeRwbCN5ChQYuWsJPdxq0nIbhy3AeVvEqL8/jQ+R3htxMb/ApRkdlha/7mXKbczBw2tqYwUGv4z9cCZmYZ1pLv0vX5OqavJd/HS++yNgpkJAtKxNmTz1EoZ0m4GMVidP922BdugwGjJ2P1xh3YveR3OFnKoFJr/8hL1mwGi4fncen2WVwMNUTd6l5ieUZ6RlaQKewRkZDhktnUEOzccwgPfa6iX+t+8LUoh9F/zMT6PXuwYmIv2KYptU3w+Y6FxSYjLWNT+fAEMLU1D4JSgYSndNC3z4v5G45i3djG2DhtNG6GChPqwZjvrwo17oF9R4/g4KED2L//AM5cv4vzJ2eLgUP8OB+KC+l4MHvvjkV8R6evUMA6IRWpSRmiqioNqtQE2NhZQ8an+bfdIZ/r6+FGCmPoBUbxb+ANTWIcXtkawdKWBx0e1PX4buf1avKgoVal8H5tSYZNBGO+bXJVa40dhw7jkPB5D+zHycu3cPXKCuQ2ZuC5pRhbPsjAEIbGNgjl2/01ZRqi0lL5MvQg5wcfNjZlsXjHERw5fAAHDu7HwZPnEXjrGJrltkFqmpp/JuH135ieMSq3GYQj1+/j3rl9GNTADcsmDsW2WzHIVqYazFkozpw6jSCVHTxLeKKwrR0u8GVeiLNEqfLa6wDfXg7vE34z/J2xhQVM+W84RfVmy8T73cL+gycRrTLgW1KsVZOGCD5ljbMeCmREp+nxX7DsrfYSSlzdPgsrLoaiLT+Sl0Xex5WnAajfaShqlC4MB0sFbp49hJDwKBjItNmJTcEK8PJIxoK5i2CUqzrK5krPLzKwcEUlVwdcOHAI6VftBF3djSnTF+G53yOcCbVAr15dUKZoXljxPf/lk0fxCAYQVk2Pr2D8uSM4cSdCOyGLxv4jp2FXvwZctCWvCTslhYkxbCysUbzDcNS39MNvUzeIw0pVbYXHZ07jZlAqDA2NYMSzqz3TeqP7KO2DE41lMsjV/xbJ3sc0ap5SFEUDk1fYsc9bKuXZ0L0TuHMvGo1L5YNa/enXV+UtWwKmSTzwXAmTSoDL+7ZCbeMAzxzWMLSTIU75FLHSMKHFof+LQOm74NmdHv9XujiueOVWCLp2BZeex0Eufl4jnFk6HO36zuMZ6Fvh8H1GDqhevBrO7NmBKGn1w+9dhLfPI2j05HApURpO2a5h3+lH0Jdr5/3q0ho0aDsIDxM1kAtNFz/RhTXj0XX4QsQyPdjkKICOA3ojr5UxouN4ODcrjOrZVVgxZy1kucvAWWGG8qWdsXvuVIQY5kC5Qu8/a86Q/14UfBMIq22fpzhc8t7FoRNvrg88uWoWpq+4BQNjnqX9nHHrPRTIiA7TR3JUDAa2qoUa1auhWvXqqF6tKn4ZvRF1Ry1H93J8J2FXEA29PLFmbDdMnjMPf/42HHMP+COX2gQxIdJFvwZOaF27CHZtOAWvho2l1ovvMkGP8b/B0mc5Ov46GnNnT0L3kX+jXtdxaFCzOlrlj8Pofv0wc+FCTBjSE3vvx8LNJQDBkXwtebTVM43Ckon9MWnqbAzp2hGHQvPiz74faP2qUYmBQ8WzB+i7YsSMYfDfOg4LTwWgYOP+GFVNiYHt2mDSzHmYOLAjJu2+i0rNqouTFvXwgN6B5Zi88giiM6Z/nIa/VCq+a8y449MokSYGKQf8NnsUHm/4DZ2HTsCcP0ejQ7/ZyNdjLloUMkOqSsmn5VnXe+kP4ztbYc5C9qJlWag5futRF3O6t8boKdPxx4hu6L/sMQaNmQx3HqO8mjWBWdQ+9O45FvNn/IHJSw7B2jgbZDwD5IcUKJ7fGMdWTsPGg7eQvVp3TGtlh3HdWmPctHmYwuc1cvUZlGleR2zxqFYJWZm42A/QR/Mho1As/gDadxuCmTMmYdS4BQhNMYN+Gs/SHMpj/KBfsX90V/QeOxWzpoxGFx4gc5WohgKm+kjl24VvsTebS/jsTIgu7y+wYLmSCD63EN16DMe8BbPRs9doKD3romkZVz5UhpKVPHDF+yIcvLzE0FuwXFkE+b2AUdE6yC3VCjIVn7X0lbnlyY+cV3dh9IzNCFEUwrjhg3FsQi8MHj8V08f1xB/nIjB4ajeehSv5d8O3fcY0m3+nKt7/0c2SRdF1ZJlE15H9OPT09GCgMIe9ozNcXFzg5OKKAuXqYOzEqfi1bjHpKM0YZWvUhptxIgJCYuBeqg4GjegPL1sZLF3zIY+r9myYKQvH9vNxGDq6D7KZvzmPlJHCNg8aN6wDvcgXeBqth+Z9x6BnU0/oG1igav3aME8NQ0C0Ep4122FY305wslXDNU8pKIIuYcdjByya2R0R9x/CtEBtTJg0Avns36lX5PSEoGdsg5IlvGBrrM8TQQ+42ymQxPhOvlBulK/fEsUc9eDLs0y5oydGTpyC+kWcxWkdPYoih0Ua/ML04VWuCMwyXFMlVN0pbLKhTKkC0oXNwjB95PDwRGE3e1jlKI4mNb0QG/AM4anGaN1/HIa1rch3wxzPNBTWrnzaQjB9a9MIWRFgm6cwihdzlba3PvKVq4mqxezg9/QpmG1hjJg0CY1K5RCHym3zo2HtMoj3f4JYIzd0HTQQFfI4w61gYeSyMUa+UiUgSwxFInNE8RIeKFmzOcrmNMGTp37QWOTDoPFT0Kp0LnFe0GPIkb888me31/a/w8DUGXUbNoAiNgABscZo328oypXIg0KFiyOPrQncPKuiQeW8CPd/jAiVJVoN/B0Df6kkfQ7AKmd+eHq5abcB/6xM3whFinvBw+7NNYcCE/t8aNygOlSRL+EfEosCVX7BH8O7wZl/fwIrayc4WbqiScuGcDGXw8jCFi5G5mjSrgVyO0pnY/lncclbFoVyOcPMxQOFchjhmX8iCpTwRJHSVVC/Sh68evYYyaZ5MGzsH6jpYc0DH4PMxBYlyxSDjUL6Yvjvxy57QZTMnwMRdB0Z+ZgvdR0Z+bEcmdcbC58Ux87FvTOc4P8ynu2fiYZTfXHs3Epkf/uyMUK+mp/pOrL0gw9Cfkqxj/aiff0SGLzyCTr1aP3Fg5hArKRSClVzUgEh3wg9xoWQn4DcIgdKlW2AaStWok1xG6n0y7LzqIRBvZvA8sM1loSQ/xMFMvJTM3HxxODxk9GsgrtU8uXZ5CuP/r82pkBGyFdCgYwQQohOo0BGCCFEp1EgI4QQotMokBFCSBb1s1xdRYGMEEKITqNARgghWZRw95ufAQUyQgghOo0CGSGEEJ1GgYwQQohOo0BGCCFEp1EgI4QQotMokBFCSBb11kM3szAKZIToNDVCAv0RFB4v9X8hGiVCAx4jJDpJKiD/D6ZOht/T54hOVEol3wY9xoUQ8sOL89mDlnWaYc/tCKnkywi5thV16rXC8adRUgn5f9zaPA71WozAoyi1VEK+JApkhOiw589j0GH8PPStJT3+/wvxD45Hzxkb0LFUNqmEfL4EPI92wKzV81Eu+9d4dCuhQEZ0XvSjHejQrDIqVqyESpUqokL5KmjZYTA2HLuKxA8cAPueXomWTZpj7vbrUslXkPQKUwd0w187bkoFmaMKuYFBPUfjWkiyVPK+iPvHsWTtQQQnJSBjhVXEs1s4ddEHn312RBWFJ/fv4vSebbj28k3Vov+xtejdYh7Cpf5MU0Zj8ageGLv6DN76WpJfYXL/ythxPVQq+AJSIvDX0I74c5u3VPBlpPidR//hI/Eg4kNbV4l9vw3H+Jnn3tr2N3b9g+1nbiEymappvxYKZETnJYc/wcVb95CjWCVUq1IFVatVQk6rKPzevjbajViNOGk8QczjYxjy105UbVgL55ZPxLorgdKQL+vphd24FmaPVnVLSCWZo0kOx4WzVxCeqJJK3qaMuIPfh/4Ju+pNEbh7KmZsTg+YKdg4+XcsP/kcn3t25Nw/07DxnjEaF1Jj4vgpeCXtf02d86BMlQIw0vZmWujtwzj+QB8tG1bEW88YNTBB0dJ1kMP2y2UrL7x34FygE9/+paWSL0Md/wrnL3sjMkUqeIs+spXwQrFCjq+3fcjV9Rg/7wQqNS6P9WP649D9aGkI+ZIMJnLSe/IJfJ/4Il/efFIf+RHE+Z/GlsthmLJsGzo1roEaNaqjdv1maFjaDLMnTIdBkYYon8dGHDclKQnGJnawtLZBsUqVUaFoQViZAI8vXoRfvAIuDmbieILQJ9648zIV2Z1s3gsKTBmLWxdO48K1e0iRWcLZzlwahyE68DGuPngJp1x54WhnDXsbc/GIMeaFD+4GpsBKPxYnTxzG83A1nFycYPiBJ0erY55j3aZLqNa+LfJaGyEtOgDHTp6D2tIVdmaG0NNXwNrODqaGJihWoQ5qVCoOK1NDhD85jjVrduBZshzZ7XMgRy67t4JGXMBj3H6eAFtFMs6dOoHbL8Jh6+AMU6M3YxmbWcLayhQm9rlQq3p1eLjZQcY/HGMa6Css4JLDFjJpXEFa7EtcvHIVZk7uMEkfoIrFpdPXoLF2hJWxDGkJYbh56zHs8hdFwVyusDYzQrT/TVy57wdHVzcY6DHYOuWCJR83I+FzX33wBFYWRrh+6iRuPgyGhasLzOWpuO99FueuPIKhrQNszN4EwaiXT3D1lj+c8uaGk60NHITtr47FlWNXkGrBxzWVS2Mq4XPtNEJU1nC0MpbK3kiJfYULJ07gxkM/yPl0tuYKKMN9sO7oTdRr1AQxd07h4s1nkFk7wZZ/HgHTaGBq5wgHO1OxX19uBnsHKxgrHFGtXkOUKeYOY5k+NAkhOH/tDkzts8NErv3lhPpex33/ZDg723yRDCM8IhyXrlxCkwZNpJKsiwJZJv3/gSySd0G8E47MskIn5DvmvPt+yX28/1n8c9QHjdv0RnZhVSQ2OUtAdXMRdr50Qvf6pRB8dzf6DBgP3/BUhPjdxLb1G3A93BKNa3ri8pKeGL3DHy3b1IR2l5aEhT3a4ExqcTSukEcsSZcc9hAje3bH+lP3EBP0GH8vXwl/Ew9UL+qGi5v+QI8xixDGj9iD75/CgllLEWdXEpWKuOD+5lnoPXktrl87iXtPA3F2xwpsvxGJyrUqwfLt/TcPZM+wZuNFVOvQHnmt4jG9fyvMvZiCVi3rw16Rgi2zB2PG+jOIiYyA94ldOPcsDTVqlkbQ5Z34exvfOafwwGCZE2Uqvp1BPdm7CN1GLMK1R5fx6OlLnN+zDiv230WlunVhb6yPVzf2on/fSbj7KhQvH3ljw7bjMHIrA093azzZMx+9+p5CgyENYCnNT2AQ54NOXfsjIW8TVHDXfgHRtzahyeAFqNyyG1yiL6FXyw6Yt3Ufzp08jE3bDoHlLA8b/40YPns3ajesgSndPBGVpwfK5c44Z/7rerALbXsMw4UrfvD1e4QTO5Zj/aGHiHx0DYfOX8ftMzswZ+0ZeNVthOyWclzeMQ19Rs5HUCLjQf0cZs9ajigbL1QtZo8lvepgf2JBNKvgIc5bE/0A/Rp3g2GFX+CV00IsS/fq5n706DkYF3yD8er+eSxZsxNWXrVR2CQUK1ZvxN2rt/HgRSBun92PRSv3IFu5hsjnKMPGX7th7QM7tG5UEJq4x/hjRD/suvgC0a+e49C+bXhl4Iaqnu5IfXoULQdMQtG6XeFupf3bObmgH6YfjEfLFhVgKJb8f4RAdvHyRTRt2FQqycIYyZR9B/dJ7z7XAd6N590fWaCbxLvpvIvj3ffz8uwkVqBUMXbxlVSQwaF5nZlpzWEsgWnY0j4NWZsxfzOlNCz06hqWw7oyO+6XxhJ8trK8OWuy0/6J4jBVwElWrUJltu9xstif0ZYx9VnRZr+zkDRt/8NDM5lXtS7sju991rdeaTZl/0PtAO74zG6saIn+LJy/v7dkBHPQs2Xzjz0Xh6kjbrO2ZfOzfsu8xf6MUp8fYaUL1mWnnoSwtb81Z4Vr92E+0doFPt49g8+zAbv0SrtumtiHrGvlwmzQqhu8T8nmdKzLWk4Wfmfv8/l7AnM1cGKLzwRqC6LvsSalHdmAHXydlf6sZ+XsrMMf+15vo4urRrCCJWuze3xRTzZNYmWz92fSlG9Z17suazJ4xevpdo7/hVXvNIf3J7HxbYqxIs3GsJfxGj4kme2c0YW55q7ETj1+zDZOWcdC4/xY5yr6bP5xf+3EGcTeWs9sbezY8HUXxP4Uv5PMM7sRqzlkLUsRClJDWc+6uVjHNVcYSwtgPaqWZJN33hLHFZxe3Ie5FezHIvj7y2uGMY8Kg8XvQvDs8DRWpFZ35qf9yt9IC2GD6uZjrSbvYyqpaNuUjqz6rwtY+OMDLJuDHeuz6Lg0JIpNbFiGNRq4Sexb2bAua9Vzj/h+6/CWrFSrcSxc+p1E3t3CyhYpz7Y/SGGap3uZV4UK7JR/+hL4vuWPZqx2+zns3dX5XA8ePmAdfu0g9WVtdI7sm6vHu0m8+z0LdON5N5J3GdKgH4yhsRWQloZkpofO0zZj/YSOMFCn8UwmGP4RSbCOViIuMQWmBaqjXp5n2HfRV5zu5qnDYDYVUdnjnfM2LBAnD0ShefvWcJRqqPLVGYQjW+YgT/bcmLH5GMY0zA91WiLCQvwQnaaCAc9ahVMqKrUaebw6oK3UwlDfthg6NiiEB0f3v3UeT6RnALkmBn9P6oVxG6OwcOVcFLASFqjCwRMHofSshuwsCs+fveDZhwKlCzjhxp6dSIMM+kwDDe8+RK3WwMWlBupVklojWmaDvVtevIzj6/joKq49yIuePeu8rjos37oTXGSR2O0dCJnM4KPn3aq3qYfn3ufxQjiflvYKh6/cRuXWTSELu4lL5+IwcNQwuJoJUyvQvNdIeNpHYOKURdArVwEOhgzqj7RMYSoVDN0LonbVUmK/kb0bLPIUR4lalbWZpqE5rJ1zwS8iApBnx+ydZzCmaXGoUxMRERaAqHjANDwJsXzUklXrIlvKcZzwEb4NNY7vPYfiPJNyMxFm9EZSwC1cu+2Ibh2qvq6WbTpsObbN6AmjtCQY5ciL+rUrSUOsUaSYA5RxUWIDD+ET6hnwrccCsP7KfRSsWhmq0AD+PfkhxcoDRQxDcfqEN1QGPOf62Mb8ggwNv0Ru9+OjQPbN0Sb/lmIj/SC3MoeJsNNIfY4ZIzqgcbNW6NSlJ6Ys24UovjcxEJ+ia4d6dWrgyo6jPFQocfS4N4q3aPJWFZooOgK3DRis7N8M0dOXw87BGiYKBUJ9z6J32+Zo3roduvUcgjVHb0HJd1rCty4sxaRALr7re8PBTY5k1XOkvNumg+8M2cvbOHkjAlbWYTh6/o62nKXwVXiAiLMb8Wu3bujduxe6de6Ff64FwsIuha/7f2E8IDnC+K2fIRMvnE2Ji0ZCThc4mGfY+ZnbwiNNjuinEVDJPv7bze5ZF4X1b+PUAz4P38u4G1UQLSrnQnJcJFJCcyOPi/ackcjCDh5qY1hbVUSbanl4bP74WvMcDnamCt6lrxP/IoVnbGU88Sd8f/radYsNPIWBnZuhWetf0LX7QKw+5A2lnB8A8Lguy1UGlXPZ4ygvQ+IjHH8ch7rNq4nTZZQQFoSHthaw5ctNJzcyhq21Ef8eGSwUhrA2zVBhyxetJ76037Genj7SEkKRGv0Il9dMQ5duPfj31JOvz2+4npQGU6MkaNTvb0vtxcvCHL4cnqxI77K2j/8yCdF5Ebh8+BaqFi8BE57zjO/UE0ci3TF84nSs3boTm5b9DncDPaik7KVSvbrQiz6Ps9cuwvuFBRpVLSKWv8XMHHnS9JAa86ZZvCYlDIf+3okbVw+gX/uRYEWb4I8ZC7Fj327M7tcSZspUYT8KPb5PUb6MEbOzdHFhGijkzjB65xwZ1EoorQpj1vZ92DiqAdb/NQHeoUo+EyMYGdmiWLsxOHL0CA4dPoSDvLt47REOrJ7NP2cSVOLChJ3ix7D3dpdCv9zYBEavYhCXmiGwpCQgQMFglsOKZ7L/slO0zI36lfLh1IFzuHjiEGxL10B+nqjrGZpAYR2E0JgMnzo5Dn4KGfJXLardAf3HvlbYF7+9PxYKpLcSfSELCr2Gzi1HINGjESbz7b9t/x7MGdYOZqlpPCAKY5mjabOS8Ll5HJdPn0W4cRnULPreoQqMLa3hFp2C5JQ3FzXEvbyPnRuOI0ItBCy+/TKu0DvrImxdQ7kJ9M2yof3kNThy7Kj4PR06cgQ37/tjRq960PCMXSAEvXRJr5Q8A/237418DAUykiXo6RsItXFvqBNxaMkYrH3piM6/1OOH6o9w+EkymrfvhCol8sPWxBAPThyENw8Y2nwJMC1UFZVtgCXzl0FTtApKur3fkg2GbqhY1gCHD59EeigLurIDIxdtwEMfH7wMyYEufTugmEcOKBCP00dPIDTZUKyqM+BB0+/mLlx4Jk2Z7IddBx/Co0qz9zM/IbiaW8PK1JgHrRFonf0hxvOdIg83qFK2DgL3bIVPjIZnVzLIDBKxdEAbDJy5hw9XQCHjGyI1c3eQ0PAgZZqvBAq63MD2fbekUuDFmQPwi1Pzg4FcfCerfnefnYEBajeuh0TvlVi4KwjVG9UVP7PCqRA8SqVg+cptSNEeL+Da/rW4F56CGp7u2oIvQJ9//9H+t3ElwQW9uv+CYvncYMy/oTPHj8BP35BvNa381ZrBJeAm5m48hMIN6sPhA3HD3K0IimZ7jl3H70klwOVtczBpx2X+HfI5/UesYWp+IKDwQPWcbji5eQcSeJnwPenH+aBfw0ZYccYPxlY2UCWm4mWYdEeWFH+cuv4AqXxNKZRlHgUyovP09I0Q9+wWutariMqVKqJipcqoXKUa+s72xsCpi9E0vwnPGAqhZw1HLB7TB7/PmIs/fuuDJUdfIL9bOF5GxEhzskWzxkVwbOshlKnbBG+3Y0snR/vRU2Htsw7tug/BjD9/R89xa9F84HC0adwIpYq8xLBffsWMWbMxrM8QXIrW8CP8BwjnsctAJgeLj8aMcV0xaep09OrYBQ8damNst4rSvN8QjupVKhXUKiErsMfI8ZPht3865p3wQ8VfR6KtVzg6tvoFf06fiaGdO2L+rRQeSCrzcfVRqJgrHuyZgznrTkB73P+Ghs9XA9WbgCRkFho1NKmpQr0nxk0ajbMz+qHHsN8x7ff+aDdmKxoPnI3qDjzu8kCmwceDmUOpOsgZyzOyl9ZoXlW604ihM8ZNnAa9I9NRrlwFVK1UBm1H7UHDwQtQK6dUXahdBailQPcWxreBhi81fZgQ4Hl/hgL+H1+vNCWsC1ZDK/dXGNijF/6aMxuj+vXBhWDAxf4pgqO0a23k7Ik6hVXYf/YVGtcqL5a9xzQPfvtjJK4tHYxeIydiyqi++HP3C/w+vi8cDJRQ8WVnXFcNT4E1fD2FJQhbSMPS+Ds5ev/xO+wD16Nl+4GYNXMKOrTtgWuWRVGzZE7AuRS6lrbBn4N7YjL/DoeNmAo/YxmMTXhWJs6VZAY1v88kuo7sxyNUK5lYOMMtuxvc3NyQI1dulK3RHBOn/onm5dKP+g1RskY95LVUITA8AXnLNsLQgX1QJLcCls4FkdtJG7bkqhCcPhOOvhMHI7t4Yu19Chs3HvBqwig+CMFxCjTtOw496heDgbE9qtetDkVKOCJTjFClRVcM6dEWpmbWyFugGFJuHoO3fwnMWtAWwQ+fIlv5tpjIA6qL6fvL0dPXh8LCAV6li8JGYQCzbPlQwMYQSkMbFC2QH9XqN0dhGw0C/INhwzPJSZPGolxObV7nVtQLDsYpiEm0gGep/FBkmL2wrayy5eHl7lITbz3I5CYoUMQThZwt4ehRBo1qFkZssB8S5C74deQEfoBQVMwS9PX5tK654Vk694cvijawgEuubHCv1Rh1C7pIhTzDyVYIzZpWg4VMCcvsxTFw7GT0bFT8Teahpwe5sQUKFa8MV+u356zHl2linQ2liheBmZBW6elDpuCfq3gJ5LLWnsMykCmQp0BRFHPPg5r1a8M0NRLhKXJUaNwNQ35tDXs7PWRz94SDmZCyy5EacAU+cR4YMrAB3mnn8Zp9npJoVqMoYgL8kGTsjn5jJ6FWQVsepvj3YumCkp5FYWmk/QQGcjmc8xRDYQ8Xvi3lyF60GArktYORbR40adoAlilhPPNKQNG6XTBlZDe4mAj5gxylazZAXtMUvIhIRpVmv+LXJl6wd8mPQh7Z3joF+Ll+puvI9ISmi9J78gn2H9qPRvUbSX0kqzkyuzeW+Xtix4Jeb130+yVcXzAMg5cpsMdnCuykMvKNsRhM6dAK8XWm4K9OX/auHz8an0c+mDlvJtYuWyuVZF1UtUgIF+tzBHWqeGHIRl906dbqiwcxgbZa79/OM5Gv6ea+BShZvAx2ReZG10YlpdKsjR7jQshPxMg6G2o1aIZZS1ahaXHt7ay+tOzlGqD34Lp4cxMs8i055MiHJu17Y/WyGchnTbu+rISqFjOJqhYJIbpAqFqctWAW1iwRWrtmbXRYQgghRKdRICOEEKLTKJARQgjRaRTICCEki/pZmkBQY49M+h6NPYQ7PBw6dAi+vr7Q+9d76H2cRqNB3rx50bBhQ/F2OYSQrE1s7DF/FtYspcYe5Afg7e2NDRs2wN7eHgULFkS+fPky1RUoUABOTk5YvXo1bty4Ic2VEJLl/RyXkVFGllnfIyPbs2cPtmzZghkzZiBHjhxSaea8evUKvXv3xoABA1C7dm2plBCSVVHze/JD0dfXf6tK0c/PD+vWrROzNKFbv349Nm/ejJSUjA8I+TBhXoQQkpXQXk0HWVpaomjRoihcuLDYFSlSRKxypHNfhJCfEQUyHRQREYHz58/j0qVLr7uLFy9iyZIlWLBgwetu9uzZuHnzpjQVIYRkTRTIvjO1Wv26E1oWfgpnZ2fUq1dPPNeVsatfv/5bXaNGjeDu/uUeXkgIIT8iCmTfSXx8vJg19ezZU+x69OiBQYMG4cyZM9IYHxcWFobTp0/j3Llz/9oJ4wQGBkpTEUJ+Nkzzc7Tlo0D2nTx79gynTp0Sg1J4eLhYXfjkyRMcP35cvG4sI6GhR8bGHkKW1atXL3Tr1u1fO2Ec4fxZRtTYg5Cfx8/yGBdqfp9JX6r5/e3bt/Hnn3+KQSs9SCmVSpQoUQJ//PEHrl+/jrt378LIyAiPHz/Gw4cPUaVKFVhZWX1yFWQ6IXjFxsbi2LFj8PLyEgOhMA/hqzc3N4eLi4vYaMTMjB4wQkhW8TM1v6dAlklfKpAJgWnSpElITk5+nSWlpaWhdOnSmDBhApYvXy5eO6ZQKMTWiEKXmpr62becEYKlEBSFYCmcjxMI8xICmrAMNzc3sYrz3QyOEKKb6Doy8tUJmZCxsfFbgUl4L5QLhAAnDE8PZAIhEAn9n9MJ0wrkcrnYb2hoKGZiQtBs0qSJWNW5ePFixMTEiOPpqkfbFqF+SS8MX3n4/ScxK8MwfWArlG87Ej5RSqlQK/Dc32jWYQRuhaZKJZ/u5cXVaD1oAkL++zI+QshXQIHsOxGC1oeyKwMDA/Ff4eLmjOfFvjRh2cL8hapN4b0Q2IRzdcJ5Ol0W7f8Y52/c5EehO+H/TmCJ8b2MnX/vwOXLdxGbqs1KtaKxbdMRFK/bEsUdtQE/M8ycCqJOxdIw0X51hJBvjALZT0oImJGRkZg3bx4OHDgglgnVjElJSeJ7XaVRMRRwrYR8lj44cj1EKtW6evoM7D1rQGaRIVilJuDOBW8o8pdDfssUBMWkicWRL27i1MnrSBb7tFKjXmD/6UuI147ymqGFA/Llyg4jnjgnhjzEhRu3kRATjJN7tmHr7mPwj858lkcI+XQUyH5iQkb2blb4NbPAb4GpVVA4F0CT4tlwZvcJvG4Ww0Jw6lIAqjatASM9JfT0edRJeorRPZph+Mz1eOr/HJtmDELTln1wN5IHxKBL6D+sH7wD3rQgvbntL0yatwMp72ReQZf/RpfR0xHOR428vRM9f+2K/n3HYvvxC9i+aCKa83leC3q7KpOQbyGzDcN0FQWy7+RD1YoCoTGG4FsFFGE5uh683sag1JigWpPqeHT7OJ4naEtj75yGjzoPKhdzhUqpgYFMBt+jW3Ep2h2LN27C3LnzsPfkThQIuYJ/dt2AfYXWKG+mxPFzt7UzQCQOHH+Eyo1/gf07gUxPXw6ZvrAdAZncEL5PI+HV5TcsW7wAOw6vR5Goa9i475o0NiHfjkZNgYx8RUJzeKEaL+N1XUJASUhIEFsvfogQ5IRhn9OlB8ifgYZnZdm86qJY/F2cv6etXrxw7BScS1dDbnNApWFQpaXCo+FQHN+xEB6mGsTFhOHp4wDAOA0pSUL0c0CLRnlx4uQpCFsu6dl1XH9liCZ1PcX5fYxGpYRNsdKoWTqftsAwO4rkVyAhJl7bT8g3JDeUS++yNgpk34mQ8n8o7U9veCHcGFgYLvSnl7Vv3x5DhgzBwIEDM9UNHjwYHTt2fJ0Fps/zQ11WwDRqGFvkRM3K2XH42FVeEonjV4NQtWY5yJjUyENInwzSsHPhWDRu0BgdOnfH8ImLcS8sGXKpwU2pOs1geO0Q7kQD988eQmq+Gijt+u83ZtbwbWhrpoCpoVTAaYSs92d5MBT5oWSVv+n/QoHsO/nYDyw9uAmBS8jQ0jM2odl8xYoVUbNmTdSpUydTXa1atcRphWWmz/NjXdbAIOS0NepWR+TVI7h5/SJeqHKiciFLqFVCINOHXMFwcsZQTNroi/bDJmL52o3Ys/NvNHK3R5p0ZxW7QpVQ1C0Vh85dx5lT91G5bl0Yi0P+nXhQIL0nhHx9FMi+E+EaMaHloHCRs1Dtl96ZmJiIwxs0aCA+SHP69OniDYCFi5j/36MrYfqmTZvir7/+Eu8qkrGbMmWK+G+xYsWksXWbcDjgUq4mHJVPMGvRBjhVrA8hmVIL957jwdxAHYub53zh7tUUzWuUhLONBeKfnMKRG0GQyaTqGLkrWtT0xOXFs3E61hX1qxfVlhNCfigUyL6TPHnyYOLEiejevTuaN2+ONm3aYOzYsWK/wNHRUbxtVN68ecX3X4IQyISLoD08PMTnl32oE6o0dZmahzA1U0K8V6ppYdQsnIrNm71Rs14lcTgTqhaVKig11mjYvS78T8xEz4ET8Ncfv2HgH7thV0SJ4PCn4riCck2aIcp7C6LcqqOM44f/XJhGKZ53E48zNCrxvbh8iUapEdZK6iOEfGkGfGc6UXpPPoHvE1/kyyudyP8/CNV49vb2YvDw9PQUM6GcOXPC1NRUGuMN4YbC3t7eYgYXFBSER48eifdf/NROuMj5/v374m2xhKpGV1dXac5Zj1yugJNHYRT3zA3hNJVzdne4F6iJxnWKwpjHIT0DQ1i75EQFz4JwL1YJNbzcEBkRBcscxdFj0GA0rlQSembOKOaRXTzKkxsb4frh7Sjf7XdU9LAVl/EufZkCdq554FXIA0ZyI9g650VJ4b3UutHI1Ay5C3khdzYrbQEh30B4RDguXbmEJg2aSCVZF91rMZO+1L0WM0OoVjx06BBu3LjxWXf8EL5ioSqzZMmSqFu37uu7h5D/Fuz9D9qPOoFFe/5BQYpDRIcI91qcOW8m1i5bK5VkXRTIMul7BLJ0wlf1uc3ohfs1Zp3GHN9A6itM7tIL6649Q7PRyzGre2VpACG6gW4aTH5IQiYmtGb8nI6CWCbJzFGidkOM+WsZ/qAgRsgPjfZuhHyIgQUadO2N7i2rQNuOlBDyo6JARgghRKdRICOEEKLTKJARQgjRaRTICCEki/pZGqVTICOEkCwqs9ec6ioKZIQQQnQaBTJCCCE6jQIZIYQQnUaBjBBCiE6jQEYIIUSnUSAjhBCi0yiQ6SClWoPYlDTEfcUuOikVSWnaR/4TQnQTy/iE1yyMHuOSSd/zMS6CRB5cem04i1sB4ZAZfJ3jEA3/SSjkBlj8S2WUzukglRJCdMnP9BgXCmSZ9L0D2bi9VzFl/1XhSkep5CtQqtG6XH5s6VUbscmpsDI2kgYQQnQFPY+M/JA2X3uCmUdvQV9mAIOv1AkBMpujJaa3LAfv5yE4+iBQWjohhPyYKJDpiHuvIvHbTm+kqdRf/bYzw2p7Iru1KUbvvoLw+BSplBBCfkwUyHRAVGIq+m86j8CIWBh8pfNiAjUPklXzu2Jg9SJYfu4Bzt4PgJGcfiKEkB8b7aV+cCq1BmP3XMG5J0EwkMuk0i9PrWEwN1FgWtOyCIxKwNQjt4CvGDQJIeRLoT3VD27FBR8sO3tfrE4UmuV8rQ5qNbpXyI+y7o748+B1vAqP051ApkrGk8c+8Hn0EmnCZ3lHSnwQ7t+/h5CYZKkkMzQIe/UMr6ISpX5CdIdGo5HeZW0UyH5gV16E4ve9V6HPA4qhzABy/u/X6ASFsttjbH0vHLrvj3+8H0NPbiCW64SIO2hQtSQKl66Hk36pUuEbR6b3QpEiRTF1712pJDOSsfi35hiz6ZrUT4ju0Kh/jkBGze8z6Vs2v38ZnYig2ATI9L/u8YZw3ZijhQlM5DLUXXAA1/3CxHNxQnXjio5V0KNiQWnMH1TwZXhUa4uIWKD9+M1Y2Ke8NIBLeoLujTph+w1vdJl3GQu6lJUGfKokTOxYAf7l5mBt32pSGSE/PqH5/eyFs7F68WqpJOuijOwH9Sw8FjcCwhARn4KQ2KSv2oXFJcPWVIFbgeGvg5hIV45xNCqoTN3QrEU53Dm/BxFqqZwLuHEOkbYFUaeMAsr0G5Wok3B+x2J0a9kYTZq2xKRlexCT+uazhj48hd96tEGLX3ph9/lHAA/wb9qJpsL7wGp0b98EzVq2xMSluxCdop325YVN6DJmHs7sXY9+nRujQfNu2HflGV7dOYGxAzqgbv2mWLzrKjKsHiFf1c+Sp1BGlknfKiObe+IOhm65wA81vv4TXoUlXBzVHImpKtSatx8GfJlClmZmZIhzw5ugeHY77Yg/qlfn4VZ/NIaP64ejf61E3017UT+fuTho84QuuG5dD8rT3ZDW6BSW/VoGe6d3xYjtkRg9YQg8jCKwdOY0RBbpg71zekD14hRaNeqDHG1Ho1P17Lh54RjWb9iMYv03YHnPyri87jd0X3QP/UcPRgm7FKyd8xde5e4qTut3cC4qtP4D5ToO5IGsHp7tWYBx68+hXM1m6NzlFxg9OYyBcw5jyo7T+KWIdv0I+Vrogmjy3QnBRGhsIZwfEzKkr9Wlz19oTJJ+eZpwZMPUGvSqVPDHD2ISjVoF82xeqFI8Gfsv3tMWpjzBmTuxqFHNCwaqNOgZyIBIbyxYfAXD5yxD10bVUKF2KyxaNBGxR+bg4KNknN2xAC8Kt8PscV1QrnwN9OnZHi7qCDB9OZD2HAtn7ELXyYvRt0VtlK3SGLPmTEDSsYU4+lwFQz57hSo/+oz9HTXLlUXXIb3hES5HlQ5D0aJ6eTTs1Q8N9Axx99Iz7foRQr4ICmQ65N3U+UPJ9LtlQv+7o/1XEi60dHKxMUfPyj/4ubGMmAYahQ3q1agM392HEM+LQryP45V5cZQrYIs0lQZ6+vqI9/PFZadCKFfISTsdZ5WzBOyzmeHEnTt4ct8fFUqUhIk0TN8qL4qVLsS3CUOa3314B6lx7/g6/DV1CqZMmYYFaw7hWWIwjjwKgIx/Q4r8hZHPUXuZhMxIAXt9V7jaWor9/MgEZkxPPPdICPlyKJDpAGG3JyRLGWsZhX2hAd8xZ4xJwvuMZcK/+hkyLYEQxITGIxmnew/f6Xcs44G8Duk7YN2gUgKFa9SDfuxV3H6ZhPMnL8KjUk1YGzJxewk0ajXSDA14dpbhp29gwDeUDCqetamUMp5ZKaQBAhlMzGzF7aZKTUa4sSHMzRRQKBQwMpLDyCYnho2egV88HZGqVEPP3EBIpCX8IIK/NOI3qCW8y/B1EEK+AApkPzq+AxV2otOalcWUpmXFu28IR/QuliY4NLABahXMBrVaI3ZNiufCrt51YW1qJI4jVE/Oa10BExqWfD1ODp5p7e9fHzXyu4rzeg/f0bs7WqFv1cJSge5gah7JHMuhejYNjuzbi9PPU1C9anFhgHY4z9pMHV1QyD8AfmGxYplAHf4KSZFBKOKeD265DXH3xcM3DTJU8Qh6+oBnc3owcXKDJzNEmeZdMXjoMAwfPhzDB3RBVS935LQwFc8rvo6YhPwAfpbHuFAg+8EJP0NTQzl+rVQArb1yw8KUZws82Hi52aNm/mxo4eku3P5D3NE2KZYTDYu6oYzw6BWlCs482LUpnRdNeYCzMzcWy0rxYbULZucBMLu0gHd+6PyH36NyQR7wzKQCXSB8hvTOCNXreGLPjPF4pV8MZfOaittHoOH/ytwqoUNVA0z+fQ4ehkQjPjIAS2dOQqBNAzQr44jKzQcg5fgSLNh3EwkJsTi7ZTE2HnsJ8U5d9qXRrqU9po+ZghvPI5AUH4l9C39H8/Yz8DJFm/1mrLbVrtGbfsHbfYR8XcJ+4WdAgUwHqDQaBMUkiY9USRYedsl3mJGJ2pv5hsQlif3CkVdoXDJS+c5auDejUA8pPBgzIj4ZCalK7UMy9fXFB2YKIhP49OJe9c0PXbgdlpuTFbqWLyCV6Ag9AxgrjCGT/miLVKoLM70ouFapCzuhiOlBrjCB3ED4wCYYPO9vNHN4hO5NG6BRo19wMq4o1q36C678r8HeszVWzByA0wsHoUHDBlh0NARelfLDAMKFpfroMWUdehVOxJAODVGnUWPMOR6LGetWoJQtP74Q18Po9RbV09OHwkQhZsbpDI0VkMvoz46QL4ma32fSt2p+v+DUXQzaelE8yheqrKrlcxUD2vknQbxMuNOHPlqUyI0zj18hKDZRTKxy2ZqjjLsjdtx8LmYGaj5+jQLZkKbk0z3VTmcsNxCrIE/z6YQgKLRWFHar50Y0FQPeg6BoDK5RVLsSukKjRBTfBiZmFlAIqRNTIS4+HjITS5iIQUODhNgonqxZwkwhFydhGhViIiKQwuSws7fhGdebYCNIS4xGZFwarOzseIRPhArGMDfWTitUVcZFRyCOHxNYW9vBVKG9C4o6LRlxSWpYWplpjxCZEnGRiTCysoCRtB6J0XGAsRmf5uvdN5MQAT1Yk3zUNw9kfAcr7GKF81sCoam8QPjShKoyodGCEOwEQsATms2LzxWTCI0bhKxLaGYvEL5toUzoF+/fyMuEIaeGNUEee0vxydDWJvQgTUJ0HV1HRr478fBCw8Rm32JzbSFY8U54L3RCuVBVKIyXXiZOw8vS+8UynoWxjNMJI/Fx+Fttf4Zy4ZwaBTFCiK6hQPaDEjIjK1MFbHgn3D7qa3Xp83+3ao0QQnQFVS1m0reqWoxKTBEbb3wrbrbmMBFuTUEIyRKEqsWZ82di7dK1UknWRYEsk77l3e8JIeRz0TkyQgghREdQICOEEKLTKJARQgjRaRTICCGE6DQKZIQQQnQaBTJCCCE6jQIZIYRkUfQYF0IIITqNHuNCCCGE6AAKZIQQQnQaBTJCCCE6jQIZIYQQnUaBjBBCiE6jQEYIIVmURqN9snxWR49xyaQf5TEuSrUGialKBEYn8C4RCSlKBMUmik96Fr5RY0MZHM2NYWokh4ulCXLZmYvv9YUnTRNCsjzhMS5/zfkL/6z4RyrJuiiQZdL3DGTh8cm45heGc0+CcOFpCJ6ExyI5TYU0HtQ0GsaDm1oak+PfqqHMAIVdbVDZwwUBkQlIValRKY8zKud1RvHsdmKwI4RkTUIgm71wNlYvXi2VZF0UyDLpWwcyNQ9QT8JisPycD7bffIaQyHioeUACD1LQf1MzLF73yLMt4es0VxiiTsHsGFS9KPI7W8HWVIEh2y9i3qEb4jTmpkYoks0WHcp4oGWJPLA3V2hnQgjJMujBmuSHIGRQf3s/xq3ACJTIYY9fSuVB3WI5kcvFFgojQ7GaUAhgZgo5H1uPv4T/AwkpaSidywEV8jghJikN3f4+jXO+QdAzksOAZ2EJqSpcehKMvuvPoMbcvTjyIFBYXJagTE1BXGwMoqKiXnfRsfFiVewXI1Tf/iTnHgjRBZSRZdK3zMiG77gEC2NDjKhV/K1qQGGn7BsagysvwqDmX59wLqzDmhOIT1HCiGdqM1uWw4BqRfAsPBZtVh7DDR7EhExMnweyd8+Qqfm8zHj5mi7V0cort1Sqq9Kw4LcOmLDlAUrkdQak+8ylpCVBYZEXfSZMQssyucSyz8bisWfFP5B5NULDkjmkQkJ+PJSRke/u9OMgLD37QOxKTt2JWvP2Y9yeK9h01RcPg6PhaGGCbhXyo0fFAqiR3xV1CvKdqpB18Ej196XHYgBrsOAgbvD5WFubo0B2e1jwYCgErvQGIcJu3sBAHwnJaZh88DrC41O0C9dhcTExcK7WHVt37cLWLVuwdes27Nr6D1rkDsfQPoNxO0oa8XOpgvHP6m3wi3/3kIAQ8r0YTOSk9+QT+D7xRb68+aS+r+fko5fYdes5ElLTEB6XhOdhsTj/JAi7bjzDqguPkKxUIzQ+ib9/iNnH78D7RShSNRqoeHlwTCIevIpGeZ6VjGzghd/qlECfqoUQmZSGeD6/5DQ1hIox4VwbE4OfHhjfL7cpKZwvM9augE5S4+yBTfBVlMTQ5mVhYmrKOxOYWdiieC5DzF2/G3mrtIRXNjMwVQLO71qL+UuW4+QVX5i5eCC7nQmfhwoXly7BkcdylCjqrM1g417g94XrYJI9L+5vnYDl2y/jmX8gDBS54VnQEUgOx8GNyzF/1UZcfhgEl1wesDM35BlhAnatmInH0Roc/XsR9j2IQYlihWBMbWzINxAeEY5LVy6hSYMmUknWRRnZD0o4v+VswYOKhsFAZgADOe/Ef2Vi0Fl10Qfd/zmNxcdv48LDQDQq6oa1nauhTWkPcTwh5apTKDu6VygAdztzsQn+svaV4TPxFzyY2BY7etXGhMal0aZMPjjyYcWy2SInHy9LYik4uGc33y5OKJbTnhfEYf7ADhg89xTcS5SHvfIRerZui42Xg8XRHxw5gKNnnooZqygxGJt27sLDCDVy5yoGR3ML5CpSHPnz2PDYGY6pvZph5m4fFClZBoYvT6Fz6064FJDM/7pU8D40F32GTEektTtyOxhpT2IS8o3QY1zId1XAyRrz21aCPQ9m6jSVWB2YkdDsXsMzK6G1R6+aRbGqUzW09MotJFdiS0cY6GHJ6fvos/EcSkzZjkoz92DwtotYcd4HkQkpKJvLEeMblhQztbLuTpjTugKMeZDUdYb8M/jsnoVGTZuicYO6KFOqBKrUbILl1wwwe/lqlHHUh/+RJVh3IQrztqxH/25dMWLqKsxoa4tpU6ciBjIY6hvwPwz9NzFHT58fPPCsVWaCvLUaIpejMyrUb47yxV1xe/t8rHmRB6s3r0LvLh0xfu46tM8fhclL9vEJDfl3EQ/3Wh3wx5C+6N66Cax5okbIt0KPcSHf1YvIeDQtnguHBjZCwxLuMDQwgFqpEs9xCYHKwdwYk5qVxdSWFTCHd8IV/P03XcCWK77Q5z9eA3198VzasjP38CI8Dhd9gzCfZ29CS8WSk7ag8KStaLT4EM4/CcYSnqnZmRojMlH3z5Gp1GpkL98ck/78E39Onoh2VXIiMDAJ/SfOR6uKOcVx7vBs1jR3U5TO/iaqlG/YDHE+T/AwOhYG/CDgg4Rivp2FFosq6cDi+qX9MDbVw83De7Fty1bs2rMfMcmGeHXwHMI1/Hvg05T1zCOOSwj5OiiQ/aD23n6B5kuPwNxIjv396uP00CboWbUIPJyshGaL0Oc70o5lPTC6ridMDGU4/vAVDt3351PqiRdHC8HudYNU4V9hJ8z/NZIboLSHC/pUKYTZLctjTL0SuPsyCk2WHIYfD566Tvjs5k7uKFG4MIqWKItBM9ait2cy+nYdiqdx2nFSlWnQd7KAkbZXJDc2g31UKuKTVXxbCRsrQzAT+98lblDExyQhIeQpTpw4hhOnTuLIoaMINMqORm0qQsGDqvANmGSBTJeQHxkFsh+UsJs8cOs5Ks7cjb6bzsNUIcNSnjndGNMKF8a0xKj6JfEyJhF777xAv03nsOqCDyxNjGBnYQw7nq25WJkiLw96BbPZolI+V/SoUhgru9TAjd9b4+KIZhjNA1hgVAIaLjqEJosP4mFQFM8ePrTD1j1vXeOlb4m+kyfDJWArpqw8LBbZWVlCed8XkWKfVlzQMzzPZQUnaxMxGApBKp0qLgSq1ARtQOMHA8LctTU2enBwsoFTuVZYvHQxVqxYIXYL5s7FoB71YW6gEsdNP54ghHwdFMh+UGJMkRkgIiEZS0/dQZkpO1Bn/gEsO/cABnwv+mvFAijn7oiGRXLijyZlsKJjVRzsXx+XfmsuBqrL/N9ro1vi5thWODe8KVZ0qIJmxXMhgAevcXuvotxfu1Bn3n4cvusn3uJKJsu6PwUzjzoYM6Ix9s2fjLMvNajUuj4MQ/di1c774nB1/CssnPsPPMtXQ0FjYzgW18OTlycQJNa0puDwjl0ICk6ATIhechNYqhgSYhPFaSs37oHoIyvw9/kXYj9LfIFx7cqjz9z9/K+LTogR8i3QBdGZ9K0uiF5w6i4Gbb0oBjTx4J//XyPcmooXKHh2ZmlshLz2FshlZ4EcNmbiObSc/L2ws9Xj48Qlp4k3ERYahTyLiIMf755HxCMxTQllqkpMKYRzaQKhIYmQzZ0Z2kS8B6PuSsXkng2wXb8N7i7rIZUJGFjkHTQsUx1xNafg9NLeuLNnIUZO3QAjV0do4qIgy1YT02eNRUEHQ6T4n0ff7sNwL9kGubNZI1s2B3ifu4ceq3eiS1FLbB7dHGN2BuHX4bMwpkdFnFwzBn+sPA0TxxxAdCDUOSth9rwpKGqTjCENHGDc7hKmtveS1oWQb+NnuiCaAlkmfetAJgQbbbjREr8soXpLeCN8dUIn9kj9GaVHQfFfPh9pXkKgy0g4n2ZpYpgFAhlDkJ8vomCDwmIz+7eFPbuN54nm8CySG0Z6DDFh/nj0xB9yS1cUzJcbxvI32yU1IQwP7/oizcwZRQpnQ9ATP1hkzw17ExlUqdG4d/shDCxzoXB+Z+jz5Ua9fIaHL4Iht3BCgQJ5IVxGBqZCwJNb0LctiGy2ptoZE/KNCIFs5vyZWLt0rVSSdVEgy6RvFcjm80A2+F8C2f/jg4HMmAeyYbofyNI3zbufUfDmpy5krW/GTZdxmo/9WQjjvDWM9/OSd+YlzJ//wwtfL/ED60PI1/QzBTI6R/aDyudoBUMexN7doQq7Q2Gn+P9079Fo4GRuLN72Srf9y2fk3mwDsS9Dv7bL6N1h6d17w7Qlb5elzypDGSHfkrDf+Jl+dxTIflDV82VDm9J5wVTaZ419LcJ1acJzy/pXLwpnS10PZISQnxEFsh+UoUwfi36phIG1isFQri9eDP0lA5p4YTWfp7OVKZa0r4J+VQtJQwghRLdQIPuBWSgMMa9NRRwf3BgdyheArZlCvF2VcLPf9Dt8vHvrqncJVQzCOGoNH1+YTuryOlphRH0vXBjZDN0rFqDqL0KIzqLGHpn0rZ8QnU4IWsLzxc49CcaBe/54FBKFyIRUxKakQZmq1LZcfDcYCfXkMgMojOSwNjaEnbkCJd0c0biYG8rkdIQTVSUSkiUJu/VHvo8wY94MarVI3ve9Atm74ngAexYeh6CYRITHJ4tPkw6IThADnvCVmvNsTmjAYWwoh4OFMbLbmCG3nQXkBpSEE5LVUSAj/+pHCWSEEPIx6YHsrzl/4e/lf0ulWRcdnhNCSBalr/9z7OIpkBFCCNFpFMgIIYToNApkhBBCdBoFMkIIITqNAlkm/SwnTwkhuu1nus8nNb/PpKmzpqJG1RpQKpVSCSGE/FgMDAzw5NkT8XKh7eu3S6VZFwWyTBr02yBopEfpC//q6/EM7QMHPeJm5f8JzwB7l3CUlJaWJk5rIDOQSt/4t2kFwnI/drT1r9PyIlWaSvxXJpNJhW98reUKw9Rqtfj+veUKk/HhQqf/gYu104d9cLmfMK1KxT8vJ5fLxX8zEqfVfMZyuf+aVvi8wr/fZbl8uNzw2y5X+G0IyzY0fP+p2J+0XOH1kd/Ofy5XxZdrlPnlCr8fgS4tV+iEg2gjIyOp9I2M04rL4dxzumNo/6Hi+6yMAhkhhBCd9n7YJ4QQQnQIBTJCCCE6jQIZIYQQnUaBjBBCiE6jQEYIIUSnUSAjhBCi0yiQEUII0WkUyAghhOg0CmSEEEJ0GgUyQgghOo0CGSGEEJ1GgYwQQohOo0BGCCFEp1EgI4QQotMokBFCCNFpFMgIIYToNApkhBBCdBoFMkIIITqNAhkhhBCdRoGMEEKITqNARgghRKdRICOEEKLTKJARQgjRaRTICCGE6DQKZIQQQnQaBTJCCCE6jQIZIYQQHQb8D+0TZ8dmBDBDAAAAAElFTkSuQmCC;" vertex="1" parent="1">
          <mxGeometry x="650" y="-1050" width="434" height="325" as="geometry" />
        </mxCell>
        <mxCell id="HVJRfHz5RvlKbp3GfN3z-17" value="ghế" style="rounded=0;whiteSpace=wrap;html=1;" vertex="1" parent="1">
          <mxGeometry x="30" y="-801" width="120" height="60" as="geometry" />
        </mxCell>
        <mxCell id="HVJRfHz5RvlKbp3GfN3z-18" value="máy chiếu" style="rounded=0;whiteSpace=wrap;html=1;" vertex="1" parent="1">
          <mxGeometry x="165" y="-821" width="120" height="60" as="geometry" />
        </mxCell>
        <mxCell id="2m_FyNcGKUiWBxxuH8gW-3" style="edgeStyle=orthogonalEdgeStyle;rounded=0;orthogonalLoop=1;jettySize=auto;html=1;exitX=0.5;exitY=0;exitDx=0;exitDy=0;exitPerimeter=0;strokeColor=#FFD966;" edge="1" parent="1" source="HVJRfHz5RvlKbp3GfN3z-6" target="HVJRfHz5RvlKbp3GfN3z-6">
          <mxGeometry relative="1" as="geometry" />
        </mxCell>
        <mxCell id="2m_FyNcGKUiWBxxuH8gW-4" style="edgeStyle=orthogonalEdgeStyle;rounded=0;orthogonalLoop=1;jettySize=auto;html=1;strokeColor=#FFD966;" edge="1" parent="1" target="HVJRfHz5RvlKbp3GfN3z-2">
          <mxGeometry relative="1" as="geometry">
            <mxPoint x="590" y="-1070" as="sourcePoint" />
            <Array as="points">
              <mxPoint x="590" y="-900" />
              <mxPoint x="609" y="-900" />
            </Array>
          </mxGeometry>
        </mxCell>
        <mxCell id="2m_FyNcGKUiWBxxuH8gW-6" value="" style="endArrow=classic;startArrow=classic;html=1;rounded=0;fontFamily=Helvetica;fontSize=12;fontColor=default;strokeColor=#FFD966;" edge="1" parent="1">
          <mxGeometry width="50" height="50" relative="1" as="geometry">
            <mxPoint x="662" y="250" as="sourcePoint" />
            <mxPoint x="712" y="200" as="targetPoint" />
          </mxGeometry>
        </mxCell>
        <mxCell id="2m_FyNcGKUiWBxxuH8gW-7" value="" style="endArrow=classic;startArrow=classic;html=1;rounded=0;fontFamily=Helvetica;fontSize=12;fontColor=default;strokeColor=#000000;strokeWidth=5;" edge="1" parent="1">
          <mxGeometry width="50" height="50" relative="1" as="geometry">
            <mxPoint x="323.5" y="-480" as="sourcePoint" />
            <mxPoint x="1046.5" y="-480" as="targetPoint" />
          </mxGeometry>
        </mxCell>
        <mxCell id="2m_FyNcGKUiWBxxuH8gW-8" value="" style="endArrow=classic;startArrow=classic;html=1;rounded=0;fontFamily=Helvetica;fontSize=12;fontColor=default;strokeColor=#000000;strokeWidth=5;" edge="1" parent="1">
          <mxGeometry width="50" height="50" relative="1" as="geometry">
            <mxPoint x="240" y="-390" as="sourcePoint" />
            <mxPoint x="240" y="1040" as="targetPoint" />
          </mxGeometry>
        </mxCell>
        <mxCell id="2m_FyNcGKUiWBxxuH8gW-9" value="" style="shape=mxgraph.cisco.switches.layer_3_switch;sketch=0;html=1;pointerEvents=1;dashed=0;fillColor=#036897;strokeColor=#ffffff;strokeWidth=2;verticalLabelPosition=bottom;verticalAlign=top;align=center;outlineConnect=0;" vertex="1" parent="1">
          <mxGeometry x="470" y="-1081" width="64" height="64" as="geometry" />
        </mxCell>
        <mxCell id="2m_FyNcGKUiWBxxuH8gW-15" value="" style="rounded=0;whiteSpace=wrap;html=1;fontFamily=Helvetica;fontSize=12;fontColor=default;strokeColor=default;strokeWidth=5;fillColor=default;" vertex="1" parent="1">
          <mxGeometry x="327" y="-400" width="710" height="1440" as="geometry" />
        </mxCell>
        <mxCell id="2m_FyNcGKUiWBxxuH8gW-16" value="6.9m" style="text;html=1;align=center;verticalAlign=middle;resizable=0;points=[];autosize=1;strokeColor=none;fillColor=none;fontSize=30&#xa;;fontFamily=Helvetica;fontColor=default;" vertex="1" parent="1">
          <mxGeometry x="635" y="-530" width="80" height="40" as="geometry" />
        </mxCell>
        <mxCell id="2m_FyNcGKUiWBxxuH8gW-17" value="&lt;span style=&quot;font-size: 30px;&quot;&gt;14.1m&lt;/span&gt;" style="text;html=1;align=center;verticalAlign=middle;resizable=0;points=[];autosize=1;strokeColor=none;fillColor=none;fontSize=12;fontFamily=Helvetica;fontColor=default;" vertex="1" parent="1">
          <mxGeometry x="120" y="185" width="100" height="30" as="geometry" />
        </mxCell>
        <mxCell id="2m_FyNcGKUiWBxxuH8gW-19" value="" style="shape=mxgraph.cisco.modems_and_phones.modem;sketch=0;html=1;pointerEvents=1;dashed=0;fillColor=#036897;strokeColor=#ffffff;strokeWidth=2;verticalLabelPosition=bottom;verticalAlign=top;align=center;outlineConnect=0;" vertex="1" parent="1">
          <mxGeometry x="398.5" y="940" width="77" height="27" as="geometry" />
        </mxCell>
        <mxCell id="2m_FyNcGKUiWBxxuH8gW-22" value="" style="shape=mxgraph.cisco.switches.layer_3_switch;sketch=0;html=1;pointerEvents=1;dashed=0;fillColor=#036897;strokeColor=#ffffff;strokeWidth=2;verticalLabelPosition=bottom;verticalAlign=top;align=center;outlineConnect=0;" vertex="1" parent="1">
          <mxGeometry x="405" y="840" width="64" height="64" as="geometry" />
        </mxCell>
        <mxCell id="2m_FyNcGKUiWBxxuH8gW-24" value="" style="shape=mxgraph.cisco.computers_and_peripherals.terminal;sketch=0;html=1;pointerEvents=1;dashed=0;fillColor=#036897;strokeColor=#ffffff;strokeWidth=2;verticalLabelPosition=bottom;verticalAlign=top;align=center;outlineConnect=0;fontFamily=Helvetica;fontSize=12;fontColor=default;" vertex="1" parent="1">
          <mxGeometry x="80" y="-680" width="61" height="54" as="geometry" />
        </mxCell>
        <mxCell id="2m_FyNcGKUiWBxxuH8gW-25" value="" style="shape=mxgraph.cisco.computers_and_peripherals.terminal;sketch=0;html=1;pointerEvents=1;dashed=0;fillColor=#036897;strokeColor=#ffffff;strokeWidth=2;verticalLabelPosition=bottom;verticalAlign=top;align=center;outlineConnect=0;fontFamily=Helvetica;fontSize=12;fontColor=default;" vertex="1" parent="1">
          <mxGeometry x="411" y="-262" width="61" height="54" as="geometry" />
        </mxCell>
        <mxCell id="2m_FyNcGKUiWBxxuH8gW-26" value="" style="sketch=0;pointerEvents=1;shadow=0;dashed=0;html=1;strokeColor=none;fillColor=#505050;labelPosition=center;verticalLabelPosition=bottom;verticalAlign=top;outlineConnect=0;align=center;shape=mxgraph.office.devices.printer;" vertex="1" parent="1">
          <mxGeometry x="501" y="-262" width="56" height="47" as="geometry" />
        </mxCell>
        <mxCell id="2m_FyNcGKUiWBxxuH8gW-46" value="" style="shape=mxgraph.cisco.computers_and_peripherals.pc;sketch=0;html=1;pointerEvents=1;dashed=0;fillColor=#036897;strokeColor=#ffffff;strokeWidth=2;verticalLabelPosition=bottom;verticalAlign=top;align=center;outlineConnect=0;" vertex="1" parent="1">
          <mxGeometry x="558" y="-70" width="78" height="70" as="geometry" />
        </mxCell>
        <mxCell id="2m_FyNcGKUiWBxxuH8gW-47" value="" style="shape=mxgraph.cisco.computers_and_peripherals.pc;sketch=0;html=1;pointerEvents=1;dashed=0;fillColor=#036897;strokeColor=#ffffff;strokeWidth=2;verticalLabelPosition=bottom;verticalAlign=top;align=center;outlineConnect=0;" vertex="1" parent="1">
          <mxGeometry x="752" y="-70" width="78" height="70" as="geometry" />
        </mxCell>
        <mxCell id="2m_FyNcGKUiWBxxuH8gW-48" value="" style="shape=mxgraph.cisco.computers_and_peripherals.pc;sketch=0;html=1;pointerEvents=1;dashed=0;fillColor=#036897;strokeColor=#ffffff;strokeWidth=2;verticalLabelPosition=bottom;verticalAlign=top;align=center;outlineConnect=0;" vertex="1" parent="1">
          <mxGeometry x="747" y="620" width="78" height="70" as="geometry" />
        </mxCell>
        <mxCell id="2m_FyNcGKUiWBxxuH8gW-49" value="" style="shape=mxgraph.cisco.computers_and_peripherals.pc;sketch=0;html=1;pointerEvents=1;dashed=0;fillColor=#036897;strokeColor=#ffffff;strokeWidth=2;verticalLabelPosition=bottom;verticalAlign=top;align=center;outlineConnect=0;" vertex="1" parent="1">
          <mxGeometry x="558" y="50" width="78" height="70" as="geometry" />
        </mxCell>
        <mxCell id="2m_FyNcGKUiWBxxuH8gW-50" value="" style="shape=mxgraph.cisco.computers_and_peripherals.pc;sketch=0;html=1;pointerEvents=1;dashed=0;fillColor=#036897;strokeColor=#ffffff;strokeWidth=2;verticalLabelPosition=bottom;verticalAlign=top;align=center;outlineConnect=0;" vertex="1" parent="1">
          <mxGeometry x="552" y="620" width="78" height="70" as="geometry" />
        </mxCell>
        <mxCell id="2m_FyNcGKUiWBxxuH8gW-51" value="" style="shape=mxgraph.cisco.computers_and_peripherals.pc;sketch=0;html=1;pointerEvents=1;dashed=0;fillColor=#036897;strokeColor=#ffffff;strokeWidth=2;verticalLabelPosition=bottom;verticalAlign=top;align=center;outlineConnect=0;" vertex="1" parent="1">
          <mxGeometry x="747" y="480" width="78" height="70" as="geometry" />
        </mxCell>
        <mxCell id="2m_FyNcGKUiWBxxuH8gW-52" value="" style="shape=mxgraph.cisco.computers_and_peripherals.pc;sketch=0;html=1;pointerEvents=1;dashed=0;fillColor=#036897;strokeColor=#ffffff;strokeWidth=2;verticalLabelPosition=bottom;verticalAlign=top;align=center;outlineConnect=0;" vertex="1" parent="1">
          <mxGeometry x="558" y="480" width="78" height="70" as="geometry" />
        </mxCell>
        <mxCell id="2m_FyNcGKUiWBxxuH8gW-53" value="" style="shape=mxgraph.cisco.computers_and_peripherals.pc;sketch=0;html=1;pointerEvents=1;dashed=0;fillColor=#036897;strokeColor=#ffffff;strokeWidth=2;verticalLabelPosition=bottom;verticalAlign=top;align=center;outlineConnect=0;" vertex="1" parent="1">
          <mxGeometry x="558" y="340" width="78" height="70" as="geometry" />
        </mxCell>
        <mxCell id="2m_FyNcGKUiWBxxuH8gW-54" value="" style="shape=mxgraph.cisco.computers_and_peripherals.pc;sketch=0;html=1;pointerEvents=1;dashed=0;fillColor=#036897;strokeColor=#ffffff;strokeWidth=2;verticalLabelPosition=bottom;verticalAlign=top;align=center;outlineConnect=0;" vertex="1" parent="1">
          <mxGeometry x="752" y="335" width="78" height="70" as="geometry" />
        </mxCell>
        <mxCell id="2m_FyNcGKUiWBxxuH8gW-55" value="" style="shape=mxgraph.cisco.computers_and_peripherals.pc;sketch=0;html=1;pointerEvents=1;dashed=0;fillColor=#036897;strokeColor=#ffffff;strokeWidth=2;verticalLabelPosition=bottom;verticalAlign=top;align=center;outlineConnect=0;" vertex="1" parent="1">
          <mxGeometry x="552" y="200" width="78" height="65" as="geometry" />
        </mxCell>
        <mxCell id="2m_FyNcGKUiWBxxuH8gW-56" value="" style="shape=mxgraph.cisco.computers_and_peripherals.pc;sketch=0;html=1;pointerEvents=1;dashed=0;fillColor=#036897;strokeColor=#ffffff;strokeWidth=2;verticalLabelPosition=bottom;verticalAlign=top;align=center;outlineConnect=0;" vertex="1" parent="1">
          <mxGeometry x="752" y="190" width="78" height="70" as="geometry" />
        </mxCell>
        <mxCell id="2m_FyNcGKUiWBxxuH8gW-57" value="" style="shape=mxgraph.cisco.computers_and_peripherals.pc;sketch=0;html=1;pointerEvents=1;dashed=0;fillColor=#036897;strokeColor=#ffffff;strokeWidth=2;verticalLabelPosition=bottom;verticalAlign=top;align=center;outlineConnect=0;" vertex="1" parent="1">
          <mxGeometry x="752" y="50" width="78" height="70" as="geometry" />
        </mxCell>
        <mxCell id="2m_FyNcGKUiWBxxuH8gW-59" value="" style="shape=mxgraph.cisco.computers_and_peripherals.pc;sketch=0;html=1;pointerEvents=1;dashed=0;fillColor=#036897;strokeColor=#ffffff;strokeWidth=2;verticalLabelPosition=bottom;verticalAlign=top;align=center;outlineConnect=0;" vertex="1" parent="1">
          <mxGeometry x="558" y="750" width="78" height="70" as="geometry" />
        </mxCell>
        <mxCell id="2m_FyNcGKUiWBxxuH8gW-60" value="" style="shape=mxgraph.cisco.computers_and_peripherals.pc;sketch=0;html=1;pointerEvents=1;dashed=0;fillColor=#036897;strokeColor=#ffffff;strokeWidth=2;verticalLabelPosition=bottom;verticalAlign=top;align=center;outlineConnect=0;" vertex="1" parent="1">
          <mxGeometry x="752" y="750" width="78" height="70" as="geometry" />
        </mxCell>
        <mxCell id="2m_FyNcGKUiWBxxuH8gW-61" value="" style="rounded=0;whiteSpace=wrap;html=1;fontFamily=Helvetica;fontSize=12;fontColor=default;fillColor=none;gradientColor=none;" vertex="1" parent="1">
          <mxGeometry x="405" y="-280" width="160" height="90" as="geometry" />
        </mxCell>
        <mxCell id="2m_FyNcGKUiWBxxuH8gW-69" value="" style="endArrow=none;html=1;rounded=0;fontFamily=Helvetica;fontSize=12;fontColor=default;strokeColor=#FF9CCD;strokeWidth=5;exitX=0.5;exitY=0;exitDx=0;exitDy=0;entryX=0.5;entryY=1;entryDx=0;entryDy=0;" edge="1" parent="1">
          <mxGeometry width="50" height="50" relative="1" as="geometry">
            <mxPoint x="692" y="-80" as="sourcePoint" />
            <mxPoint x="692" y="850" as="targetPoint" />
          </mxGeometry>
        </mxCell>
        <mxCell id="2m_FyNcGKUiWBxxuH8gW-81" value="" style="endArrow=none;html=1;rounded=0;fontFamily=Helvetica;fontSize=12;fontColor=blue&#xa;;strokeColor=#7EA6E0;strokeWidth=5;" edge="1" parent="1">
          <mxGeometry width="50" height="50" relative="1" as="geometry">
            <mxPoint x="752" y="390" as="sourcePoint" />
            <mxPoint x="632" y="390" as="targetPoint" />
          </mxGeometry>
        </mxCell>
        <mxCell id="2m_FyNcGKUiWBxxuH8gW-82" value="" style="endArrow=none;html=1;rounded=0;fontFamily=Helvetica;fontSize=12;fontColor=blue&#xa;;strokeColor=#7EA6E0;strokeWidth=5;" edge="1" parent="1">
          <mxGeometry width="50" height="50" relative="1" as="geometry">
            <mxPoint x="752" y="240" as="sourcePoint" />
            <mxPoint x="632" y="240" as="targetPoint" />
          </mxGeometry>
        </mxCell>
        <mxCell id="2m_FyNcGKUiWBxxuH8gW-83" value="" style="endArrow=none;html=1;rounded=0;fontFamily=Helvetica;fontSize=12;fontColor=blue&#xa;;strokeColor=#7EA6E0;strokeWidth=5;" edge="1" parent="1">
          <mxGeometry width="50" height="50" relative="1" as="geometry">
            <mxPoint x="756" y="100" as="sourcePoint" />
            <mxPoint x="636" y="100" as="targetPoint" />
          </mxGeometry>
        </mxCell>
        <mxCell id="2m_FyNcGKUiWBxxuH8gW-84" value="" style="endArrow=none;html=1;rounded=0;fontFamily=Helvetica;fontSize=12;fontColor=blue&#xa;;strokeColor=#7EA6E0;strokeWidth=5;" edge="1" parent="1">
          <mxGeometry width="50" height="50" relative="1" as="geometry">
            <mxPoint x="752" y="-19.999999999999773" as="sourcePoint" />
            <mxPoint x="632" y="-19.999999999999773" as="targetPoint" />
          </mxGeometry>
        </mxCell>
        <mxCell id="2m_FyNcGKUiWBxxuH8gW-85" value="" style="endArrow=none;html=1;rounded=0;fontFamily=Helvetica;fontSize=12;fontColor=blue&#xa;;strokeColor=#7EA6E0;strokeWidth=5;" edge="1" parent="1">
          <mxGeometry width="50" height="50" relative="1" as="geometry">
            <mxPoint x="750" y="530" as="sourcePoint" />
            <mxPoint x="630" y="530" as="targetPoint" />
          </mxGeometry>
        </mxCell>
        <mxCell id="2m_FyNcGKUiWBxxuH8gW-86" value="" style="endArrow=none;html=1;rounded=0;fontFamily=Helvetica;fontSize=12;fontColor=blue&#xa;;strokeColor=#7EA6E0;strokeWidth=5;" edge="1" parent="1">
          <mxGeometry width="50" height="50" relative="1" as="geometry">
            <mxPoint x="750" y="670" as="sourcePoint" />
            <mxPoint x="630" y="670" as="targetPoint" />
          </mxGeometry>
        </mxCell>
        <mxCell id="2m_FyNcGKUiWBxxuH8gW-87" value="" style="endArrow=none;html=1;rounded=0;fontFamily=Helvetica;fontSize=12;fontColor=blue&#xa;;strokeColor=#7EA6E0;strokeWidth=5;" edge="1" parent="1">
          <mxGeometry width="50" height="50" relative="1" as="geometry">
            <mxPoint x="752" y="800" as="sourcePoint" />
            <mxPoint x="632" y="800" as="targetPoint" />
          </mxGeometry>
        </mxCell>
        <mxCell id="2m_FyNcGKUiWBxxuH8gW-88" value="" style="rounded=0;whiteSpace=wrap;html=1;fontFamily=Helvetica;fontSize=12;fontColor=default;strokeColor=default;fillColor=none;gradientColor=none;" vertex="1" parent="1">
          <mxGeometry x="526" y="-90" width="336" height="940" as="geometry" />
        </mxCell>
        <mxCell id="2m_FyNcGKUiWBxxuH8gW-94" value="" style="endArrow=none;html=1;rounded=0;fontFamily=Helvetica;fontSize=12;fontColor=default;strokeColor=#FF9CCD;strokeWidth=5;entryX=0.5;entryY=0;entryDx=0;entryDy=0;entryPerimeter=0;" edge="1" parent="1" target="2m_FyNcGKUiWBxxuH8gW-22">
          <mxGeometry width="50" height="50" relative="1" as="geometry">
            <mxPoint x="440" y="-210" as="sourcePoint" />
            <mxPoint x="440" y="830" as="targetPoint" />
          </mxGeometry>
        </mxCell>
        <mxCell id="2m_FyNcGKUiWBxxuH8gW-95" value="" style="endArrow=none;html=1;rounded=0;fontFamily=Helvetica;fontSize=12;fontColor=default;strokeColor=#FF9CCD;strokeWidth=5;entryX=0.5;entryY=0;entryDx=0;entryDy=0;entryPerimeter=0;exitX=0.5;exitY=1;exitDx=0;exitDy=0;exitPerimeter=0;" edge="1" parent="1" source="2m_FyNcGKUiWBxxuH8gW-22" target="2m_FyNcGKUiWBxxuH8gW-19">
          <mxGeometry width="50" height="50" relative="1" as="geometry">
            <mxPoint x="450" y="720" as="sourcePoint" />
            <mxPoint x="445" y="861.5" as="targetPoint" />
          </mxGeometry>
        </mxCell>
        <mxCell id="2m_FyNcGKUiWBxxuH8gW-98" value="" style="sketch=0;pointerEvents=1;shadow=0;dashed=0;html=1;strokeColor=none;fillColor=#505050;labelPosition=center;verticalLabelPosition=bottom;verticalAlign=top;outlineConnect=0;align=center;shape=mxgraph.office.devices.video_camera;rounded=0;fontFamily=Helvetica;fontSize=12;fontColor=default;direction=north;" vertex="1" parent="1">
          <mxGeometry x="681.5" y="-180" width="25" height="52" as="geometry" />
        </mxCell>
        <mxCell id="2m_FyNcGKUiWBxxuH8gW-100" value="" style="endArrow=none;html=1;rounded=0;strokeColor=#FFD966;strokeWidth=4;" edge="1" parent="1">
          <mxGeometry width="50" height="50" relative="1" as="geometry">
            <mxPoint x="600" y="-70" as="sourcePoint" />
            <mxPoint x="680" y="-130" as="targetPoint" />
          </mxGeometry>
        </mxCell>
        <mxCell id="2m_FyNcGKUiWBxxuH8gW-102" value="" style="endArrow=none;html=1;rounded=0;fontFamily=Helvetica;fontSize=12;fontColor=default;strokeColor=#FF9CCD;strokeWidth=5;" edge="1" parent="1">
          <mxGeometry width="50" height="50" relative="1" as="geometry">
            <mxPoint x="501" y="-225" as="sourcePoint" />
            <mxPoint x="471" y="-225" as="targetPoint" />
          </mxGeometry>
        </mxCell>
        <mxCell id="2m_FyNcGKUiWBxxuH8gW-104" value="" style="endArrow=none;html=1;rounded=0;fontFamily=Helvetica;fontSize=12;fontColor=default;strokeColor=#FF9CCD;strokeWidth=5;entryX=0.95;entryY=0.94;entryDx=0;entryDy=0;entryPerimeter=0;exitX=0.5;exitY=1;exitDx=0;exitDy=0;" edge="1" parent="1" source="2m_FyNcGKUiWBxxuH8gW-88" target="2m_FyNcGKUiWBxxuH8gW-22">
          <mxGeometry width="50" height="50" relative="1" as="geometry">
            <mxPoint x="450" y="-200" as="sourcePoint" />
            <mxPoint x="447" y="850" as="targetPoint" />
          </mxGeometry>
        </mxCell>
        <mxCell id="2m_FyNcGKUiWBxxuH8gW-105" value="" style="endArrow=classic;startArrow=classic;html=1;rounded=0;fontFamily=Helvetica;fontSize=12;fontColor=default;strokeColor=#000000;strokeWidth=5;" edge="1" parent="1">
          <mxGeometry width="50" height="50" relative="1" as="geometry">
            <mxPoint x="520" y="920" as="sourcePoint" />
            <mxPoint x="860" y="920" as="targetPoint" />
          </mxGeometry>
        </mxCell>
        <mxCell id="2m_FyNcGKUiWBxxuH8gW-106" value="&lt;span style=&quot;font-size: 30px; background-color: rgb(248, 249, 250);&quot;&gt;3m&lt;/span&gt;" style="edgeLabel;html=1;align=center;verticalAlign=middle;resizable=0;points=[];fontSize=12;fontFamily=Helvetica;fontColor=default;" vertex="1" connectable="0" parent="2m_FyNcGKUiWBxxuH8gW-105">
          <mxGeometry x="-0.1647" y="-1" relative="1" as="geometry">
            <mxPoint x="26" y="19" as="offset" />
          </mxGeometry>
        </mxCell>
        <mxCell id="2m_FyNcGKUiWBxxuH8gW-107" value="" style="endArrow=classic;startArrow=classic;html=1;rounded=0;fontFamily=Helvetica;fontSize=12;fontColor=default;strokeColor=#000000;strokeWidth=5;" edge="1" parent="1">
          <mxGeometry width="50" height="50" relative="1" as="geometry">
            <mxPoint x="624" y="450" as="sourcePoint" />
            <mxPoint x="764" y="450" as="targetPoint" />
          </mxGeometry>
        </mxCell>
        <mxCell id="2m_FyNcGKUiWBxxuH8gW-108" value="&lt;span style=&quot;font-size: 30px; background-color: rgb(248, 249, 250);&quot;&gt;1m&lt;/span&gt;" style="edgeLabel;html=1;align=center;verticalAlign=middle;resizable=0;points=[];fontSize=12;fontFamily=Helvetica;fontColor=default;" vertex="1" connectable="0" parent="2m_FyNcGKUiWBxxuH8gW-107">
          <mxGeometry x="-0.1647" y="-1" relative="1" as="geometry">
            <mxPoint x="37" y="-31" as="offset" />
          </mxGeometry>
        </mxCell>
        <mxCell id="2m_FyNcGKUiWBxxuH8gW-109" value="" style="endArrow=classic;startArrow=classic;html=1;rounded=0;fontFamily=Helvetica;fontSize=12;fontColor=default;strokeColor=#000000;strokeWidth=5;" edge="1" parent="1">
          <mxGeometry width="50" height="50" relative="1" as="geometry">
            <mxPoint x="497.14" y="-80" as="sourcePoint" />
            <mxPoint x="497" y="850" as="targetPoint" />
          </mxGeometry>
        </mxCell>
        <mxCell id="2m_FyNcGKUiWBxxuH8gW-113" value="&lt;br&gt;&lt;span style=&quot;color: rgb(0, 0, 0); font-family: Helvetica; font-size: 30px; font-style: normal; font-variant-ligatures: normal; font-variant-caps: normal; font-weight: 400; letter-spacing: normal; orphans: 2; text-align: center; text-indent: 0px; text-transform: none; widows: 2; word-spacing: 0px; -webkit-text-stroke-width: 0px; background-color: rgb(248, 249, 250); text-decoration-thickness: initial; text-decoration-style: initial; text-decoration-color: initial; float: none; display: inline !important;&quot;&gt;8m&lt;/span&gt;" style="edgeLabel;html=1;align=center;verticalAlign=middle;resizable=0;points=[];fontSize=12;fontFamily=Helvetica;fontColor=default;" vertex="1" connectable="0" parent="2m_FyNcGKUiWBxxuH8gW-109">
          <mxGeometry x="-0.1157" y="-6" relative="1" as="geometry">
            <mxPoint x="-23" y="4" as="offset" />
          </mxGeometry>
        </mxCell>
        <mxCell id="2m_FyNcGKUiWBxxuH8gW-114" value="" style="endArrow=classic;startArrow=classic;html=1;rounded=0;fontFamily=Helvetica;fontSize=12;fontColor=default;strokeColor=#000000;strokeWidth=5;" edge="1" parent="1">
          <mxGeometry width="50" height="50" relative="1" as="geometry">
            <mxPoint x="862" y="460" as="sourcePoint" />
            <mxPoint x="1032" y="460" as="targetPoint" />
          </mxGeometry>
        </mxCell>
        <mxCell id="2m_FyNcGKUiWBxxuH8gW-115" value="&lt;span style=&quot;font-size: 30px; background-color: rgb(248, 249, 250);&quot;&gt;1.5m&lt;/span&gt;" style="edgeLabel;html=1;align=center;verticalAlign=middle;resizable=0;points=[];fontSize=12;fontFamily=Helvetica;fontColor=default;" vertex="1" connectable="0" parent="2m_FyNcGKUiWBxxuH8gW-114">
          <mxGeometry x="-0.1647" y="-1" relative="1" as="geometry">
            <mxPoint x="26" y="-101" as="offset" />
          </mxGeometry>
        </mxCell>
        <mxCell id="2m_FyNcGKUiWBxxuH8gW-116" value="" style="shape=image;verticalLabelPosition=bottom;labelBackgroundColor=default;verticalAlign=top;aspect=fixed;imageAspect=0;image=data:image/png,iVBORw0KGgoAAAANSUhEUgAAADwAAABbCAYAAAAvDeaQAAAAAXNSR0IArs4c6QAAAARnQU1BAACxjwv8YQUAAAAJcEhZcwAAEnQAABJ0Ad5mH3gAAA4ESURBVHhe1dvVjmU3EwVgz4SZmZmZEwUUuEikSLnJTS7yRHmGKLnJCyRSFGZmZmZmhvn78z/rpM6ec7p7pmG6l+S2t13bruUq4z695t9//103E1qwdu3a9s8//7S///67p7fccsum/JVXXmk33XRTe/jhh3v51ltvPSpbs2ZN23///dt1113XLrvssrbjjjuur631snXr1o3Si4HUB9GdrtJiumtriy226LHnpDvh/sYMVFQryzOCv/76a/v555/b77//3ol6Wb50OgbR7bffvleejogi4Hk21LanyVYZyLN2/vzzz/+IzYRalvQYYaAcIkkT9CzeaqutRkRSoTJ5aQiGjeWduZB3YJK8PHUlTb62A7WzGUF5ymADwqmERT/77LP29ddfjwiraNttt+2V/vHHH/1ZZanwr7/+6rGGIHVFLkpuDCrxSlJavalP/fTcZZdd2qGHHtq9jZ5ATuieOZMYaZAClXz++eftjjvuaG+88Ubbeeed2w8//NB+/PHHtscee7SddtqpV64C44N8CEE6IGMp5RAFp6ESnA2pl76gfs8//fRTu+qqq9o555zTPRLIprwTTiMyBGTefvvtdtttt/WeuvDCC9vTTz/dyZ966qntuOOOG1WgwbhOlEhIWSBvY1HfiZ6JIeXydPDNN9/czj777Hb11VePvBFGcpUwKOCa77zzTrvnnnvaQQcd1K644or25JNPthdffLH3nArJhSBMUmaIyC4Wan3aNWndcMMN7eijj25XXnlln0CjT2T/G80zGGXOWE8gLMhnLUG6NrTcqLrAUEdpukPVNXzW+jMJqSgYNpCyVJh4NtR3NzVAJRJ4zrJk7IZ09I782mmKTssPavlcsosF7SBdLVhhwkJ4m222GXUOVLkxlw4iUAWn9W56vjaw1EA4LgrRyRKK8A477DAqH+o1kTCEVCUHqaA2VuPNBa77zTff9C2vZTNkM0sHG4zhKD4kFqSiiuUmrZ3alrSllEtbiupeHqrsVAsPkUb0ZNKAfFxMWEoMOzsTElhK7Q4tRQjTJXpWfcc0jPJAIA3UhqrMcqMqDkiGtIPN999/3905B5gRyaLv5tF8E4FAPAyydZRn38/CXDoEYyRIelURRiTehrRnsS0lwqy65557jh1ehlh1Fg7ZkPFssvrqq6/a7rvv3vbee+/RMbbKJb3iCUfRKA51spL/6aef9vGLrJNd3LfGeX9FE64kg5Hi693bDcwHH3zQ3Xm//fbr1q0yQ6wqlwbrLSKsbOxy5Y8//rjts88+nTDiOiJkyUM6aMUSHlp3OCbht99+ax9++GGPXSLGnauM5xqvGguHcNZXsRsYlxK77bZbO+CAA3oe1I7p1zqF9IomHMWFuKjYs7H73nvvtS+//LLfYe21114jmdmwaizMOgJLix0U3nzzzb4UHXbYYX3DEUvOhhVJOO4YxMomIMGYfeutt9q3337bTj755H6xOB+ysOIIV7KZWSH58ty3vfbaa92NjzjiiG5dGHbUJKxol45lAXFkbTBeffXVfp1z0kkn9Qkr43o+WPGEMzsj7ET0wgsv9InqqKOOaocffng/8MOSuvR8e3M2qKOG5CWu+chIc+WXX365n3dPPPHEHsvXKdX9ZyO/UYRrRfPt0UkIkYoQTFli7SD00UcftZdeeqmvtT4E2DdnTa4uPRfpFefS2QpSGAnPZuNnnnmmbzSMWxftdc8c4vPBiiJcSbrNkP7uu+86WXtm45Z1bSHjwqyfd+eDzUJ4mnKUj7XImJGR9THe4cC43XXXXXtZ6gjxJRnDi4koXUN1Ue772GOP9Q3GIYcc0l0ZWcSU84LaQZB6gpoOFpWwhhcSkAFu7GulraMjn493PupZgkIiYx2kvT8fbBYLD4kmIONuyu9InIKM2dNPP300I6dDoN5bJV86mGRdGCNcGxbynADDivLMvcgkDjwLUOtIiLxfFLz++uv9E+27777bjjzyyHbmmWf2c65vRbFi6qgdkHio2ySMEQ6qYokF+VFwGKocuI3IzyLkmXUpLdgWCnnPsvP88893snZRxx9/fDvrrLP6Xpkbk0MqdYM8z0Oy4io3xETCEGLDimqAoZx0zUu+WF7g+Zdffum/NHjggQf6B3cX6BdffHEna+kBdemkEK71bQrGCKeSqhhUEnkG8pN6nqz8jLM8B9K+9D3xxBPtoYce6r8nOfjgg9tFF13UTjjhhL5lrC4rvVgYI0zZSiZEajrEJ8kBJSkoL+QruCxr3n777f0gsN1223WLnn/++Z208eqdtFNn4GFbSSe/lk3DVJeGVFAbREhIWRSDxLEMGeQd2F2lInrnnXd2y3rvtNNOaxdccEG3qpuL1M8z1CUMrUsmbW8KxggPK0ujQi3zPETkABkTlgtyO6X77ruvh2effbZPXghecsklfRY+8MAD+9gF9asDyQwHSH5F1XNjMKtLx5Iad6sgpMeRAuVI2BkZizYLLHn//fe3e++9t++W3BtzXbulSy+9tJ177rl995Qv9dpUj5B6taOseksNm4o1M42Nui6ELSluBP1Oy6mEgjYCzqM2704rZCjn9pDLCqwqP8uPdy0trlDdO5l5jdGhmwL5kElHR7XECyULY4QhhC0Xt9xyS18jjz322E72k08+6RsCmwEfsCwrPlFmjTW72gK6Z0LS9YufAnLZoaV0Vm3aMxmdMRuphRIec2mIEhqnaCxke4eAz5EIG3vyBfvdfffdt5OjuL3wF1980YNZ2alHJ0LIgjaEat1JSNm08o3BBi5NGcrZ3t11112dsJ8emnC4tZnV1SglWdaOScydWdxvMhGUVpedEnfWYTpHh3H1KC/WbiWTvGBYthBMHMPIcOm77767Ty6XX355n3ycS/300LpZ5cE7yBvLLtsQt7lgYe6vExHnDbyDR9TLc50jPZwUIcNhiE0hv8EsraGQSENpXFwViYKCmdwQQMoGwuSmY3iH2MlHh9hsPPjgg+2pp57qs7fOUWdtS6idOQ1zlU/CGGEE0nDSQ9KZVNI5US69HSV0gB+YGO/IO+aZ7a3B8Nxzz/Vlyw9WTYypQzwMkPoXijHCqTwkuam8kIcQl5cQRE6Q9q401zXh+QbkMG8baebn5gg/+uijfQhZ4lJfyNawGBgjXBsLpOWHQEWIQWRCuJaBdKwe4uedd16/q+LaDv2sboYPdIhOjyfFAIF0PGy+2IAwRYOqdCr1XInIT17NhzznXQQEw8L9lHFtL23WJ2tcP/LII/0OmpzZPNexqSvkN5ZoMEZ4qZHOTOcgY7my1LG2mdutBxe3yUE6spU0SE8yyFxYUsJRJnGd8MRcVLBDsztz+DfB+fbrROXG0voO3mFV8G7qlD9fsrDkFo5iIZg0sJBOSAc4IprQWNxhxEnLltbGJoTTSXHpSjbPw/yKJSMcUiCdZzGiURooh7hnB4xTTjmlk7aJ4d7cPP8gFjnvey9uXdsLJpFecpeuilA2ZEMy5Z7z6dNR0kUe0oja5b3//vt940LeexXyYvG5sOQuDSFOIQFp1grZaiXllDeuzd5II2ov70Iha7X3U58wXywL4SAEQ66mkc4zCyLB4kibwR1GHn/88f5RLdYUkhbPB8tOOEQh6RrH2nnORsU5HFmfYJzGgko85CF1pDz5y0oYosgkVCWlE5yzXQ/ZlzuiOrU5dFSZvFetPwnLTniIKBtUEgICXNw52gHEaQxhV1AmPzLI8YzqHUMkf7MTDkYKFcVDBmlpx06TmB2Yny05byv3DHlHmPQMK4bwEHHLKCttZnaBaFdmxnZDmvW5gmyNIfWtOMJRrKKStjGxRjt82Hr6vFrHbYK8SVixFq4kgZvHtU1efv5gz400K4foXFhRhJEZBhNWdmQCuNt212ZM+4TjwjEnK9A5FekI5ZuFcJSPghU1v8olZFvqoHHMMcf0y0K3JXZjeUe5OIj1hRXr0pMQ0hR3lvY7aTcmJjB34HXcVsKQ51VHOEsWcvbbWaYcLpydUxb5YbyqCLNsgLjlyDi2/cy/8iAbuaTH3lsfrwpkg4GIYDIzgXFtV73c2hifNmnBqnPpxMgjwsp+Riz2Hy4+7g1dedUSzo6KBbNUSduEuAxkYZ91hq7sOZhKOL0zCaksFdb0UkIb9EIAUUuR2Bh2uHCCym1nQFZHja6E1uePYRLZYd5sHbLY0FYChHiekfaVk9Xz1RLqe2RgQS6dBpcL2htzzxkS8Sx32j7msXKsOQkTCRMevlCfh0TTi8sBeqStxDrBOPabEUuT20550bnqviALLzdClmWr20rbedmIuM+23ayeQCads0mEa4+B52HeUiFjMSQ8C9LGsQkL6ZQLFSPCUXouxVM+STZ5s4XFBDLqDGEHCsjSBGnXuIZZLTxNwcVWfL6IxaI8sGisaNflswzCVce8B2v1xLA3IDuZuIy1TCwvs2BkQR31eRry3kJClNdmdJJ2wacsug9lu3x/Wo8IZY9KwOIuVgmiKogLpTLvBGRTz6SwGEi7UNPRi57VKHQf7dKq4uktVyaEoryYjDSXEZRXpDzycxGfFPLetIBEOl4YltOB7vmxXPKDznUmY6zbCThXuivK77T8PMHXeXfB7oZ9BSDHE0DjkOcgHVkxKS/oCs1SrlNmg7F74403tjPOOKNde+21/aOcd+ilA8T9d1oyE9Kozxq33npr/xWshZww9yZjgU9P8wrwTtIV5OcL9c1XXnuRTcxtLUnXX399u+aaazphdYYTuRFhFhNDbZigivIslgfeybiByEzDXOWpZ2OgzgR6MoR6eKlfD8mj5//R2v8AVg7AFoNqJIAAAAAASUVORK5CYII=;" vertex="1" parent="1">
          <mxGeometry x="1024" y="-280" width="79.78" height="121" as="geometry" />
        </mxCell>
        <mxCell id="2m_FyNcGKUiWBxxuH8gW-117" value="" style="shape=image;verticalLabelPosition=bottom;labelBackgroundColor=default;verticalAlign=top;aspect=fixed;imageAspect=0;image=data:image/png,iVBORw0KGgoAAAANSUhEUgAAADwAAABbCAYAAAAvDeaQAAAAAXNSR0IArs4c6QAAAARnQU1BAACxjwv8YQUAAAAJcEhZcwAAEnQAABJ0Ad5mH3gAAA4ESURBVHhe1dvVjmU3EwVgz4SZmZmZEwUUuEikSLnJTS7yRHmGKLnJCyRSFGZmZmZmhvn78z/rpM6ec7p7pmG6l+S2t13bruUq4z695t9//103E1qwdu3a9s8//7S///67p7fccsum/JVXXmk33XRTe/jhh3v51ltvPSpbs2ZN23///dt1113XLrvssrbjjjuur631snXr1o3Si4HUB9GdrtJiumtriy226LHnpDvh/sYMVFQryzOCv/76a/v555/b77//3ol6Wb50OgbR7bffvleejogi4Hk21LanyVYZyLN2/vzzz/+IzYRalvQYYaAcIkkT9CzeaqutRkRSoTJ5aQiGjeWduZB3YJK8PHUlTb62A7WzGUF5ymADwqmERT/77LP29ddfjwiraNttt+2V/vHHH/1ZZanwr7/+6rGGIHVFLkpuDCrxSlJavalP/fTcZZdd2qGHHtq9jZ5ATuieOZMYaZAClXz++eftjjvuaG+88Ubbeeed2w8//NB+/PHHtscee7SddtqpV64C44N8CEE6IGMp5RAFp6ESnA2pl76gfs8//fRTu+qqq9o555zTPRLIprwTTiMyBGTefvvtdtttt/WeuvDCC9vTTz/dyZ966qntuOOOG1WgwbhOlEhIWSBvY1HfiZ6JIeXydPDNN9/czj777Hb11VePvBFGcpUwKOCa77zzTrvnnnvaQQcd1K644or25JNPthdffLH3nArJhSBMUmaIyC4Wan3aNWndcMMN7eijj25XXnlln0CjT2T/G80zGGXOWE8gLMhnLUG6NrTcqLrAUEdpukPVNXzW+jMJqSgYNpCyVJh4NtR3NzVAJRJ4zrJk7IZ09I782mmKTssPavlcsosF7SBdLVhhwkJ4m222GXUOVLkxlw4iUAWn9W56vjaw1EA4LgrRyRKK8A477DAqH+o1kTCEVCUHqaA2VuPNBa77zTff9C2vZTNkM0sHG4zhKD4kFqSiiuUmrZ3alrSllEtbiupeHqrsVAsPkUb0ZNKAfFxMWEoMOzsTElhK7Q4tRQjTJXpWfcc0jPJAIA3UhqrMcqMqDkiGtIPN999/3905B5gRyaLv5tF8E4FAPAyydZRn38/CXDoEYyRIelURRiTehrRnsS0lwqy65557jh1ehlh1Fg7ZkPFssvrqq6/a7rvv3vbee+/RMbbKJb3iCUfRKA51spL/6aef9vGLrJNd3LfGeX9FE64kg5Hi693bDcwHH3zQ3Xm//fbr1q0yQ6wqlwbrLSKsbOxy5Y8//rjts88+nTDiOiJkyUM6aMUSHlp3OCbht99+ax9++GGPXSLGnauM5xqvGguHcNZXsRsYlxK77bZbO+CAA3oe1I7p1zqF9IomHMWFuKjYs7H73nvvtS+//LLfYe21114jmdmwaizMOgJLix0U3nzzzb4UHXbYYX3DEUvOhhVJOO4YxMomIMGYfeutt9q3337bTj755H6xOB+ysOIIV7KZWSH58ty3vfbaa92NjzjiiG5dGHbUJKxol45lAXFkbTBeffXVfp1z0kkn9Qkr43o+WPGEMzsj7ET0wgsv9InqqKOOaocffng/8MOSuvR8e3M2qKOG5CWu+chIc+WXX365n3dPPPHEHsvXKdX9ZyO/UYRrRfPt0UkIkYoQTFli7SD00UcftZdeeqmvtT4E2DdnTa4uPRfpFefS2QpSGAnPZuNnnnmmbzSMWxftdc8c4vPBiiJcSbrNkP7uu+86WXtm45Z1bSHjwqyfd+eDzUJ4mnKUj7XImJGR9THe4cC43XXXXXtZ6gjxJRnDi4koXUN1Ue772GOP9Q3GIYcc0l0ZWcSU84LaQZB6gpoOFpWwhhcSkAFu7GulraMjn493PupZgkIiYx2kvT8fbBYLD4kmIONuyu9InIKM2dNPP300I6dDoN5bJV86mGRdGCNcGxbynADDivLMvcgkDjwLUOtIiLxfFLz++uv9E+27777bjjzyyHbmmWf2c65vRbFi6qgdkHio2ySMEQ6qYokF+VFwGKocuI3IzyLkmXUpLdgWCnnPsvP88893snZRxx9/fDvrrLP6Xpkbk0MqdYM8z0Oy4io3xETCEGLDimqAoZx0zUu+WF7g+Zdffum/NHjggQf6B3cX6BdffHEna+kBdemkEK71bQrGCKeSqhhUEnkG8pN6nqz8jLM8B9K+9D3xxBPtoYce6r8nOfjgg9tFF13UTjjhhL5lrC4rvVgYI0zZSiZEajrEJ8kBJSkoL+QruCxr3n777f0gsN1223WLnn/++Z208eqdtFNn4GFbSSe/lk3DVJeGVFAbREhIWRSDxLEMGeQd2F2lInrnnXd2y3rvtNNOaxdccEG3qpuL1M8z1CUMrUsmbW8KxggPK0ujQi3zPETkABkTlgtyO6X77ruvh2effbZPXghecsklfRY+8MAD+9gF9asDyQwHSH5F1XNjMKtLx5Iad6sgpMeRAuVI2BkZizYLLHn//fe3e++9t++W3BtzXbulSy+9tJ177rl995Qv9dpUj5B6taOseksNm4o1M42Nui6ELSluBP1Oy6mEgjYCzqM2704rZCjn9pDLCqwqP8uPdy0trlDdO5l5jdGhmwL5kElHR7XECyULY4QhhC0Xt9xyS18jjz322E72k08+6RsCmwEfsCwrPlFmjTW72gK6Z0LS9YufAnLZoaV0Vm3aMxmdMRuphRIec2mIEhqnaCxke4eAz5EIG3vyBfvdfffdt5OjuL3wF1980YNZ2alHJ0LIgjaEat1JSNm08o3BBi5NGcrZ3t11112dsJ8emnC4tZnV1SglWdaOScydWdxvMhGUVpedEnfWYTpHh3H1KC/WbiWTvGBYthBMHMPIcOm77767Ty6XX355n3ycS/300LpZ5cE7yBvLLtsQt7lgYe6vExHnDbyDR9TLc50jPZwUIcNhiE0hv8EsraGQSENpXFwViYKCmdwQQMoGwuSmY3iH2MlHh9hsPPjgg+2pp57qs7fOUWdtS6idOQ1zlU/CGGEE0nDSQ9KZVNI5US69HSV0gB+YGO/IO+aZ7a3B8Nxzz/Vlyw9WTYypQzwMkPoXijHCqTwkuam8kIcQl5cQRE6Q9q401zXh+QbkMG8baebn5gg/+uijfQhZ4lJfyNawGBgjXBsLpOWHQEWIQWRCuJaBdKwe4uedd16/q+LaDv2sboYPdIhOjyfFAIF0PGy+2IAwRYOqdCr1XInIT17NhzznXQQEw8L9lHFtL23WJ2tcP/LII/0OmpzZPNexqSvkN5ZoMEZ4qZHOTOcgY7my1LG2mdutBxe3yUE6spU0SE8yyFxYUsJRJnGd8MRcVLBDsztz+DfB+fbrROXG0voO3mFV8G7qlD9fsrDkFo5iIZg0sJBOSAc4IprQWNxhxEnLltbGJoTTSXHpSjbPw/yKJSMcUiCdZzGiURooh7hnB4xTTjmlk7aJ4d7cPP8gFjnvey9uXdsLJpFecpeuilA2ZEMy5Z7z6dNR0kUe0oja5b3//vt940LeexXyYvG5sOQuDSFOIQFp1grZaiXllDeuzd5II2ov70Iha7X3U58wXywL4SAEQ66mkc4zCyLB4kibwR1GHn/88f5RLdYUkhbPB8tOOEQh6RrH2nnORsU5HFmfYJzGgko85CF1pDz5y0oYosgkVCWlE5yzXQ/ZlzuiOrU5dFSZvFetPwnLTniIKBtUEgICXNw52gHEaQxhV1AmPzLI8YzqHUMkf7MTDkYKFcVDBmlpx06TmB2Yny05byv3DHlHmPQMK4bwEHHLKCttZnaBaFdmxnZDmvW5gmyNIfWtOMJRrKKStjGxRjt82Hr6vFrHbYK8SVixFq4kgZvHtU1efv5gz400K4foXFhRhJEZBhNWdmQCuNt212ZM+4TjwjEnK9A5FekI5ZuFcJSPghU1v8olZFvqoHHMMcf0y0K3JXZjeUe5OIj1hRXr0pMQ0hR3lvY7aTcmJjB34HXcVsKQ51VHOEsWcvbbWaYcLpydUxb5YbyqCLNsgLjlyDi2/cy/8iAbuaTH3lsfrwpkg4GIYDIzgXFtV73c2hifNmnBqnPpxMgjwsp+Riz2Hy4+7g1dedUSzo6KBbNUSduEuAxkYZ91hq7sOZhKOL0zCaksFdb0UkIb9EIAUUuR2Bh2uHCCym1nQFZHja6E1uePYRLZYd5sHbLY0FYChHiekfaVk9Xz1RLqe2RgQS6dBpcL2htzzxkS8Sx32j7msXKsOQkTCRMevlCfh0TTi8sBeqStxDrBOPabEUuT20550bnqviALLzdClmWr20rbedmIuM+23ayeQCads0mEa4+B52HeUiFjMSQ8C9LGsQkL6ZQLFSPCUXouxVM+STZ5s4XFBDLqDGEHCsjSBGnXuIZZLTxNwcVWfL6IxaI8sGisaNflswzCVce8B2v1xLA3IDuZuIy1TCwvs2BkQR31eRry3kJClNdmdJJ2wacsug9lu3x/Wo8IZY9KwOIuVgmiKogLpTLvBGRTz6SwGEi7UNPRi57VKHQf7dKq4uktVyaEoryYjDSXEZRXpDzycxGfFPLetIBEOl4YltOB7vmxXPKDznUmY6zbCThXuivK77T8PMHXeXfB7oZ9BSDHE0DjkOcgHVkxKS/oCs1SrlNmg7F74403tjPOOKNde+21/aOcd+ilA8T9d1oyE9Kozxq33npr/xWshZww9yZjgU9P8wrwTtIV5OcL9c1XXnuRTcxtLUnXX399u+aaazphdYYTuRFhFhNDbZigivIslgfeybiByEzDXOWpZ2OgzgR6MoR6eKlfD8mj5//R2v8AVg7AFoNqJIAAAAAASUVORK5CYII=;" vertex="1" parent="1">
          <mxGeometry x="1024" y="760" width="79.78" height="121" as="geometry" />
        </mxCell>
        <mxCell id="2m_FyNcGKUiWBxxuH8gW-123" value="" style="endArrow=classic;startArrow=classic;html=1;rounded=0;fontFamily=Helvetica;fontSize=12;fontColor=default;strokeColor=#000000;strokeWidth=5;" edge="1" parent="1">
          <mxGeometry width="50" height="50" relative="1" as="geometry">
            <mxPoint x="991" y="760" as="sourcePoint" />
            <mxPoint x="991.16" y="881" as="targetPoint" />
            <Array as="points">
              <mxPoint x="991.16" y="820" />
            </Array>
          </mxGeometry>
        </mxCell>
        <mxCell id="2m_FyNcGKUiWBxxuH8gW-124" value="&lt;span style=&quot;font-size: 30px; background-color: rgb(248, 249, 250);&quot;&gt;1.5m&lt;/span&gt;" style="edgeLabel;html=1;align=center;verticalAlign=middle;resizable=0;points=[];fontSize=12;fontFamily=Helvetica;fontColor=default;rotation=0;" vertex="1" connectable="0" parent="2m_FyNcGKUiWBxxuH8gW-123">
          <mxGeometry x="-0.1755" relative="1" as="geometry">
            <mxPoint x="-50" y="7" as="offset" />
          </mxGeometry>
        </mxCell>
        <mxCell id="2m_FyNcGKUiWBxxuH8gW-125" value="" style="shape=image;verticalLabelPosition=bottom;labelBackgroundColor=default;verticalAlign=top;aspect=fixed;imageAspect=0;image=data:image/png,iVBORw0KGgoAAAANSUhEUgAAACkAAAAvCAYAAAB+OePrAAAAAXNSR0IArs4c6QAAAARnQU1BAACxjwv8YQUAAAAJcEhZcwAAEnQAABJ0Ad5mH3gAAAp0SURBVFhHvZjVq1XbF8fH3nYrdgfYHo+FnUdFDAxU7EZEUXzwH7hP4ov6oqLoiwgGBjZ29zEfLOwujGP3uuszzu+7f/NuPB7vyx0w94w14jtizjXXTmzYsCHq3bu3lShRwn7+/GkFChSwRCJh0NevX31MK1iwoH358sW+f/9uxYsXT/HkR/BFUeQtlPnx40dqjZZMJn3t27dvVqRIEfv06ZM/B1dSAmLm4cePHx0wwAoVKuRjCGGExCvjv2pQOEcHDmKLBkkHPTbpixYt6mvFihVz+863ePHiqHv37v7ww4cPDgoGhBQ1egEl0owLFy6cWkMphJGQQhAQ/DStoQvAnz9/dpsEgTm6S5cu7QGBEvXr14+qVq1q1atXd4CkFGGAMdeYdJAKgWRNnuZFAIEXWeQAhw6tlSxZ0t6+fesAWWf88uVLB71kyRJr27ZtroMZGRnR/Pnzo1u3bkXxwygGGcUpj2KPohhIFEfX15nrGX0c6dRY6zR46ZGLazrKyclJrb169crX0MUaTTbev38fZWdnR/37948yMzOjQ4cORTFw5ykwZ86cv168eGFPnjyxGjVqWKlSpTzc8UOPBikgYnjKOtElIoxZJ0I0xprDw5iIESWtUVKxQ6kyYI2yQtf58+dt4cKFlpWVZZUrV/bM1qtXz3mTrVq1sn79+tn9+/dt/fr19vTpU68LlCOMUhoKIZRjFB7VV14EUJ7jsPjQgzy6KRn0XL9+3dPbrVs3GzlypO8D9gcl4SCZAHTYsGFeDwC9ceOGK+AIIpIoBJAIxRiSkvQmQESfORFEHjmAo5vG2rVr12zu3LnWpk0bmz59uuuMU586RdCVRBHC7dq1sz59+hip37Vrl925c8eBwCgeUXr0mP+qKfo4yxx99NJ58eJFW7RokQdp9uzZfvyxeQAoRzwY/Mi7Tp062eDBgx3ojh077NGjR14zPMcgiiHmgA4B0SCVAA2d8Gl3kzVKh2dnz5615cuXW4cOHWzWrFm+RsTJGmP4kMF+UsogFlu2bOkRpTbXrVtnjx8/dsMYwFOBgJeIhA3SOFVPcU9DltJB7sSJE7ZmzRpr1KiRjRkzJlWfAKMeVWbIExwHSWRYoMBZJKJspocPH9qBAwc89Qix8+GnQfRESlHVGo7IGQwCEr3Mjxw54gAbNmxoU6dOtTJlyjgPz2k4I13oAFsScEzo8Qhi3KVLFxs+fLjdvXvXNm3aZM+ePXNhAPEcz+lpREeKAYQ+enhwDkKOFK9du9aaNGlio0ePdqfhQVYyKg/ZgTySEAuMEYIBoc6dO1vXrl0tPoQtvojYgwcPHBCEhxAKyQD8kHp0UGM8I42keNWqVda4cWObOHGiRxAe2YeQDZ2FmDtIIQ4FGNMA2bdvX0/99u3b/dBnXQYEBtBsLJTTSBsNp86cOWPbtm2zKlWq2OTJk1MvDAjb8AsDxFhz9OfCjYlFFMoIjSgAoGPHjjZo0CA/dPfu3eu7XyQ+AFNTKEUPoGmHDx+2rVu3WsWKFW3atGn+vsaWGw9sCZjGkOZekxiAWMCA1gBI+jHWunVrGzp0qJ06dcqNvnv3LnVYExWiRlqZkzb0HD9+3I8yzr3x48f7605HEKSgIAPRM4fgYe48DMTEg7ABUDsOwNQou55DGKC8GXR28hqVAY4rAG7cuNHq1KljU6ZM8UgSPQDLGWzkRTxTfbvWEKhIHursUtRIO0DZqTt37vQ3BMbhg3Ds3r17fsxwQeB1W6lSJY82Rw2GcRz9AilbmjMOI/qPSIrERM8RAiNjTn+M8LnBhhJQAFIS8Fy4cMGWLVtm8T3VhgwZYtWqVXOdyBFteEihohTaomlNpQD57k73CEIJcyKos0y3dNapTzZUfO/zA5/UX7161VPM5qAGSbVeEOhFJ71HJ9YBkHQSn3DBlws1DwIgqSRKRBRhDBI5xgMGDPDjCZAc0itWrDBu+TNmzPDrPzyKGs4JIHpZ+x3BByHzW5AYIEUYUE1SV6wBHuADBw602rVr24IFC/xCwvcSl+fwZCAagMIwOlSTvyJFUCDpfwtSnqNUxhjrkGZ++/ZtPze5zbBznz9/7ptJkfJ0/a/hGITe9EgKVDrlCxJCIVGESDNCuqkQOVLMG2TevHm+oTZv3uyXCC7QOEY0Aaf6ExgBhrSW3ovyBYkyjg8ESS9nIKC5ypFioseVv3z58jZq1Chr3769vz55V+MUEcRRRVMRJCN5Efxh/0cgIaWLWiNKS5cutbJly/ptho8mokZ0ORd5O3G7P3jwoL158yYFDkfV0KWxCFAhQLV/gJQAPUppoQGISzAfTQiPHTvWGjRo4K9I5jhAtMeNG+efI6Se1yg1qo2HM/RQCFCkNXg0Tl3VIIGhx1OlCAPMuapx3SKN3GZq1qzp/EQU0hkKkBEjRvhrlMOes1RvG0jOK0shCYMcgWLe/9eJADGn0GGmsc4mWblypdfkhAkTUt/EAhYCUMR443DLp0Z3797tBzukDQif0i5wyKGPsSh1nxQj4AQQZkABcPXq1e4AF1a+TeBVtGWAMTzIo5P0857nln/s2DHbt2+fp551noc7XvoYp5PXJAIwaQwzHrHGuUcEqTs2Sd26dR0MBA+8cpKx3kzwsIN58/Bhx2Y6efKk7dmzx3JyclIZQ1aOIUNZMCZDAhyv536LQALLGqnhT4ItW7Z4evje4dIgrwEAP8cTRgAsoKzLCHNuQUS0efPmfoYePXrUXwgQfOiCD8JJbMtxmodEHsEIQOaXL1/23QlArmekGCCAgk/OCLDAw4Nh6RNvuXLl/G+Unj17OlBSz/Gk0hAgmkg6kyhRFFgg3FeuXPEa4hn1lJmZmTIKAKUGYowszxURHOG5GjLo5jxt0aKFt9OnT9v+/fv9Iw8ZZOHFvkoGQrdbYgAjTDdv3vRDmBrEc1Ik4jkOoQBQigBAoXTwGgs8crVq1XK9GRkZlp2d7ccT1zyBYlORbuS15n+zgB4l/AlAYZPiHj16uCK8ggdDEKAAKgIIYMNehBE5xTp64OFTolevXtasWTO7dOmSf9wBFN1EHRn45Jj/YcUitxk+mgBIiokgVzKeyTBKQmIetnTSOgYVGQyjE6Ac9gDlrcRXJdnjmWRUAknqh3OQGuTzgKOCmuF2HYLDQNj/CWEIXvHT6+gBDDd3gPKvGh9u586d86yGH2uegaysrL/48Gen8TkASJhQKCZ6jdX+hEK5sIekH1sVKlTwSwv/VbJG2VG7HHkuE9+sI15xXAi4uBJZPNVRoyhIeXr/O0JewKQHYqxoEjH46Dny2Lj87zRz5kzfF8gmmjZtGvE/tSJIOniAchSFJGChwZDSgeug1hh91CaEDkCyRor5b4h9wRWPOZfoGFvuZps0aVJEBNnFqgMo3GV5gUpfTwfJPNQHCSTgeEbGeCa+169fe4B4w/GmcgzxxcFBMuEhoReFRgUoXIPS5yHxDDCSRT+NudbJnD7sGHNOEn16MDFOxHUQ8ariuwUhFKtXy4tk/N9QKMMYsBB2cAAKHaNPEmq8oLEQtvwodCS/9ivSM2wBLAQXyqbOEiYiPfyvScEJ7ScSCfsbFBooRQuiaBUAAAAASUVORK5CYII=;" vertex="1" parent="1">
          <mxGeometry x="327" y="-10" width="43.62" height="50" as="geometry" />
        </mxCell>
        <mxCell id="2m_FyNcGKUiWBxxuH8gW-129" value="" style="endArrow=classic;startArrow=classic;html=1;rounded=0;fontFamily=Helvetica;fontSize=12;fontColor=default;strokeColor=#000000;strokeWidth=5;" edge="1" parent="1">
          <mxGeometry width="50" height="50" relative="1" as="geometry">
            <mxPoint x="970" y="-10" as="sourcePoint" />
            <mxPoint x="970" y="41" as="targetPoint" />
            <Array as="points">
              <mxPoint x="970" y="-10" />
            </Array>
          </mxGeometry>
        </mxCell>
        <mxCell id="2m_FyNcGKUiWBxxuH8gW-130" value="&lt;span style=&quot;background-color: rgb(248, 249, 250);&quot;&gt;&lt;font style=&quot;font-size: 13px;&quot;&gt;0.35m&lt;/font&gt;&lt;/span&gt;" style="edgeLabel;html=1;align=center;verticalAlign=middle;resizable=0;points=[];fontSize=12;fontFamily=Helvetica;fontColor=default;rotation=0;" vertex="1" connectable="0" parent="2m_FyNcGKUiWBxxuH8gW-129">
          <mxGeometry x="-0.1755" relative="1" as="geometry">
            <mxPoint x="-40" y="3" as="offset" />
          </mxGeometry>
        </mxCell>
        <mxCell id="2m_FyNcGKUiWBxxuH8gW-135" value="" style="endArrow=classic;startArrow=classic;html=1;rounded=0;fontFamily=Helvetica;fontSize=12;fontColor=default;strokeColor=#000000;strokeWidth=5;" edge="1" parent="1">
          <mxGeometry width="50" height="50" relative="1" as="geometry">
            <mxPoint x="327" y="-35.59" as="sourcePoint" />
            <mxPoint x="377" y="-35.59" as="targetPoint" />
          </mxGeometry>
        </mxCell>
        <mxCell id="2m_FyNcGKUiWBxxuH8gW-136" value="&lt;span style=&quot;background-color: rgb(248, 249, 250);&quot;&gt;0.35m&lt;/span&gt;" style="edgeLabel;html=1;align=center;verticalAlign=middle;resizable=0;points=[];fontSize=12;fontFamily=Helvetica;fontColor=default;" vertex="1" connectable="0" parent="2m_FyNcGKUiWBxxuH8gW-135">
          <mxGeometry x="-0.1647" y="-1" relative="1" as="geometry">
            <mxPoint x="1" y="-31" as="offset" />
          </mxGeometry>
        </mxCell>
        <mxCell id="2m_FyNcGKUiWBxxuH8gW-138" value="" style="shape=image;verticalLabelPosition=bottom;labelBackgroundColor=default;verticalAlign=top;aspect=fixed;imageAspect=0;image=data:image/png,iVBORw0KGgoAAAANSUhEUgAAACkAAAAvCAYAAAB+OePrAAAAAXNSR0IArs4c6QAAAARnQU1BAACxjwv8YQUAAAAJcEhZcwAAEnQAABJ0Ad5mH3gAAAp0SURBVFhHvZjVq1XbF8fH3nYrdgfYHo+FnUdFDAxU7EZEUXzwH7hP4ov6oqLoiwgGBjZ29zEfLOwujGP3uuszzu+7f/NuPB7vyx0w94w14jtizjXXTmzYsCHq3bu3lShRwn7+/GkFChSwRCJh0NevX31MK1iwoH358sW+f/9uxYsXT/HkR/BFUeQtlPnx40dqjZZMJn3t27dvVqRIEfv06ZM/B1dSAmLm4cePHx0wwAoVKuRjCGGExCvjv2pQOEcHDmKLBkkHPTbpixYt6mvFihVz+863ePHiqHv37v7ww4cPDgoGhBQ1egEl0owLFy6cWkMphJGQQhAQ/DStoQvAnz9/dpsEgTm6S5cu7QGBEvXr14+qVq1q1atXd4CkFGGAMdeYdJAKgWRNnuZFAIEXWeQAhw6tlSxZ0t6+fesAWWf88uVLB71kyRJr27ZtroMZGRnR/Pnzo1u3bkXxwygGGcUpj2KPohhIFEfX15nrGX0c6dRY6zR46ZGLazrKyclJrb169crX0MUaTTbev38fZWdnR/37948yMzOjQ4cORTFw5ykwZ86cv168eGFPnjyxGjVqWKlSpTzc8UOPBikgYnjKOtElIoxZJ0I0xprDw5iIESWtUVKxQ6kyYI2yQtf58+dt4cKFlpWVZZUrV/bM1qtXz3mTrVq1sn79+tn9+/dt/fr19vTpU68LlCOMUhoKIZRjFB7VV14EUJ7jsPjQgzy6KRn0XL9+3dPbrVs3GzlypO8D9gcl4SCZAHTYsGFeDwC9ceOGK+AIIpIoBJAIxRiSkvQmQESfORFEHjmAo5vG2rVr12zu3LnWpk0bmz59uuuMU586RdCVRBHC7dq1sz59+hip37Vrl925c8eBwCgeUXr0mP+qKfo4yxx99NJ58eJFW7RokQdp9uzZfvyxeQAoRzwY/Mi7Tp062eDBgx3ojh077NGjR14zPMcgiiHmgA4B0SCVAA2d8Gl3kzVKh2dnz5615cuXW4cOHWzWrFm+RsTJGmP4kMF+UsogFlu2bOkRpTbXrVtnjx8/dsMYwFOBgJeIhA3SOFVPcU9DltJB7sSJE7ZmzRpr1KiRjRkzJlWfAKMeVWbIExwHSWRYoMBZJKJspocPH9qBAwc89Qix8+GnQfRESlHVGo7IGQwCEr3Mjxw54gAbNmxoU6dOtTJlyjgPz2k4I13oAFsScEzo8Qhi3KVLFxs+fLjdvXvXNm3aZM+ePXNhAPEcz+lpREeKAYQ+enhwDkKOFK9du9aaNGlio0ePdqfhQVYyKg/ZgTySEAuMEYIBoc6dO1vXrl0tPoQtvojYgwcPHBCEhxAKyQD8kHp0UGM8I42keNWqVda4cWObOHGiRxAe2YeQDZ2FmDtIIQ4FGNMA2bdvX0/99u3b/dBnXQYEBtBsLJTTSBsNp86cOWPbtm2zKlWq2OTJk1MvDAjb8AsDxFhz9OfCjYlFFMoIjSgAoGPHjjZo0CA/dPfu3eu7XyQ+AFNTKEUPoGmHDx+2rVu3WsWKFW3atGn+vsaWGw9sCZjGkOZekxiAWMCA1gBI+jHWunVrGzp0qJ06dcqNvnv3LnVYExWiRlqZkzb0HD9+3I8yzr3x48f7605HEKSgIAPRM4fgYe48DMTEg7ABUDsOwNQou55DGKC8GXR28hqVAY4rAG7cuNHq1KljU6ZM8UgSPQDLGWzkRTxTfbvWEKhIHursUtRIO0DZqTt37vQ3BMbhg3Ds3r17fsxwQeB1W6lSJY82Rw2GcRz9AilbmjMOI/qPSIrERM8RAiNjTn+M8LnBhhJQAFIS8Fy4cMGWLVtm8T3VhgwZYtWqVXOdyBFteEihohTaomlNpQD57k73CEIJcyKos0y3dNapTzZUfO/zA5/UX7161VPM5qAGSbVeEOhFJ71HJ9YBkHQSn3DBlws1DwIgqSRKRBRhDBI5xgMGDPDjCZAc0itWrDBu+TNmzPDrPzyKGs4JIHpZ+x3BByHzW5AYIEUYUE1SV6wBHuADBw602rVr24IFC/xCwvcSl+fwZCAagMIwOlSTvyJFUCDpfwtSnqNUxhjrkGZ++/ZtPze5zbBznz9/7ptJkfJ0/a/hGITe9EgKVDrlCxJCIVGESDNCuqkQOVLMG2TevHm+oTZv3uyXCC7QOEY0Aaf6ExgBhrSW3ovyBYkyjg8ESS9nIKC5ypFioseVv3z58jZq1Chr3769vz55V+MUEcRRRVMRJCN5Efxh/0cgIaWLWiNKS5cutbJly/ptho8mokZ0ORd5O3G7P3jwoL158yYFDkfV0KWxCFAhQLV/gJQAPUppoQGISzAfTQiPHTvWGjRo4K9I5jhAtMeNG+efI6Se1yg1qo2HM/RQCFCkNXg0Tl3VIIGhx1OlCAPMuapx3SKN3GZq1qzp/EQU0hkKkBEjRvhrlMOes1RvG0jOK0shCYMcgWLe/9eJADGn0GGmsc4mWblypdfkhAkTUt/EAhYCUMR443DLp0Z3797tBzukDQif0i5wyKGPsSh1nxQj4AQQZkABcPXq1e4AF1a+TeBVtGWAMTzIo5P0857nln/s2DHbt2+fp551noc7XvoYp5PXJAIwaQwzHrHGuUcEqTs2Sd26dR0MBA+8cpKx3kzwsIN58/Bhx2Y6efKk7dmzx3JyclIZQ1aOIUNZMCZDAhyv536LQALLGqnhT4ItW7Z4evje4dIgrwEAP8cTRgAsoKzLCHNuQUS0efPmfoYePXrUXwgQfOiCD8JJbMtxmodEHsEIQOaXL1/23QlArmekGCCAgk/OCLDAw4Nh6RNvuXLl/G+Unj17OlBSz/Gk0hAgmkg6kyhRFFgg3FeuXPEa4hn1lJmZmTIKAKUGYowszxURHOG5GjLo5jxt0aKFt9OnT9v+/fv9Iw8ZZOHFvkoGQrdbYgAjTDdv3vRDmBrEc1Ik4jkOoQBQigBAoXTwGgs8crVq1XK9GRkZlp2d7ccT1zyBYlORbuS15n+zgB4l/AlAYZPiHj16uCK8ggdDEKAAKgIIYMNehBE5xTp64OFTolevXtasWTO7dOmSf9wBFN1EHRn45Jj/YcUitxk+mgBIiokgVzKeyTBKQmIetnTSOgYVGQyjE6Ac9gDlrcRXJdnjmWRUAknqh3OQGuTzgKOCmuF2HYLDQNj/CWEIXvHT6+gBDDd3gPKvGh9u586d86yGH2uegaysrL/48Gen8TkASJhQKCZ6jdX+hEK5sIekH1sVKlTwSwv/VbJG2VG7HHkuE9+sI15xXAi4uBJZPNVRoyhIeXr/O0JewKQHYqxoEjH46Dny2Lj87zRz5kzfF8gmmjZtGvE/tSJIOniAchSFJGChwZDSgeug1hh91CaEDkCyRor5b4h9wRWPOZfoGFvuZps0aVJEBNnFqgMo3GV5gUpfTwfJPNQHCSTgeEbGeCa+169fe4B4w/GmcgzxxcFBMuEhoReFRgUoXIPS5yHxDDCSRT+NudbJnD7sGHNOEn16MDFOxHUQ8ariuwUhFKtXy4tk/N9QKMMYsBB2cAAKHaNPEmq8oLEQtvwodCS/9ivSM2wBLAQXyqbOEiYiPfyvScEJ7ScSCfsbFBooRQuiaBUAAAAASUVORK5CYII=;" vertex="1" parent="1">
          <mxGeometry x="327" y="590" width="43.62" height="50" as="geometry" />
        </mxCell>
        <mxCell id="2m_FyNcGKUiWBxxuH8gW-139" value="" style="endArrow=classic;startArrow=classic;html=1;rounded=0;fontFamily=Helvetica;fontSize=12;fontColor=default;strokeColor=#000000;strokeWidth=5;" edge="1" parent="1">
          <mxGeometry width="50" height="50" relative="1" as="geometry">
            <mxPoint x="380" y="590" as="sourcePoint" />
            <mxPoint x="380" y="641" as="targetPoint" />
            <Array as="points">
              <mxPoint x="380" y="590" />
            </Array>
          </mxGeometry>
        </mxCell>
        <mxCell id="2m_FyNcGKUiWBxxuH8gW-140" value="&lt;span style=&quot;background-color: rgb(248, 249, 250);&quot;&gt;&lt;font style=&quot;font-size: 13px;&quot;&gt;0.35m&lt;/font&gt;&lt;/span&gt;" style="edgeLabel;html=1;align=center;verticalAlign=middle;resizable=0;points=[];fontSize=12;fontFamily=Helvetica;fontColor=default;rotation=0;" vertex="1" connectable="0" parent="2m_FyNcGKUiWBxxuH8gW-139">
          <mxGeometry x="-0.1755" relative="1" as="geometry">
            <mxPoint x="31" y="5" as="offset" />
          </mxGeometry>
        </mxCell>
        <mxCell id="2m_FyNcGKUiWBxxuH8gW-143" value="" style="endArrow=classic;startArrow=classic;html=1;rounded=0;fontFamily=Helvetica;fontSize=12;fontColor=default;strokeColor=#000000;strokeWidth=5;" edge="1" parent="1">
          <mxGeometry width="50" height="50" relative="1" as="geometry">
            <mxPoint x="327" y="570" as="sourcePoint" />
            <mxPoint x="377" y="570" as="targetPoint" />
          </mxGeometry>
        </mxCell>
        <mxCell id="2m_FyNcGKUiWBxxuH8gW-144" value="&lt;span style=&quot;background-color: rgb(248, 249, 250);&quot;&gt;0.35m&lt;/span&gt;" style="edgeLabel;html=1;align=center;verticalAlign=middle;resizable=0;points=[];fontSize=12;fontFamily=Helvetica;fontColor=default;" vertex="1" connectable="0" parent="2m_FyNcGKUiWBxxuH8gW-143">
          <mxGeometry x="-0.1647" y="-1" relative="1" as="geometry">
            <mxPoint x="1" y="-31" as="offset" />
          </mxGeometry>
        </mxCell>
        <mxCell id="2m_FyNcGKUiWBxxuH8gW-146" value="" style="shape=image;verticalLabelPosition=bottom;labelBackgroundColor=default;verticalAlign=top;aspect=fixed;imageAspect=0;image=data:image/png,iVBORw0KGgoAAAANSUhEUgAAACkAAAAvCAYAAAB+OePrAAAAAXNSR0IArs4c6QAAAARnQU1BAACxjwv8YQUAAAAJcEhZcwAAEnQAABJ0Ad5mH3gAAAp0SURBVFhHvZjVq1XbF8fH3nYrdgfYHo+FnUdFDAxU7EZEUXzwH7hP4ov6oqLoiwgGBjZ29zEfLOwujGP3uuszzu+7f/NuPB7vyx0w94w14jtizjXXTmzYsCHq3bu3lShRwn7+/GkFChSwRCJh0NevX31MK1iwoH358sW+f/9uxYsXT/HkR/BFUeQtlPnx40dqjZZMJn3t27dvVqRIEfv06ZM/B1dSAmLm4cePHx0wwAoVKuRjCGGExCvjv2pQOEcHDmKLBkkHPTbpixYt6mvFihVz+863ePHiqHv37v7ww4cPDgoGhBQ1egEl0owLFy6cWkMphJGQQhAQ/DStoQvAnz9/dpsEgTm6S5cu7QGBEvXr14+qVq1q1atXd4CkFGGAMdeYdJAKgWRNnuZFAIEXWeQAhw6tlSxZ0t6+fesAWWf88uVLB71kyRJr27ZtroMZGRnR/Pnzo1u3bkXxwygGGcUpj2KPohhIFEfX15nrGX0c6dRY6zR46ZGLazrKyclJrb169crX0MUaTTbev38fZWdnR/37948yMzOjQ4cORTFw5ykwZ86cv168eGFPnjyxGjVqWKlSpTzc8UOPBikgYnjKOtElIoxZJ0I0xprDw5iIESWtUVKxQ6kyYI2yQtf58+dt4cKFlpWVZZUrV/bM1qtXz3mTrVq1sn79+tn9+/dt/fr19vTpU68LlCOMUhoKIZRjFB7VV14EUJ7jsPjQgzy6KRn0XL9+3dPbrVs3GzlypO8D9gcl4SCZAHTYsGFeDwC9ceOGK+AIIpIoBJAIxRiSkvQmQESfORFEHjmAo5vG2rVr12zu3LnWpk0bmz59uuuMU586RdCVRBHC7dq1sz59+hip37Vrl925c8eBwCgeUXr0mP+qKfo4yxx99NJ58eJFW7RokQdp9uzZfvyxeQAoRzwY/Mi7Tp062eDBgx3ojh077NGjR14zPMcgiiHmgA4B0SCVAA2d8Gl3kzVKh2dnz5615cuXW4cOHWzWrFm+RsTJGmP4kMF+UsogFlu2bOkRpTbXrVtnjx8/dsMYwFOBgJeIhA3SOFVPcU9DltJB7sSJE7ZmzRpr1KiRjRkzJlWfAKMeVWbIExwHSWRYoMBZJKJspocPH9qBAwc89Qix8+GnQfRESlHVGo7IGQwCEr3Mjxw54gAbNmxoU6dOtTJlyjgPz2k4I13oAFsScEzo8Qhi3KVLFxs+fLjdvXvXNm3aZM+ePXNhAPEcz+lpREeKAYQ+enhwDkKOFK9du9aaNGlio0ePdqfhQVYyKg/ZgTySEAuMEYIBoc6dO1vXrl0tPoQtvojYgwcPHBCEhxAKyQD8kHp0UGM8I42keNWqVda4cWObOHGiRxAe2YeQDZ2FmDtIIQ4FGNMA2bdvX0/99u3b/dBnXQYEBtBsLJTTSBsNp86cOWPbtm2zKlWq2OTJk1MvDAjb8AsDxFhz9OfCjYlFFMoIjSgAoGPHjjZo0CA/dPfu3eu7XyQ+AFNTKEUPoGmHDx+2rVu3WsWKFW3atGn+vsaWGw9sCZjGkOZekxiAWMCA1gBI+jHWunVrGzp0qJ06dcqNvnv3LnVYExWiRlqZkzb0HD9+3I8yzr3x48f7605HEKSgIAPRM4fgYe48DMTEg7ABUDsOwNQou55DGKC8GXR28hqVAY4rAG7cuNHq1KljU6ZM8UgSPQDLGWzkRTxTfbvWEKhIHursUtRIO0DZqTt37vQ3BMbhg3Ds3r17fsxwQeB1W6lSJY82Rw2GcRz9AilbmjMOI/qPSIrERM8RAiNjTn+M8LnBhhJQAFIS8Fy4cMGWLVtm8T3VhgwZYtWqVXOdyBFteEihohTaomlNpQD57k73CEIJcyKos0y3dNapTzZUfO/zA5/UX7161VPM5qAGSbVeEOhFJ71HJ9YBkHQSn3DBlws1DwIgqSRKRBRhDBI5xgMGDPDjCZAc0itWrDBu+TNmzPDrPzyKGs4JIHpZ+x3BByHzW5AYIEUYUE1SV6wBHuADBw602rVr24IFC/xCwvcSl+fwZCAagMIwOlSTvyJFUCDpfwtSnqNUxhjrkGZ++/ZtPze5zbBznz9/7ptJkfJ0/a/hGITe9EgKVDrlCxJCIVGESDNCuqkQOVLMG2TevHm+oTZv3uyXCC7QOEY0Aaf6ExgBhrSW3ovyBYkyjg8ESS9nIKC5ypFioseVv3z58jZq1Chr3769vz55V+MUEcRRRVMRJCN5Efxh/0cgIaWLWiNKS5cutbJly/ptho8mokZ0ORd5O3G7P3jwoL158yYFDkfV0KWxCFAhQLV/gJQAPUppoQGISzAfTQiPHTvWGjRo4K9I5jhAtMeNG+efI6Se1yg1qo2HM/RQCFCkNXg0Tl3VIIGhx1OlCAPMuapx3SKN3GZq1qzp/EQU0hkKkBEjRvhrlMOes1RvG0jOK0shCYMcgWLe/9eJADGn0GGmsc4mWblypdfkhAkTUt/EAhYCUMR443DLp0Z3797tBzukDQif0i5wyKGPsSh1nxQj4AQQZkABcPXq1e4AF1a+TeBVtGWAMTzIo5P0857nln/s2DHbt2+fp551noc7XvoYp5PXJAIwaQwzHrHGuUcEqTs2Sd26dR0MBA+8cpKx3kzwsIN58/Bhx2Y6efKk7dmzx3JyclIZQ1aOIUNZMCZDAhyv536LQALLGqnhT4ItW7Z4evje4dIgrwEAP8cTRgAsoKzLCHNuQUS0efPmfoYePXrUXwgQfOiCD8JJbMtxmodEHsEIQOaXL1/23QlArmekGCCAgk/OCLDAw4Nh6RNvuXLl/G+Unj17OlBSz/Gk0hAgmkg6kyhRFFgg3FeuXPEa4hn1lJmZmTIKAKUGYowszxURHOG5GjLo5jxt0aKFt9OnT9v+/fv9Iw8ZZOHFvkoGQrdbYgAjTDdv3vRDmBrEc1Ik4jkOoQBQigBAoXTwGgs8crVq1XK9GRkZlp2d7ccT1zyBYlORbuS15n+zgB4l/AlAYZPiHj16uCK8ggdDEKAAKgIIYMNehBE5xTp64OFTolevXtasWTO7dOmSf9wBFN1EHRn45Jj/YcUitxk+mgBIiokgVzKeyTBKQmIetnTSOgYVGQyjE6Ac9gDlrcRXJdnjmWRUAknqh3OQGuTzgKOCmuF2HYLDQNj/CWEIXvHT6+gBDDd3gPKvGh9u586d86yGH2uegaysrL/48Gen8TkASJhQKCZ6jdX+hEK5sIekH1sVKlTwSwv/VbJG2VG7HHkuE9+sI15xXAi4uBJZPNVRoyhIeXr/O0JewKQHYqxoEjH46Dny2Lj87zRz5kzfF8gmmjZtGvE/tSJIOniAchSFJGChwZDSgeug1hh91CaEDkCyRor5b4h9wRWPOZfoGFvuZps0aVJEBNnFqgMo3GV5gUpfTwfJPNQHCSTgeEbGeCa+169fe4B4w/GmcgzxxcFBMuEhoReFRgUoXIPS5yHxDDCSRT+NudbJnD7sGHNOEn16MDFOxHUQ8ariuwUhFKtXy4tk/N9QKMMYsBB2cAAKHaNPEmq8oLEQtvwodCS/9ivSM2wBLAQXyqbOEiYiPfyvScEJ7ScSCfsbFBooRQuiaBUAAAAASUVORK5CYII=;" vertex="1" parent="1">
          <mxGeometry x="993.38" y="590" width="43.62" height="50" as="geometry" />
        </mxCell>
        <mxCell id="2m_FyNcGKUiWBxxuH8gW-147" value="" style="shape=image;verticalLabelPosition=bottom;labelBackgroundColor=default;verticalAlign=top;aspect=fixed;imageAspect=0;image=data:image/png,iVBORw0KGgoAAAANSUhEUgAAACkAAAAvCAYAAAB+OePrAAAAAXNSR0IArs4c6QAAAARnQU1BAACxjwv8YQUAAAAJcEhZcwAAEnQAABJ0Ad5mH3gAAAp0SURBVFhHvZjVq1XbF8fH3nYrdgfYHo+FnUdFDAxU7EZEUXzwH7hP4ov6oqLoiwgGBjZ29zEfLOwujGP3uuszzu+7f/NuPB7vyx0w94w14jtizjXXTmzYsCHq3bu3lShRwn7+/GkFChSwRCJh0NevX31MK1iwoH358sW+f/9uxYsXT/HkR/BFUeQtlPnx40dqjZZMJn3t27dvVqRIEfv06ZM/B1dSAmLm4cePHx0wwAoVKuRjCGGExCvjv2pQOEcHDmKLBkkHPTbpixYt6mvFihVz+863ePHiqHv37v7ww4cPDgoGhBQ1egEl0owLFy6cWkMphJGQQhAQ/DStoQvAnz9/dpsEgTm6S5cu7QGBEvXr14+qVq1q1atXd4CkFGGAMdeYdJAKgWRNnuZFAIEXWeQAhw6tlSxZ0t6+fesAWWf88uVLB71kyRJr27ZtroMZGRnR/Pnzo1u3bkXxwygGGcUpj2KPohhIFEfX15nrGX0c6dRY6zR46ZGLazrKyclJrb169crX0MUaTTbev38fZWdnR/37948yMzOjQ4cORTFw5ykwZ86cv168eGFPnjyxGjVqWKlSpTzc8UOPBikgYnjKOtElIoxZJ0I0xprDw5iIESWtUVKxQ6kyYI2yQtf58+dt4cKFlpWVZZUrV/bM1qtXz3mTrVq1sn79+tn9+/dt/fr19vTpU68LlCOMUhoKIZRjFB7VV14EUJ7jsPjQgzy6KRn0XL9+3dPbrVs3GzlypO8D9gcl4SCZAHTYsGFeDwC9ceOGK+AIIpIoBJAIxRiSkvQmQESfORFEHjmAo5vG2rVr12zu3LnWpk0bmz59uuuMU586RdCVRBHC7dq1sz59+hip37Vrl925c8eBwCgeUXr0mP+qKfo4yxx99NJ58eJFW7RokQdp9uzZfvyxeQAoRzwY/Mi7Tp062eDBgx3ojh077NGjR14zPMcgiiHmgA4B0SCVAA2d8Gl3kzVKh2dnz5615cuXW4cOHWzWrFm+RsTJGmP4kMF+UsogFlu2bOkRpTbXrVtnjx8/dsMYwFOBgJeIhA3SOFVPcU9DltJB7sSJE7ZmzRpr1KiRjRkzJlWfAKMeVWbIExwHSWRYoMBZJKJspocPH9qBAwc89Qix8+GnQfRESlHVGo7IGQwCEr3Mjxw54gAbNmxoU6dOtTJlyjgPz2k4I13oAFsScEzo8Qhi3KVLFxs+fLjdvXvXNm3aZM+ePXNhAPEcz+lpREeKAYQ+enhwDkKOFK9du9aaNGlio0ePdqfhQVYyKg/ZgTySEAuMEYIBoc6dO1vXrl0tPoQtvojYgwcPHBCEhxAKyQD8kHp0UGM8I42keNWqVda4cWObOHGiRxAe2YeQDZ2FmDtIIQ4FGNMA2bdvX0/99u3b/dBnXQYEBtBsLJTTSBsNp86cOWPbtm2zKlWq2OTJk1MvDAjb8AsDxFhz9OfCjYlFFMoIjSgAoGPHjjZo0CA/dPfu3eu7XyQ+AFNTKEUPoGmHDx+2rVu3WsWKFW3atGn+vsaWGw9sCZjGkOZekxiAWMCA1gBI+jHWunVrGzp0qJ06dcqNvnv3LnVYExWiRlqZkzb0HD9+3I8yzr3x48f7605HEKSgIAPRM4fgYe48DMTEg7ABUDsOwNQou55DGKC8GXR28hqVAY4rAG7cuNHq1KljU6ZM8UgSPQDLGWzkRTxTfbvWEKhIHursUtRIO0DZqTt37vQ3BMbhg3Ds3r17fsxwQeB1W6lSJY82Rw2GcRz9AilbmjMOI/qPSIrERM8RAiNjTn+M8LnBhhJQAFIS8Fy4cMGWLVtm8T3VhgwZYtWqVXOdyBFteEihohTaomlNpQD57k73CEIJcyKos0y3dNapTzZUfO/zA5/UX7161VPM5qAGSbVeEOhFJ71HJ9YBkHQSn3DBlws1DwIgqSRKRBRhDBI5xgMGDPDjCZAc0itWrDBu+TNmzPDrPzyKGs4JIHpZ+x3BByHzW5AYIEUYUE1SV6wBHuADBw602rVr24IFC/xCwvcSl+fwZCAagMIwOlSTvyJFUCDpfwtSnqNUxhjrkGZ++/ZtPze5zbBznz9/7ptJkfJ0/a/hGITe9EgKVDrlCxJCIVGESDNCuqkQOVLMG2TevHm+oTZv3uyXCC7QOEY0Aaf6ExgBhrSW3ovyBYkyjg8ESS9nIKC5ypFioseVv3z58jZq1Chr3769vz55V+MUEcRRRVMRJCN5Efxh/0cgIaWLWiNKS5cutbJly/ptho8mokZ0ORd5O3G7P3jwoL158yYFDkfV0KWxCFAhQLV/gJQAPUppoQGISzAfTQiPHTvWGjRo4K9I5jhAtMeNG+efI6Se1yg1qo2HM/RQCFCkNXg0Tl3VIIGhx1OlCAPMuapx3SKN3GZq1qzp/EQU0hkKkBEjRvhrlMOes1RvG0jOK0shCYMcgWLe/9eJADGn0GGmsc4mWblypdfkhAkTUt/EAhYCUMR443DLp0Z3797tBzukDQif0i5wyKGPsSh1nxQj4AQQZkABcPXq1e4AF1a+TeBVtGWAMTzIo5P0857nln/s2DHbt2+fp551noc7XvoYp5PXJAIwaQwzHrHGuUcEqTs2Sd26dR0MBA+8cpKx3kzwsIN58/Bhx2Y6efKk7dmzx3JyclIZQ1aOIUNZMCZDAhyv536LQALLGqnhT4ItW7Z4evje4dIgrwEAP8cTRgAsoKzLCHNuQUS0efPmfoYePXrUXwgQfOiCD8JJbMtxmodEHsEIQOaXL1/23QlArmekGCCAgk/OCLDAw4Nh6RNvuXLl/G+Unj17OlBSz/Gk0hAgmkg6kyhRFFgg3FeuXPEa4hn1lJmZmTIKAKUGYowszxURHOG5GjLo5jxt0aKFt9OnT9v+/fv9Iw8ZZOHFvkoGQrdbYgAjTDdv3vRDmBrEc1Ik4jkOoQBQigBAoXTwGgs8crVq1XK9GRkZlp2d7ccT1zyBYlORbuS15n+zgB4l/AlAYZPiHj16uCK8ggdDEKAAKgIIYMNehBE5xTp64OFTolevXtasWTO7dOmSf9wBFN1EHRn45Jj/YcUitxk+mgBIiokgVzKeyTBKQmIetnTSOgYVGQyjE6Ac9gDlrcRXJdnjmWRUAknqh3OQGuTzgKOCmuF2HYLDQNj/CWEIXvHT6+gBDDd3gPKvGh9u586d86yGH2uegaysrL/48Gen8TkASJhQKCZ6jdX+hEK5sIekH1sVKlTwSwv/VbJG2VG7HHkuE9+sI15xXAi4uBJZPNVRoyhIeXr/O0JewKQHYqxoEjH46Dny2Lj87zRz5kzfF8gmmjZtGvE/tSJIOniAchSFJGChwZDSgeug1hh91CaEDkCyRor5b4h9wRWPOZfoGFvuZps0aVJEBNnFqgMo3GV5gUpfTwfJPNQHCSTgeEbGeCa+169fe4B4w/GmcgzxxcFBMuEhoReFRgUoXIPS5yHxDDCSRT+NudbJnD7sGHNOEn16MDFOxHUQ8ariuwUhFKtXy4tk/N9QKMMYsBB2cAAKHaNPEmq8oLEQtvwodCS/9ivSM2wBLAQXyqbOEiYiPfyvScEJ7ScSCfsbFBooRQuiaBUAAAAASUVORK5CYII=;" vertex="1" parent="1">
          <mxGeometry x="993.38" y="-10" width="43.62" height="50" as="geometry" />
        </mxCell>
        <mxCell id="2m_FyNcGKUiWBxxuH8gW-148" value="" style="endArrow=classic;startArrow=classic;html=1;rounded=0;fontFamily=Helvetica;fontSize=12;fontColor=default;strokeColor=#000000;strokeWidth=5;" edge="1" parent="1">
          <mxGeometry width="50" height="50" relative="1" as="geometry">
            <mxPoint x="990.19" y="-30.000000000000142" as="sourcePoint" />
            <mxPoint x="1040.19" y="-30.000000000000142" as="targetPoint" />
            <Array as="points">
              <mxPoint x="1020.19" y="-30" />
            </Array>
          </mxGeometry>
        </mxCell>
        <mxCell id="2m_FyNcGKUiWBxxuH8gW-149" value="&lt;span style=&quot;background-color: rgb(248, 249, 250);&quot;&gt;0.35m&lt;/span&gt;" style="edgeLabel;html=1;align=center;verticalAlign=middle;resizable=0;points=[];fontSize=12;fontFamily=Helvetica;fontColor=default;" vertex="1" connectable="0" parent="2m_FyNcGKUiWBxxuH8gW-148">
          <mxGeometry x="-0.1647" y="-1" relative="1" as="geometry">
            <mxPoint x="1" y="-31" as="offset" />
          </mxGeometry>
        </mxCell>
        <mxCell id="2m_FyNcGKUiWBxxuH8gW-150" value="" style="endArrow=classic;startArrow=classic;html=1;rounded=0;fontFamily=Helvetica;fontSize=12;fontColor=default;strokeColor=#000000;strokeWidth=5;" edge="1" parent="1">
          <mxGeometry width="50" height="50" relative="1" as="geometry">
            <mxPoint x="970" y="589" as="sourcePoint" />
            <mxPoint x="970" y="640" as="targetPoint" />
            <Array as="points">
              <mxPoint x="970" y="589" />
            </Array>
          </mxGeometry>
        </mxCell>
        <mxCell id="2m_FyNcGKUiWBxxuH8gW-151" value="&lt;span style=&quot;background-color: rgb(248, 249, 250);&quot;&gt;&lt;font style=&quot;font-size: 13px;&quot;&gt;0.35m&lt;/font&gt;&lt;/span&gt;" style="edgeLabel;html=1;align=center;verticalAlign=middle;resizable=0;points=[];fontSize=12;fontFamily=Helvetica;fontColor=default;rotation=0;" vertex="1" connectable="0" parent="2m_FyNcGKUiWBxxuH8gW-150">
          <mxGeometry x="-0.1755" relative="1" as="geometry">
            <mxPoint x="-40" y="3" as="offset" />
          </mxGeometry>
        </mxCell>
        <mxCell id="2m_FyNcGKUiWBxxuH8gW-152" value="" style="endArrow=classic;startArrow=classic;html=1;rounded=0;fontFamily=Helvetica;fontSize=12;fontColor=default;strokeColor=#000000;strokeWidth=5;" edge="1" parent="1">
          <mxGeometry width="50" height="50" relative="1" as="geometry">
            <mxPoint x="987" y="569.9999999999998" as="sourcePoint" />
            <mxPoint x="1037" y="569.9999999999998" as="targetPoint" />
            <Array as="points">
              <mxPoint x="1017" y="570" />
            </Array>
          </mxGeometry>
        </mxCell>
        <mxCell id="2m_FyNcGKUiWBxxuH8gW-153" value="&lt;span style=&quot;background-color: rgb(248, 249, 250);&quot;&gt;0.35m&lt;/span&gt;" style="edgeLabel;html=1;align=center;verticalAlign=middle;resizable=0;points=[];fontSize=12;fontFamily=Helvetica;fontColor=default;" vertex="1" connectable="0" parent="2m_FyNcGKUiWBxxuH8gW-152">
          <mxGeometry x="-0.1647" y="-1" relative="1" as="geometry">
            <mxPoint x="1" y="-31" as="offset" />
          </mxGeometry>
        </mxCell>
        <mxCell id="2m_FyNcGKUiWBxxuH8gW-154" value="" style="endArrow=classic;startArrow=classic;html=1;rounded=0;fontFamily=Helvetica;fontSize=12;fontColor=default;strokeColor=#000000;strokeWidth=5;" edge="1" parent="1">
          <mxGeometry width="50" height="50" relative="1" as="geometry">
            <mxPoint x="880" y="100" as="sourcePoint" />
            <mxPoint x="880" y="200" as="targetPoint" />
            <Array as="points">
              <mxPoint x="880" y="139" />
            </Array>
          </mxGeometry>
        </mxCell>
        <mxCell id="2m_FyNcGKUiWBxxuH8gW-155" value="&lt;span style=&quot;font-size: 30px; background-color: rgb(248, 249, 250);&quot;&gt;1.2m&lt;/span&gt;" style="edgeLabel;html=1;align=center;verticalAlign=middle;resizable=0;points=[];fontSize=12;fontFamily=Helvetica;fontColor=default;rotation=0;" vertex="1" connectable="0" parent="2m_FyNcGKUiWBxxuH8gW-154">
          <mxGeometry x="-0.1755" relative="1" as="geometry">
            <mxPoint x="50" y="8" as="offset" />
          </mxGeometry>
        </mxCell>
        <mxCell id="2m_FyNcGKUiWBxxuH8gW-156" value="" style="endArrow=classic;startArrow=classic;html=1;rounded=0;fontFamily=Helvetica;fontSize=12;fontColor=default;strokeColor=#000000;strokeWidth=5;" edge="1" parent="1">
          <mxGeometry width="50" height="50" relative="1" as="geometry">
            <mxPoint x="830" y="-400" as="sourcePoint" />
            <mxPoint x="830.19" y="-90" as="targetPoint" />
          </mxGeometry>
        </mxCell>
        <mxCell id="2m_FyNcGKUiWBxxuH8gW-157" value="&lt;br&gt;&lt;span style=&quot;color: rgb(0, 0, 0); font-family: Helvetica; font-size: 30px; font-style: normal; font-variant-ligatures: normal; font-variant-caps: normal; font-weight: 400; letter-spacing: normal; orphans: 2; text-align: center; text-indent: 0px; text-transform: none; widows: 2; word-spacing: 0px; -webkit-text-stroke-width: 0px; background-color: rgb(248, 249, 250); text-decoration-thickness: initial; text-decoration-style: initial; text-decoration-color: initial; float: none; display: inline !important;&quot;&gt;3.5m&lt;/span&gt;" style="edgeLabel;html=1;align=center;verticalAlign=middle;resizable=0;points=[];fontSize=12;fontFamily=Helvetica;fontColor=default;" vertex="1" connectable="0" parent="2m_FyNcGKUiWBxxuH8gW-156">
          <mxGeometry x="-0.1157" y="-6" relative="1" as="geometry">
            <mxPoint x="-38" y="4" as="offset" />
          </mxGeometry>
        </mxCell>
        <mxCell id="2m_FyNcGKUiWBxxuH8gW-160" value="" style="endArrow=classic;startArrow=classic;html=1;rounded=0;fontFamily=Helvetica;fontSize=12;fontColor=default;strokeColor=#000000;strokeWidth=5;" edge="1" parent="1">
          <mxGeometry width="50" height="50" relative="1" as="geometry">
            <mxPoint x="980" y="-280" as="sourcePoint" />
            <mxPoint x="980.1599999999999" y="-159" as="targetPoint" />
            <Array as="points">
              <mxPoint x="980.16" y="-220" />
            </Array>
          </mxGeometry>
        </mxCell>
        <mxCell id="2m_FyNcGKUiWBxxuH8gW-161" value="&lt;span style=&quot;font-size: 30px; background-color: rgb(248, 249, 250);&quot;&gt;1.5m&lt;/span&gt;" style="edgeLabel;html=1;align=center;verticalAlign=middle;resizable=0;points=[];fontSize=12;fontFamily=Helvetica;fontColor=default;rotation=0;" vertex="1" connectable="0" parent="2m_FyNcGKUiWBxxuH8gW-160">
          <mxGeometry x="-0.1755" relative="1" as="geometry">
            <mxPoint x="-50" y="7" as="offset" />
          </mxGeometry>
        </mxCell>
      </root>
    </mxGraphModel>
  </diagram>
</mxfile>
